/* XPM */
static char *AnalyzeRun_xpm[] = {
/* width height num_colors chars_per_pixel */
"    24    24      256            2",
/* colors */
"`` c None",
"`. c #577090",
"`# c #9eafc4",
"`a c #546d8c",
"`b c #516987",
"`c c #95a8bf",
"`d c #4e6481",
"`e c #869bb6",
"`f c #577191",
"`g c #8096b2",
"`h c #465b74",
"`i c #8499b5",
"`j c #7b92af",
"`k c #4a5f7a",
"`l c #627ea0",
"`m c #3f5269",
"`n c #778fad",
"`o c #607c9f",
"`p c #6883a4",
"`q c #3d4f65",
"`r c #39495e",
"`s c #516886",
"`t c #354457",
"`u c #334255",
"`v c #334154",
"`w c #5e7a9c",
"`x c #303e50",
"`y c #2c3848",
"`z c #556e8d",
"`A c #475c75",
"`B c #2d3a4b",
"`C c #4b617d",
"`D c #fbfcfd",
"`E c #283442",
"`F c #4b607c",
"`G c #2c394a",
"`H c #4d637f",
"`I c #25303d",
"`J c #506784",
"`K c #232e3b",
"`L c #2b3847",
"`M c #212b37",
"`N c #536b89",
"`O c #000000",
"`P c #000000",
"`Q c #000000",
"`R c #000000",
"`S c #000000",
"`T c #000000",
"`U c #000000",
"`V c #000000",
"`W c #000000",
"`X c #000000",
"`Y c #000000",
"`Z c #000000",
"`0 c #000000",
"`1 c #000000",
"`2 c #000000",
"`3 c #000000",
"`4 c #000000",
"`5 c #000000",
"`6 c #000000",
"`7 c #000000",
"`8 c #000000",
".` c #000000",
".. c #000000",
".# c #000000",
".a c #000000",
".b c #000000",
".c c #000000",
".d c #000000",
".e c #000000",
".f c #000000",
".g c #000000",
".h c #000000",
".i c #000000",
".j c #000000",
".k c #000000",
".l c #000000",
".m c #000000",
".n c #000000",
".o c #000000",
".p c #000000",
".q c #000000",
".r c #000000",
".s c #000000",
".t c #000000",
".u c #000000",
".v c #000000",
".w c #000000",
".x c #000000",
".y c #000000",
".z c #000000",
".A c #000000",
".B c #000000",
".C c #000000",
".D c #000000",
".E c #000000",
".F c #000000",
".G c #000000",
".H c #000000",
".I c #000000",
".J c #000000",
".K c #000000",
".L c #000000",
".M c #000000",
".N c #000000",
".O c #000000",
".P c #000000",
".Q c #000000",
".R c #000000",
".S c #000000",
".T c #000000",
".U c #000000",
".V c #000000",
".W c #000000",
".X c #000000",
".Y c #000000",
".Z c #000000",
".0 c #000000",
".1 c #000000",
".2 c #000000",
".3 c #000000",
".4 c #000000",
".5 c #000000",
".6 c #000000",
".7 c #000000",
".8 c #000000",
"#` c #000000",
"#. c #000000",
"## c #000000",
"#a c #000000",
"#b c #000000",
"#c c #000000",
"#d c #000000",
"#e c #000000",
"#f c #000000",
"#g c #000000",
"#h c #000000",
"#i c #000000",
"#j c #000000",
"#k c #000000",
"#l c #000000",
"#m c #000000",
"#n c #000000",
"#o c #000000",
"#p c #000000",
"#q c #000000",
"#r c #000000",
"#s c #000000",
"#t c #000000",
"#u c #000000",
"#v c #000000",
"#w c #000000",
"#x c #000000",
"#y c #000000",
"#z c #000000",
"#A c #000000",
"#B c #000000",
"#C c #000000",
"#D c #000000",
"#E c #000000",
"#F c #000000",
"#G c #000000",
"#H c #000000",
"#I c #000000",
"#J c #000000",
"#K c #000000",
"#L c #000000",
"#M c #000000",
"#N c #000000",
"#O c #000000",
"#P c #000000",
"#Q c #000000",
"#R c #000000",
"#S c #000000",
"#T c #000000",
"#U c #000000",
"#V c #000000",
"#W c #000000",
"#X c #000000",
"#Y c #000000",
"#Z c #000000",
"#0 c #000000",
"#1 c #000000",
"#2 c #000000",
"#3 c #000000",
"#4 c #000000",
"#5 c #000000",
"#6 c #000000",
"#7 c #000000",
"#8 c #000000",
"a` c #000000",
"a. c #000000",
"a# c #000000",
"aa c #000000",
"ab c #000000",
"ac c #000000",
"ad c #000000",
"ae c #000000",
"af c #000000",
"ag c #000000",
"ah c #000000",
"ai c #000000",
"aj c #000000",
"ak c #000000",
"al c #000000",
"am c #000000",
"an c #000000",
"ao c #000000",
"ap c #000000",
"aq c #000000",
"ar c #000000",
"as c #000000",
"at c #000000",
"au c #000000",
"av c #000000",
"aw c #000000",
"ax c #000000",
"ay c #000000",
"az c #000000",
"aA c #000000",
"aB c #000000",
"aC c #000000",
"aD c #000000",
"aE c #000000",
"aF c #000000",
"aG c #000000",
"aH c #000000",
"aI c #000000",
"aJ c #000000",
"aK c #000000",
"aL c #000000",
"aM c #000000",
"aN c #000000",
"aO c #000000",
"aP c #000000",
"aQ c #000000",
"aR c #000000",
"aS c #000000",
"aT c #000000",
"aU c #000000",
"aV c #000000",
"aW c #000000",
"aX c #000000",
"aY c #000000",
"aZ c #000000",
"a0 c #000000",
"a1 c #000000",
"a2 c #000000",
"a3 c #000000",
"a4 c #000000",
"a5 c #000000",
"a6 c #000000",
"a7 c #000000",
"a8 c #000000",
/* pixels */
"````````````````````````````````````````````````",
"````````````````````````````````````````````````",
"````````````````````````````````````````````````",
"````````````````````````````````````````````````",
"````````````````````````````````````````````````",
"````````````````````````````````````````````````",
"```````````````````.`#``````````````````````````",
"```````````````````a`b`c````````````````````````",
"```````````````````d`e`f`g``````````````````````",
"```````````````````h`i`j`k`l````````````````````",
"```````````````````m`n`o`p`q`.``````````````````",
"```````````````````r`p`s`b`f`t`u````````````````",
"```````````````````v`w`k`k`s`x`k````````````````",
"```````````````````y`z`A`d`B`C`D````````````````",
"```````````````````E`d`F`G`H````````````````````",
"```````````````````I`k`y`J``````````````````````",
"```````````````````K`L`J````````````````````````",
"```````````````````M`N``````````````````````````",
"````````````````````````````````````````````````",
"````````````````````````````````````````````````",
"````````````````````````````````````````````````",
"````````````````````````````````````````````````",
"````````````````````````````````````````````````",
"````````````````````````````````````````````````"
};
