/* XPM */
static char *AnalyzeStop_xpm[] = {
/* width height num_colors chars_per_pixel */
"    24    24      256            2",
/* colors */
"`` c None",
"`. c #dce2ea",
"`# c #4b607c",
"`a c #2f3c4d",
"`b c #263240",
"`c c #1f2833",
"`d c #10141a",
"`e c #040506",
"`f c #0e1318",
"`g c #1a222c",
"`h c #3c4e64",
"`i c #6a84a5",
"`j c #5d799b",
"`k c #d8dfe8",
"`l c #4a5f7a",
"`m c #394a5f",
"`n c #364559",
"`o c #293543",
"`p c #222c38",
"`q c #2c3848",
"`r c #334255",
"`s c #5e7a9c",
"`t c #9daec4",
"`u c #6681a3",
"`v c #d7dee7",
"`w c #4e6582",
"`x c #42556d",
"`y c #42566e",
"`z c #3b4c61",
"`A c #38485c",
"`B c #445870",
"`C c #728baa",
"`D c #aebcce",
"`E c #6b85a6",
"`F c #41546b",
"`G c #40536a",
"`H c #354457",
"`I c #3d4f65",
"`J c #3f5269",
"`K c #aab9cc",
"`L c #6c86a6",
"`M c #3e5066",
"`N c #6f88a8",
"`O c #39495e",
"`P c #718aa9",
"`Q c #acbacd",
"`R c #37475b",
"`S c #dde3eb",
"`T c #4b617d",
"`U c #334154",
"`V c #303e50",
"`W c #25303d",
"`X c #212b37",
"`Y c #202a36",
"`Z c #566f8e",
"`0 c #8ca1ba",
"`1 c #617da0",
"`2 c #344356",
"`3 c #313f51",
"`4 c #283442",
"`5 c #1e2732",
"`6 c #324052",
"`7 c #485d77",
"`8 c #516886",
".` c #d6dde6",
".. c #000000",
".# c #000000",
".a c #000000",
".b c #000000",
".c c #000000",
".d c #000000",
".e c #000000",
".f c #000000",
".g c #000000",
".h c #000000",
".i c #000000",
".j c #000000",
".k c #000000",
".l c #000000",
".m c #000000",
".n c #000000",
".o c #000000",
".p c #000000",
".q c #000000",
".r c #000000",
".s c #000000",
".t c #000000",
".u c #000000",
".v c #000000",
".w c #000000",
".x c #000000",
".y c #000000",
".z c #000000",
".A c #000000",
".B c #000000",
".C c #000000",
".D c #000000",
".E c #000000",
".F c #000000",
".G c #000000",
".H c #000000",
".I c #000000",
".J c #000000",
".K c #000000",
".L c #000000",
".M c #000000",
".N c #000000",
".O c #000000",
".P c #000000",
".Q c #000000",
".R c #000000",
".S c #000000",
".T c #000000",
".U c #000000",
".V c #000000",
".W c #000000",
".X c #000000",
".Y c #000000",
".Z c #000000",
".0 c #000000",
".1 c #000000",
".2 c #000000",
".3 c #000000",
".4 c #000000",
".5 c #000000",
".6 c #000000",
".7 c #000000",
".8 c #000000",
"#` c #000000",
"#. c #000000",
"## c #000000",
"#a c #000000",
"#b c #000000",
"#c c #000000",
"#d c #000000",
"#e c #000000",
"#f c #000000",
"#g c #000000",
"#h c #000000",
"#i c #000000",
"#j c #000000",
"#k c #000000",
"#l c #000000",
"#m c #000000",
"#n c #000000",
"#o c #000000",
"#p c #000000",
"#q c #000000",
"#r c #000000",
"#s c #000000",
"#t c #000000",
"#u c #000000",
"#v c #000000",
"#w c #000000",
"#x c #000000",
"#y c #000000",
"#z c #000000",
"#A c #000000",
"#B c #000000",
"#C c #000000",
"#D c #000000",
"#E c #000000",
"#F c #000000",
"#G c #000000",
"#H c #000000",
"#I c #000000",
"#J c #000000",
"#K c #000000",
"#L c #000000",
"#M c #000000",
"#N c #000000",
"#O c #000000",
"#P c #000000",
"#Q c #000000",
"#R c #000000",
"#S c #000000",
"#T c #000000",
"#U c #000000",
"#V c #000000",
"#W c #000000",
"#X c #000000",
"#Y c #000000",
"#Z c #000000",
"#0 c #000000",
"#1 c #000000",
"#2 c #000000",
"#3 c #000000",
"#4 c #000000",
"#5 c #000000",
"#6 c #000000",
"#7 c #000000",
"#8 c #000000",
"a` c #000000",
"a. c #000000",
"a# c #000000",
"aa c #000000",
"ab c #000000",
"ac c #000000",
"ad c #000000",
"ae c #000000",
"af c #000000",
"ag c #000000",
"ah c #000000",
"ai c #000000",
"aj c #000000",
"ak c #000000",
"al c #000000",
"am c #000000",
"an c #000000",
"ao c #000000",
"ap c #000000",
"aq c #000000",
"ar c #000000",
"as c #000000",
"at c #000000",
"au c #000000",
"av c #000000",
"aw c #000000",
"ax c #000000",
"ay c #000000",
"az c #000000",
"aA c #000000",
"aB c #000000",
"aC c #000000",
"aD c #000000",
"aE c #000000",
"aF c #000000",
"aG c #000000",
"aH c #000000",
"aI c #000000",
"aJ c #000000",
"aK c #000000",
"aL c #000000",
"aM c #000000",
"aN c #000000",
"aO c #000000",
"aP c #000000",
"aQ c #000000",
"aR c #000000",
"aS c #000000",
"aT c #000000",
"aU c #000000",
"aV c #000000",
"aW c #000000",
"aX c #000000",
"aY c #000000",
"aZ c #000000",
"a0 c #000000",
"a1 c #000000",
"a2 c #000000",
"a3 c #000000",
"a4 c #000000",
"a5 c #000000",
"a6 c #000000",
"a7 c #000000",
"a8 c #000000",
/* pixels */
"````````````````````````````````````````````````",
"````````````````````````````````````````````````",
"````````````````````````````````````````````````",
"````````````````````````````````````````````````",
"````````````````````````````````````````````````",
"````````````````````````````````````````````````",
"````````````````````````````````````````````````",
"````````````````````````````````````````````````",
"```````````.`#`a`b`c`d`e`e`f`g`h`i`j`k``````````",
"```````````.`l`m`n`o`p`p`q`a`r`s`t`u`v``````````",
"```````````.`w`x`y`z`A`m`y`B`y`C`D`E`v``````````",
"```````````.`w`F`G`A`H`H`I`J`G`i`K`L`v``````````",
"```````````.`w`G`G`m`n`n`M`G`x`N`K`E`v``````````",
"```````````.`w`G`G`O`n`n`J`F`x`P`Q`E`v``````````",
"```````````.`w`F`G`R`H`H`h`G`J`L`Q`E`v``````````",
"```````````S`T`U`V`W`X`Y`o`q`V`Z`0`1`k``````````",
"```````````v`B`2`3`4`c`5`b`q`6`7`j`8.```````````",
"````````````````````````````````````````````````",
"````````````````````````````````````````````````",
"````````````````````````````````````````````````",
"````````````````````````````````````````````````",
"````````````````````````````````````````````````",
"````````````````````````````````````````````````",
"````````````````````````````````````````````````"
};
