/* XPM */
static char *DefineSectionCir_xpm[] = {
/* width height num_colors chars_per_pixel */
"    96    72      256            2",
/* colors */
"`` c none",
"`. c #c7c7c7",
"`# c #bfbfbf",
"`a c #afafaf",
"`b c #7f7f7f",
"`c c #9f9f9f",
"`d c #f7f7f7",
"`e c #666666",
"`f c #161616",
"`g c #2e2e2e",
"`h c #343434",
"`i c #404040",
"`j c #606060",
"`k c #4b4b4b",
"`l c #0e0e0e",
"`m c #4c4c4c",
"`n c #efefef",
"`o c #8e8e8e",
"`p c #727272",
"`q c #aeaeae",
"`r c #c0c0c0",
"`s c #bababa",
"`t c #848484",
"`u c #656565",
"`v c #e7e7e7",
"`w c #242424",
"`x c #575757",
"`y c #737373",
"`z c #1c1c1c",
"`A c #757575",
"`B c #545454",
"`C c #a8a8a8",
"`D c #686868",
"`E c #323232",
"`F c #d7d7d7",
"`G c #dfdfdf",
"`H c #333333",
"`I c #a2a2a2",
"`J c #303030",
"`K c #cfcfcf",
"`L c #292929",
"`M c #9c9c9c",
"`N c #b4b4b4",
"`O c #414141",
"`P c #9d9d9d",
"`Q c #313131",
"`R c #3b3b3b",
"`S c #969696",
"`T c #5c5c5c",
"`U c #797979",
"`V c #2b2b2b",
"`W c #636363",
"`X c #7c7c7c",
"`Y c #2c2c2c",
"`Z c #6d6d6d",
"`0 c #3c3c3c",
"`1 c #909090",
"`2 c #151515",
"`3 c #464646",
"`4 c #a7a7a7",
"`5 c #787878",
"`6 c #5d5d5d",
"`7 c #444444",
"`8 c #8a8a8a",
".` c #1d1d1d",
".. c #1b1b1b",
".# c #070707",
".a c #3a3a3a",
".b c #b7b7b7",
".c c #282828",
".d c #252525",
".e c #616161",
".f c #7e7e7e",
".g c #6e6e6e",
".h c #6c6c6c",
".i c #5e5e5e",
".j c #7a7a7a",
".k c #5b5b5b",
".l c #585858",
".m c #858585",
".n c #8d8d8d",
".o c #626262",
".p c #222222",
".q c #7d7d7d",
".r c #555555",
".s c #000000",
".t c #000000",
".u c #000000",
".v c #000000",
".w c #000000",
".x c #000000",
".y c #000000",
".z c #000000",
".A c #000000",
".B c #000000",
".C c #000000",
".D c #000000",
".E c #000000",
".F c #000000",
".G c #000000",
".H c #000000",
".I c #000000",
".J c #000000",
".K c #000000",
".L c #000000",
".M c #000000",
".N c #000000",
".O c #000000",
".P c #000000",
".Q c #000000",
".R c #000000",
".S c #000000",
".T c #000000",
".U c #000000",
".V c #000000",
".W c #000000",
".X c #000000",
".Y c #000000",
".Z c #000000",
".0 c #000000",
".1 c #000000",
".2 c #000000",
".3 c #000000",
".4 c #000000",
".5 c #000000",
".6 c #000000",
".7 c #000000",
".8 c #000000",
"#` c #000000",
"#. c #000000",
"## c #000000",
"#a c #000000",
"#b c #000000",
"#c c #000000",
"#d c #000000",
"#e c #000000",
"#f c #000000",
"#g c #000000",
"#h c #000000",
"#i c #000000",
"#j c #000000",
"#k c #000000",
"#l c #000000",
"#m c #000000",
"#n c #000000",
"#o c #000000",
"#p c #000000",
"#q c #000000",
"#r c #000000",
"#s c #000000",
"#t c #000000",
"#u c #000000",
"#v c #000000",
"#w c #000000",
"#x c #000000",
"#y c #000000",
"#z c #000000",
"#A c #000000",
"#B c #000000",
"#C c #000000",
"#D c #000000",
"#E c #000000",
"#F c #000000",
"#G c #000000",
"#H c #000000",
"#I c #000000",
"#J c #000000",
"#K c #000000",
"#L c #000000",
"#M c #000000",
"#N c #000000",
"#O c #000000",
"#P c #000000",
"#Q c #000000",
"#R c #000000",
"#S c #000000",
"#T c #000000",
"#U c #000000",
"#V c #000000",
"#W c #000000",
"#X c #000000",
"#Y c #000000",
"#Z c #000000",
"#0 c #000000",
"#1 c #000000",
"#2 c #000000",
"#3 c #000000",
"#4 c #000000",
"#5 c #000000",
"#6 c #000000",
"#7 c #000000",
"#8 c #000000",
"a` c #000000",
"a. c #000000",
"a# c #000000",
"aa c #000000",
"ab c #000000",
"ac c #000000",
"ad c #000000",
"ae c #000000",
"af c #000000",
"ag c #000000",
"ah c #000000",
"ai c #000000",
"aj c #000000",
"ak c #000000",
"al c #000000",
"am c #000000",
"an c #000000",
"ao c #000000",
"ap c #000000",
"aq c #000000",
"ar c #000000",
"as c #000000",
"at c #000000",
"au c #000000",
"av c #000000",
"aw c #000000",
"ax c #000000",
"ay c #000000",
"az c #000000",
"aA c #000000",
"aB c #000000",
"aC c #000000",
"aD c #000000",
"aE c #000000",
"aF c #000000",
"aG c #000000",
"aH c #000000",
"aI c #000000",
"aJ c #000000",
"aK c #000000",
"aL c #000000",
"aM c #000000",
"aN c #000000",
"aO c #000000",
"aP c #000000",
"aQ c #000000",
"aR c #000000",
"aS c #000000",
"aT c #000000",
"aU c #000000",
"aV c #000000",
"aW c #000000",
"aX c #000000",
"aY c #000000",
"aZ c #000000",
"a0 c #000000",
"a1 c #000000",
"a2 c #000000",
"a3 c #000000",
"a4 c #000000",
"a5 c #000000",
"a6 c #000000",
"a7 c #000000",
"a8 c #000000",
/* pixels */
"````````````````````````````````````````````````````````````````````````````````````````````````````````````````````````````````````````````````````````````````````````````````````````````````",
"````````````````````````````````````````````````````````````````````````````````````````````````````````````````````````````````````````````````````````````````````````````````````````````````",
"````````````````````````````````````````````````````````````````````````````````````````````````````````````````````````````````````````````````````````````````````````````````````````````````",
"````````````````````````````````````````````````````````````````````````````````````````````````````````````````````````````````````````````````````````````````````````````````````````````````",
"````````````````````````````````````````````````````````````````````````````````````````````````````````````````````````````````````````````````````````````````````````````````````````````````",
"````````````````````````````````````````````````````````````````````````````````````````````````````````````````````````````````````````````````````````````````````````````````````````````````",
"````````````````````````````````````````````````````````````````````````````````````````````````````````````````````````````````````````````````````````````````````````````````````````````````",
"````````````````````````````````````````````````````````````````````````````````````````````````````````````````````````````````````````````````````````````````````````````````````````````````",
"````````````````````````````````````````````````````````````````````````````````````````````````````````````````````````````````````````````````````````````````````````````````````````````````",
"````````````````````````````````````````````````````````````````````````````````````````````````````````````````````````````````````````````````````````````````````````````````````````````````",
"````````````````````````````````````````````````````````````````````````````````````````````````````````````````````````````````````````````````````````````````````````````````````````````````",
"````````````````````````````````````````````````````````````````````````````````````````````````````````````````````````````````````````````````````````````````````````````````````````````````",
"````````````````````````````````````````````````````````````````````````````````````````````````````````````````````````````````````````````````````````````````````````````````````````````````",
"````````````````````````````````````````````````````````````````````````````````````````````````````````````````````````````````````````````````````````````````````````````````````````````````",
"````````````````````````````````````````````````````````````````````````````````````````````````````````````````````````````````````````````````````````````````````````````````````````````````",
"````````````````````````````````````````````````````````````````````````````````````````````````````````````````````````````````````````````````````````````````````````````````````````````````",
"`````````````````````````````````````````````````````````````````````````````````````````.`#`a`b`b`c`#`#`d``````````````````````````````````````````````````````````````````````````````````````",
"```````````````````````````````````````````````````````````````````````````````````a`e`f`g`h`i`j`j`k`h`h`l`m`c`n````````````````````````````````````````````````````````````````````````````````",
"`````````````````````````````````````````````````````````````````````````````d`o`f`i`p`q`r`r`r`r`r`r`r`r`s`t`k`l`u`v````````````````````````````````````````````````````````````````````````````",
"```````````````````````````````````````````````````````````````````````````c`w`x`q`r`r`r`r`r`r`r`r`r`r`r`r`r`r`r`y`z`A`n````````````````````````````````````````````````````````````````````````",
"```````````````````````````````````````````````````````````````````````d`B`k`C`r`r`r`r`r`r`r`r`r`r`r`r`r`r`r`r`r`r`s`D`E`F``````````````````````````````````````````````````````````````````````",
"`````````````````````````````````````````````````````````````````````G`H`b`r`r`r`r`r`r`r`r`r`r`r`r`r`r`r`r`r`r`r`r`r`r`I`J`q````````````````````````````````````````````````````````````````````",
"```````````````````````````````````````````````````````````````````K`L`M`r`r`r`r`r`r`r`r`r`r`r`r`r`r`r`r`r`r`r`r`r`r`r`r`N`O`P``````````````````````````````````````````````````````````````````",
"`````````````````````````````````````````````````````````````````v`Q`C`r`r`r`r`r`r`r`r`r`r`r`r`r`r`r`r`r`r`r`r`r`r`r`r`r`r`r`O`q````````````````````````````````````````````````````````````````",
"```````````````````````````````````````````````````````````````d`R`S`r`r`r`r`r`r`r`r`r`r`r`r`r`r`r`r`r`r`r`r`r`r`r`r`r`r`r`r`N`J`F``````````````````````````````````````````````````````````````",
"```````````````````````````````````````````````````````````````T`U`r`r`r`r`r`r`r`r`r`r`r`r`r`r`r`r`r`r`r`r`r`r`r`r`r`r`r`r`r`r`I`V`d````````````````````````````````````````````````````````````",
"`````````````````````````````````````````````````````````````#`h`r`r`r`r`r`r`r`r`r`r`r`r`r`r`r`r`r`r`r`r`r`r`r`r`r`r`r`r`r`r`r`r`W`X````````````````````````````````````````````````````````````",
"`````````````````````````````````````````````````````````````Y`M`r`r`r`r`r`r`r`r`r`r`r`r`r`r`r`r`r`r`r`r`r`r`r`r`r`r`r`r`r`r`r`r`s`z`v``````````````````````````````````````````````````````````",
"```````````````````````````````````````````````````````````a`i`r`r`r`r`r`r`r`r`r`r`r`r`r`r`r`r`r`r`r`r`r`r`r`r`r`r`r`r`r`r`r`r`r`r`Z`Z``````````````````````````````````````````````````````````",
"```````````````````````````````````````````````````````````0`1`r`r`r`r`r`r`r`r`r`r`r`r`r`r`r`r`r`r`r`r`r`r`r`r`r`r`r`r`r`r`r`r`r`r`s`l`d````````````````````````````````````````````````````````",
"`````````````````````````````````````````````````````````v`2`r`r`r`r`r`r`r`r`r`r`r`r`r`r`r`r`r`r`r`r`r`r`r`r`r`r`r`r`r`r`r`r`r`r`r`r`3`4````````````````````````````````````````````````````````",
"`````````````````````````````````````````````````````````c`k`r`r`r`r`r`r`r`r`r`r`r`r`r`r`r`r`r`r`r`r`r`r`r`r`r`r`r`r`r`r`r`r`r`r`r`r`5`6````````````````````````````````````````````````````````",
"`````````````````````````````````````````````````````````7`8`r`r`r`r`r`r`r`r`r`r`r`r`r`r`r`r`r`r`r`r`r`r`r`r`r`r`r`r`r`r`r`r`r`r`r`r`N`2`d``````````````````````````````````````````````````````",
"````````````````````````````````````````````````````````.``C`r`r`r`r`r`r`r`r`r`r`r`r`r`r`r`r`r`r`r`r`r`r`r`r`r`r`r`r`r`r`r`r`r`r`r`r`r..`G``````````````````````````````````````````````````````",
"````````````````````````````````````````````````````````.#`s`r`r`r`r`r`r`r`r`r`r`r`r`r`r`r`r`r`r`r`r`r`r`r`r`r`r`r`r`r`r`r`r`r`r`r`r`r`g`.``````````````````````````````````````````````````````",
"```````````````````````````````````````````````````````n`l`r`r`r`r`r`r`r`r`r`r`r`r`r`r`r`r`r`r`r`r`r`r`r`r`r`r`r`r`r`r`r`r`r`r`r`r`r`r`i`a``````````````````````````````````````````````````````",
"```````````````````````````````````````````````````````G..`r`r`r`r`r`r`r`r`r`r`r`r`r`r`r`r`r`r`r`r`r`r`r`r`r`r`r`r`r`r`r`r`r`r`r`r`r`r`k`c``````````````````````````````````````````````````````",
"```````````````````````````````````````````````````````G..`r`r`r`r`r`r`r`r`r`r`r`r`r`r`r`r`r`r`r`r`r`r`r`r`r`r`r`r`r`r`r`r`r`r`r`r`r`r`k`c``````````````````````````````````````````````````````",
"```````````````````````````````````````````````````````d.#`r`r`r`r`r`r`r`r`r`r`r`r`r`r`r`r`r`r`r`r`r`r`r`r`r`r`r`r`r`r`r`r`r`r`r`r`r`r.a.b``````````````````````````````````````````````````````",
"`````````````````````````````````````````````````````````l`N`r`r`r`r`r`r`r`r`r`r`r`r`r`r`r`r`r`r`r`r`r`r`r`r`r`r`r`r`r`r`r`r`r`r`r`r`r.c`K``````````````````````````````````````````````````````",
"````````````````````````````````````````````````````````.d`I`r`r`r`r`r`r`r`r`r`r`r`r`r`r`r`r`r`r`r`r`r`r`r`r`r`r`r`r`r`r`r`r`r`r`r`r`r`2`v``````````````````````````````````````````````````````",
"`````````````````````````````````````````````````````````e`p`r`r`r`r`r`r`r`r`r`r`r`r`r`r`r`r`r`r`r`r`r`r`r`r`r`r`r`r`r`r`r`r`r`r`r`r`I.d````````````````````````````````````````````````````````",
"`````````````````````````````````````````````````````````#`h`r`r`r`r`r`r`r`r`r`r`r`r`r`r`r`r`r`r`r`r`r`r`r`r`r`r`r`r`r`r`r`r`r`r`r`r.e.f````````````````````````````````````````````````````````",
"`````````````````````````````````````````````````````````d`2`N`r`r`r`r`r`r`r`r`r`r`r`r`r`r`r`r`r`r`r`r`r`r`r`r`r`r`r`r`r`r`r`r`r`r`r`g`.````````````````````````````````````````````````````````",
"```````````````````````````````````````````````````````````Z`Z`r`r`r`r`r`r`r`r`r`r`r`r`r`r`r`r`r`r`r`r`r`r`r`r`r`r`r`r`r`r`r`r`r`r`M`Y``````````````````````````````````````````````````````````",
"```````````````````````````````````````````````````````````v`z`s`r`r`r`r`r`r`r`r`r`r`r`r`r`r`r`r`r`r`r`r`r`r`r`r`r`r`r`r`r`r`r`r`r`i`a``````````````````````````````````````````````````````````",
"`````````````````````````````````````````````````````````````Z`Z`r`r`r`r`r`r`r`r`r`r`r`r`r`r`r`r`r`r`r`r`r`r`r`r`r`r`r`r`r`r`r`r`M`Y````````````````````````````````````````````````````````````",
"`````````````````````````````````````````````````````````````v`z`s`r`r`r`r`r`r`r`r`r`r`r`r`r`r`r`r`r`r`r`r`r`r`r`r`r`r`r`r`r`r`r.a.b````````````````````````````````````````````````````````````",
"```````````````````````````````````````````````````````````````q`O`r`r`r`r`r`r`r`r`r`r`r`r`r`r`r`r`r`r`r`r`r`r`r`r`r`r`r`r`r`r.g.h``````````````````````````````````````````````````````````````",
"`````````````````````````````````````````````````````````````````t.i`r`r`r`r`r`r`r`r`r`r`r`r`r`r`r`r`r`r`r`r`r`r`r`r`r`r`r`r`1`0````````````````````````````````````````````````````````````````",
"```````````````````````````````````````````````````````````````````B.j`r`r`r`r`r`r`r`r`r`r`r`r`r`r`r`r`r`r`r`r`r`r`r`r`r`r`M`V`n````````````````````````````````````````````````````````````````",
"```````````````````````````````````````````````````````````````````d.k.l`r`r`r`r`r`r`r`r`r`r`r`r`r`r`r`r`r`r`r`r`r`r`r`r.m.a`G``````````````````````````````````````````````````````````````````",
"``````````````````````````````````````````````````````````````````````.n`O`N`r`r`r`r`r`r`r`r`r`r`r`r`r`r`r`r`r`r`r`r`r`D`m`n````````````````````````````````````````````````````````````````````",
"`````````````````````````````````````````````````````````````````````````q`z.o`s`r`r`r`r`r`r`r`r`r`r`r`r`r`r`r`r`r`t.p`A````````````````````````````````````````````````````````````````````````",
"```````````````````````````````````````````````````````````````````````````n.q`z`Z`q`r`r`r`r`r`r`r`r`r`r`r`r`s.f`h`m`F``````````````````````````````````````````````````````````````````````````",
"```````````````````````````````````````````````````````````````````````````````v`Z`f`g.h`1`C`r`r`r`r`N`1`5`i`l.r`#``````````````````````````````````````````````````````````````````````````````",
"`````````````````````````````````````````````````````````````````````````````````````..g`0.`.s.s.s.s`l`0`6`a`d``````````````````````````````````````````````````````````````````````````````````",
"````````````````````````````````````````````````````````````````````````````````````````````````````````````````````````````````````````````````````````````````````````````````````````````````",
"````````````````````````````````````````````````````````````````````````````````````````````````````````````````````````````````````````````````````````````````````````````````````````````````",
"````````````````````````````````````````````````````````````````````````````````````````````````````````````````````````````````````````````````````````````````````````````````````````````````",
"````````````````````````````````````````````````````````````````````````````````````````````````````````````````````````````````````````````````````````````````````````````````````````````````",
"````````````````````````````````````````````````````````````````````````````````````````````````````````````````````````````````````````````````````````````````````````````````````````````````",
"````````````````````````````````````````````````````````````````````````````````````````````````````````````````````````````````````````````````````````````````````````````````````````````````",
"````````````````````````````````````````````````````````````````````````````````````````````````````````````````````````````````````````````````````````````````````````````````````````````````",
"````````````````````````````````````````````````````````````````````````````````````````````````````````````````````````````````````````````````````````````````````````````````````````````````",
"````````````````````````````````````````````````````````````````````````````````````````````````````````````````````````````````````````````````````````````````````````````````````````````````",
"````````````````````````````````````````````````````````````````````````````````````````````````````````````````````````````````````````````````````````````````````````````````````````````````",
"````````````````````````````````````````````````````````````````````````````````````````````````````````````````````````````````````````````````````````````````````````````````````````````````",
"````````````````````````````````````````````````````````````````````````````````````````````````````````````````````````````````````````````````````````````````````````````````````````````````",
"````````````````````````````````````````````````````````````````````````````````````````````````````````````````````````````````````````````````````````````````````````````````````````````````",
"````````````````````````````````````````````````````````````````````````````````````````````````````````````````````````````````````````````````````````````````````````````````````````````````",
"````````````````````````````````````````````````````````````````````````````````````````````````````````````````````````````````````````````````````````````````````````````````````````````````"
};
