/* XPM */
static char *DrawLine_xpm[] = {
/* width height num_colors chars_per_pixel */
"    24    24      256            2",
/* colors */
"`` c none",
"`. c #b6b9e5",
"`# c #a9aee6",
"`a c #ececf2",
"`b c #afb4d5",
"`c c #1f212a",
"`d c #000000",
"`e c #717ba2",
"`f c #ededf0",
"`g c #acafce",
"`h c #252632",
"`i c #00000d",
"`j c #000003",
"`k c #8c8db8",
"`l c #efeff1",
"`m c #b2b6d3",
"`n c #2b2d3c",
"`o c #000006",
"`p c #000002",
"`q c #a0a1ce",
"`r c #eeeef4",
"`s c #b9bcd4",
"`t c #333545",
"`u c #000015",
"`v c #000008",
"`w c #8c8cb7",
"`x c #ebeaf3",
"`y c #c2c3d9",
"`z c #3c3d4f",
"`A c #000c30",
"`B c #00103a",
"`C c #7c82ab",
"`D c #e5e5ee",
"`E c #c3c3d6",
"`F c #414255",
"`G c #001c4c",
"`H c #00317b",
"`I c #879cd4",
"`J c #e8eaf8",
"`K c #c5c5d3",
"`L c #414154",
"`M c #002459",
"`N c #0a55b8",
"`O c #82a6e9",
"`P c #e6e9f9",
"`Q c #c5c5d0",
"`R c #3f3f51",
"`S c #002653",
"`T c #2670d9",
"`U c #9dbbff",
"`V c #ecedfa",
"`W c #c9ccd4",
"`X c #3d4253",
"`Y c #001f42",
"`Z c #2669c7",
"`0 c #97b6fb",
"`1 c #eaebfb",
"`2 c #d1d2d9",
"`3 c #434457",
"`4 c #001939",
"`5 c #2262b7",
"`6 c #90b1ed",
"`7 c #e7e9fb",
"`8 c #dadbe1",
".` c #464b61",
".. c #051e3d",
".# c #256eca",
".a c #80a8e9",
".b c #e2e9fc",
".c c #e3e4e9",
".d c #51556e",
".e c #0a1f39",
".f c #367bd9",
".g c #88aae7",
".h c #e9ecfc",
".i c #eeeff3",
".j c #6d7295",
".k c #0c1828",
".l c #4178c9",
".m c #83a4e6",
".n c #e7eafd",
".o c #f6f6f9",
".p c #9093c5",
".q c #131a35",
".r c #75a4f6",
".s c #82a6e6",
".t c #dde2f8",
".u c #093b85",
".v c #609dfd",
".w c #93b2f6",
".x c #e5e9fe",
".y c #f8fafb",
".z c #c3ddfd",
".A c #92b0f1",
".B c #dadefe",
".C c #000000",
".D c #000000",
".E c #000000",
".F c #000000",
".G c #000000",
".H c #000000",
".I c #000000",
".J c #000000",
".K c #000000",
".L c #000000",
".M c #000000",
".N c #000000",
".O c #000000",
".P c #000000",
".Q c #000000",
".R c #000000",
".S c #000000",
".T c #000000",
".U c #000000",
".V c #000000",
".W c #000000",
".X c #000000",
".Y c #000000",
".Z c #000000",
".0 c #000000",
".1 c #000000",
".2 c #000000",
".3 c #000000",
".4 c #000000",
".5 c #000000",
".6 c #000000",
".7 c #000000",
".8 c #000000",
"#` c #000000",
"#. c #000000",
"## c #000000",
"#a c #000000",
"#b c #000000",
"#c c #000000",
"#d c #000000",
"#e c #000000",
"#f c #000000",
"#g c #000000",
"#h c #000000",
"#i c #000000",
"#j c #000000",
"#k c #000000",
"#l c #000000",
"#m c #000000",
"#n c #000000",
"#o c #000000",
"#p c #000000",
"#q c #000000",
"#r c #000000",
"#s c #000000",
"#t c #000000",
"#u c #000000",
"#v c #000000",
"#w c #000000",
"#x c #000000",
"#y c #000000",
"#z c #000000",
"#A c #000000",
"#B c #000000",
"#C c #000000",
"#D c #000000",
"#E c #000000",
"#F c #000000",
"#G c #000000",
"#H c #000000",
"#I c #000000",
"#J c #000000",
"#K c #000000",
"#L c #000000",
"#M c #000000",
"#N c #000000",
"#O c #000000",
"#P c #000000",
"#Q c #000000",
"#R c #000000",
"#S c #000000",
"#T c #000000",
"#U c #000000",
"#V c #000000",
"#W c #000000",
"#X c #000000",
"#Y c #000000",
"#Z c #000000",
"#0 c #000000",
"#1 c #000000",
"#2 c #000000",
"#3 c #000000",
"#4 c #000000",
"#5 c #000000",
"#6 c #000000",
"#7 c #000000",
"#8 c #000000",
"a` c #000000",
"a. c #000000",
"a# c #000000",
"aa c #000000",
"ab c #000000",
"ac c #000000",
"ad c #000000",
"ae c #000000",
"af c #000000",
"ag c #000000",
"ah c #000000",
"ai c #000000",
"aj c #000000",
"ak c #000000",
"al c #000000",
"am c #000000",
"an c #000000",
"ao c #000000",
"ap c #000000",
"aq c #000000",
"ar c #000000",
"as c #000000",
"at c #000000",
"au c #000000",
"av c #000000",
"aw c #000000",
"ax c #000000",
"ay c #000000",
"az c #000000",
"aA c #000000",
"aB c #000000",
"aC c #000000",
"aD c #000000",
"aE c #000000",
"aF c #000000",
"aG c #000000",
"aH c #000000",
"aI c #000000",
"aJ c #000000",
"aK c #000000",
"aL c #000000",
"aM c #000000",
"aN c #000000",
"aO c #000000",
"aP c #000000",
"aQ c #000000",
"aR c #000000",
"aS c #000000",
"aT c #000000",
"aU c #000000",
"aV c #000000",
"aW c #000000",
"aX c #000000",
"aY c #000000",
"aZ c #000000",
"a0 c #000000",
"a1 c #000000",
"a2 c #000000",
"a3 c #000000",
"a4 c #000000",
"a5 c #000000",
"a6 c #000000",
"a7 c #000000",
"a8 c #000000",
/* pixels */
"````````````````````````````````````````````````",
"````````````````````````````````````````````````",
"````````````````````````````````````````````````",
"```````````````````````````````````.`#`a````````",
"`````````````````````````````````b`c`d`e`f``````",
"```````````````````````````````g`h`i`j`k`l``````",
"`````````````````````````````m`n`o`p`q`r````````",
"```````````````````````````s`t`u`v`w`x``````````",
"`````````````````````````y`z`A`B`C`D````````````",
"```````````````````````E`F`G`H`I`J``````````````",
"`````````````````````K`L`M`N`O`P````````````````",
"```````````````````Q`R`S`T`U`V``````````````````",
"`````````````````W`X`Y`Z`0`1````````````````````",
"```````````````2`3`4`5`6`7``````````````````````",
"`````````````8.`...#.a.b````````````````````````",
"``````````.c.d.e.f.g.h``````````````````````````",
"````````.i.j.k.l.m.n````````````````````````````",
"``````.o.p.q.r.s.n``````````````````````````````",
"``````.t.u.v.w.x````````````````````````````````",
"``````.y.z.A.B``````````````````````````````````",
"````````````````````````````````````````````````",
"````````````````````````````````````````````````",
"````````````````````````````````````````````````",
"````````````````````````````````````````````````"
};
