/* XPM */
static char *DrawShell_xpm[] = {
/* width height num_colors chars_per_pixel */
"    24    24      256            2",
/* colors */
"`` c none",
"`. c #777777",
"`# c #000000",
"`a c #9b9b9b",
"`b c #919191",
"`c c #66757d",
"`d c #525e65",
"`e c #ababab",
"`f c #445460",
"`g c #cce0ef",
"`h c #f8f8f8",
"`i c #696969",
"`j c #c6c6c6",
"`k c #2b3941",
"`l c #aacce2",
"`m c #e3f6ff",
"`n c #eff9fc",
"`o c #c7daec",
"`p c #3c4954",
"`q c #a8a8a8",
"`r c #e1e1e1",
"`s c #161f24",
"`t c #85a9be",
"`u c #cfe6f2",
"`v c #d9f1fb",
"`w c #e2f7ff",
"`x c #5c5c5c",
"`y c #050a0c",
"`z c #497185",
"`A c #b8cddb",
"`B c #d1e4ef",
"`C c #def3fb",
"`D c #e2f5ff",
"`E c #eef8fc",
"`F c #040607",
"`G c #55778c",
"`H c #7c98a8",
"`I c #c6d9e8",
"`J c #daeef7",
"`K c #e1f4fe",
"`L c #e3f8ff",
"`M c #e4f8ff",
"`N c #eafaff",
"`O c #f3fafb",
"`P c #f7f7f7",
"`Q c #4e4e4e",
"`R c #b4b4b4",
"`S c #040606",
"`T c #4d7181",
"`U c #7595a7",
"`V c #b8d3e0",
"`W c #cde2f4",
"`X c #d6ebfd",
"`Y c #ddf2ff",
"`Z c #e2f8ff",
"`0 c #e7fdff",
"`1 c #edffff",
"`2 c #f4fbfb",
"`3 c #030506",
"`4 c #3b6575",
"`5 c #5a7f95",
"`6 c #94b6c8",
"`7 c #aacbdf",
"`8 c #bedcf1",
".` c #d0e9fa",
".. c #d9f0ff",
".# c #e1f6ff",
".a c #f3f9fb",
".b c #f6f6f6",
".c c #424242",
".d c #c1c1c1",
".e c #030505",
".f c #355b6c",
".g c #4c7187",
".h c #81a5b6",
".i c #99bed4",
".j c #b2d0e5",
".k c #c8e1f5",
".l c #cfebfd",
".m c #dbf2fe",
".n c #e6faff",
".o c #edfdff",
".p c #f4f9fa",
".q c #020405",
".r c #2e5667",
".s c #3d667a",
".t c #6f96ab",
".u c #85abc4",
".v c #9fc0da",
".w c #bcd8f1",
".x c #c9e4fa",
".y c #d3ecfd",
".z c #def6ff",
".A c #e5faff",
".B c #ecfbff",
".C c #f3f7f9",
".D c #a9cbdc",
".E c #1e272c",
".F c #cecece",
".G c #2d4e61",
".H c #2f586d",
".I c #527a8f",
".J c #648ca5",
".K c #7ba3bd",
".L c #9cc0da",
".M c #b2d2ea",
".N c #bfdcf2",
".O c #c8e4f9",
".P c #cfe8fc",
".Q c #d5eaff",
".R c #d4ebfd",
".S c #cce6f5",
".T c #2b3033",
".U c #2a4f5e",
".V c #265066",
".W c #426984",
".X c #547c96",
".Y c #6d95ae",
".Z c #8fb6cd",
".0 c #a3c8df",
".1 c #b1d5e9",
".2 c #bddef0",
".3 c #c3e1f7",
".4 c #c6e0f7",
".5 c #c7dff5",
".6 c #bbd8ec",
".7 c #75a3c6",
".8 c #10181e",
"#` c #dadada",
"#. c #274d5d",
"## c #214658",
"#a c #295168",
"#b c #345d73",
"#c c #4b728b",
"#d c #6b94ad",
"#e c #80aac1",
"#f c #8eb9ce",
"#g c #9dc1dc",
"#h c #a4c8e3",
"#i c #a7cde6",
"#j c #a5c6e3",
"#k c #9bbee0",
"#l c #8eb8d6",
"#m c #161d22",
"#n c #020304",
"#o c #1d4156",
"#p c #113a4e",
"#q c #133f4f",
"#r c #1d4659",
"#s c #2a5067",
"#t c #40677e",
"#u c #537b94",
"#v c #6089a2",
"#w c #6f98b0",
"#x c #78a1bc",
"#y c #79a7c2",
"#z c #77a4c0",
"#A c #6e9ebb",
"#B c #699ab8",
"#C c #6898ba",
"#D c #0b1014",
"#E c #e6e6e6",
"#F c #010304",
"#G c #1c4257",
"#H c #11394c",
"#I c #0b364a",
"#J c #103b50",
"#K c #194258",
"#L c #295069",
"#M c #36617b",
"#N c #426d86",
"#O c #4e7792",
"#P c #57819b",
"#Q c #5986a1",
"#R c #5887a3",
"#S c #5888a3",
"#T c #558ba7",
"#U c #5a8dac",
"#V c #0a0f12",
"#W c #325a70",
"#X c #214b61",
"#Y c #164054",
"#Z c #174056",
"#0 c #1a4257",
"#1 c #1b455a",
"#2 c #254f63",
"#3 c #2d5369",
"#4 c #315870",
"#5 c #305a74",
"#6 c #305b79",
"#7 c #36637e",
"#8 c #3f6c87",
"a` c #4e7b96",
"a. c #618ba8",
"a# c #7da2bc",
"aa c #07090a",
"ab c #000000",
"ac c #000000",
"ad c #000000",
"ae c #000000",
"af c #000000",
"ag c #000000",
"ah c #000000",
"ai c #000000",
"aj c #000000",
"ak c #000000",
"al c #000000",
"am c #000000",
"an c #000000",
"ao c #000000",
"ap c #000000",
"aq c #000000",
"ar c #000000",
"as c #000000",
"at c #000000",
"au c #000000",
"av c #000000",
"aw c #000000",
"ax c #000000",
"ay c #000000",
"az c #000000",
"aA c #000000",
"aB c #000000",
"aC c #000000",
"aD c #000000",
"aE c #000000",
"aF c #000000",
"aG c #000000",
"aH c #000000",
"aI c #000000",
"aJ c #000000",
"aK c #000000",
"aL c #000000",
"aM c #000000",
"aN c #000000",
"aO c #000000",
"aP c #000000",
"aQ c #000000",
"aR c #000000",
"aS c #000000",
"aT c #000000",
"aU c #000000",
"aV c #000000",
"aW c #000000",
"aX c #000000",
"aY c #000000",
"aZ c #000000",
"a0 c #000000",
"a1 c #000000",
"a2 c #000000",
"a3 c #000000",
"a4 c #000000",
"a5 c #000000",
"a6 c #000000",
"a7 c #000000",
"a8 c #000000",
/* pixels */
"````````````````````````````````````````````````",
"````````````````````````````````````````````````",
"`````````````````````````.`#`a``````````````````",
"`````````````````````b`#`c`d`a``````````````````",
"`````````````````e`#`f`g`h`i`a``````````````````",
"`````````````j`#`k`l`m`n`h`o`p`q````````````````",
"`````````r`#`s`t`u`v`w`n`h`h`x`q````````````````",
"```````#`y`z`A`B`C`D`m`E`h`h`x`q````````````````",
"```````F`G`H`I`J`K`L`M`N`O`h`P`Q`R``````````````",
"```````S`T`U`V`W`X`Y`Z`0`1`2`P`Q`R``````````````",
"```````3`4`5`6`7`8.`...#`N.a`P.b.c.d````````````",
"``````.e.f.g.h.i.j.k.l.m.n.o.p.b.c.d````````````",
"``````.q.r.s.t.u.v.w.x.y.z.A.B.C.D.E.F``````````",
"``````.q.G.H.I.J.K.L.M.N.O.P.Q.R.S.T.F``````````",
"``````.q.U.V.W.X.Y.Z.0.1.2.3.4.5.6.7.8#`````````",
"``````.q#.###a#b#c#d#e#f#g#h#i#j#k#l#m#`````````",
"``````#n#o#p#q#r#s#t#u#v#w#x#y#z#A#B#C#D#E``````",
"``````#F#G#H#I#J#K#L#M#N#O#P#Q#R#S#T#U#V#E``````",
"```````3#W#X#Y#Z#0#1#2#3#4#5#6#7#8a`a.a#aa``````",
"```````#`#`#`#`#`#`#`#`#`#`#`#`#`#`#`#`#`#``````",
"````````````````````````````````````````````````",
"````````````````````````````````````````````````",
"````````````````````````````````````````````````",
"````````````````````````````````````````````````"
};
