/* XPM */
static char *EditCut_xpm[] = {
/* width height num_colors chars_per_pixel */
"    24    24      256            2",
/* colors */
"`` c none",
"`. c #f8f9fa",
"`# c #e9edf1",
"`a c #fefefe",
"`b c #a2b2c7",
"`c c #d5dce5",
"`d c #6c86a6",
"`e c #b2bfd0",
"`f c #f5f5f5",
"`g c #e5e9ef",
"`h c #587292",
"`i c #f5f7f9",
"`j c #f4f6f8",
"`k c #d0d8e2",
"`l c #6782a3",
"`m c #99abc1",
"`n c #f6f6f6",
"`o c #c4cfdc",
"`p c #9daec4",
"`q c #8fa3bb",
"`r c #b8c5d4",
"`s c #bcc8d6",
"`t c #5b7697",
"`u c #536b89",
"`v c #7a91af",
"`w c #4a5f7a",
"`x c #5e7a9c",
"`y c #8096b2",
"`z c #d3dbe5",
"`A c #f1f4f7",
"`B c #465b74",
"`C c #25303d",
"`D c #90a4bc",
"`E c #8ba0b9",
"`F c #597393",
"`G c #2f3d4f",
"`H c #273341",
"`I c #5a7596",
"`J c #b3c0d1",
"`K c #fdfdfd",
"`L c #263240",
"`M c #516886",
"`N c #728baa",
"`O c #192029",
"`P c #0e1318",
"`Q c #181f28",
"`R c #11151b",
"`S c #6d87a7",
"`T c #242f3c",
"`U c #7089a9",
"`V c #dde3eb",
"`W c #fbfcfd",
"`X c #aab9cc",
"`Y c #fafafa",
"`Z c #f9f9f9",
"`0 c #546d8c",
"`1 c #050709",
"`2 c #07090b",
"`3 c #455a73",
"`4 c #5d789a",
"`5 c #283442",
"`6 c #eaeef2",
"`7 c #8a9fb8",
"`8 c #3e5066",
".` c #1a212a",
".. c #354457",
".# c #b4c1d2",
".a c #080b0e",
".b c #1e2732",
".c c #222c38",
".d c #495e79",
".e c #eef1f4",
".f c #020202",
".g c #1c242e",
".h c #f9fafb",
".i c #9fb0c5",
".j c #e4e8ee",
".k c #141a22",
".l c #0b0e11",
".m c #0b0f13",
".n c #0f1319",
".o c #b1bed0",
".p c #7f95b2",
".q c #232d39",
".r c #d2dae4",
".s c #344356",
".t c #364559",
".u c #3c4e64",
".v c #5a7495",
".w c #c1ccd9",
".x c #93a6be",
".y c #e1e6ed",
".z c #6b85a6",
".A c #5f7b9d",
".B c #566f8e",
".C c #98aac1",
".D c #000000",
".E c #000000",
".F c #000000",
".G c #000000",
".H c #000000",
".I c #000000",
".J c #000000",
".K c #000000",
".L c #000000",
".M c #000000",
".N c #000000",
".O c #000000",
".P c #000000",
".Q c #000000",
".R c #000000",
".S c #000000",
".T c #000000",
".U c #000000",
".V c #000000",
".W c #000000",
".X c #000000",
".Y c #000000",
".Z c #000000",
".0 c #000000",
".1 c #000000",
".2 c #000000",
".3 c #000000",
".4 c #000000",
".5 c #000000",
".6 c #000000",
".7 c #000000",
".8 c #000000",
"#` c #000000",
"#. c #000000",
"## c #000000",
"#a c #000000",
"#b c #000000",
"#c c #000000",
"#d c #000000",
"#e c #000000",
"#f c #000000",
"#g c #000000",
"#h c #000000",
"#i c #000000",
"#j c #000000",
"#k c #000000",
"#l c #000000",
"#m c #000000",
"#n c #000000",
"#o c #000000",
"#p c #000000",
"#q c #000000",
"#r c #000000",
"#s c #000000",
"#t c #000000",
"#u c #000000",
"#v c #000000",
"#w c #000000",
"#x c #000000",
"#y c #000000",
"#z c #000000",
"#A c #000000",
"#B c #000000",
"#C c #000000",
"#D c #000000",
"#E c #000000",
"#F c #000000",
"#G c #000000",
"#H c #000000",
"#I c #000000",
"#J c #000000",
"#K c #000000",
"#L c #000000",
"#M c #000000",
"#N c #000000",
"#O c #000000",
"#P c #000000",
"#Q c #000000",
"#R c #000000",
"#S c #000000",
"#T c #000000",
"#U c #000000",
"#V c #000000",
"#W c #000000",
"#X c #000000",
"#Y c #000000",
"#Z c #000000",
"#0 c #000000",
"#1 c #000000",
"#2 c #000000",
"#3 c #000000",
"#4 c #000000",
"#5 c #000000",
"#6 c #000000",
"#7 c #000000",
"#8 c #000000",
"a` c #000000",
"a. c #000000",
"a# c #000000",
"aa c #000000",
"ab c #000000",
"ac c #000000",
"ad c #000000",
"ae c #000000",
"af c #000000",
"ag c #000000",
"ah c #000000",
"ai c #000000",
"aj c #000000",
"ak c #000000",
"al c #000000",
"am c #000000",
"an c #000000",
"ao c #000000",
"ap c #000000",
"aq c #000000",
"ar c #000000",
"as c #000000",
"at c #000000",
"au c #000000",
"av c #000000",
"aw c #000000",
"ax c #000000",
"ay c #000000",
"az c #000000",
"aA c #000000",
"aB c #000000",
"aC c #000000",
"aD c #000000",
"aE c #000000",
"aF c #000000",
"aG c #000000",
"aH c #000000",
"aI c #000000",
"aJ c #000000",
"aK c #000000",
"aL c #000000",
"aM c #000000",
"aN c #000000",
"aO c #000000",
"aP c #000000",
"aQ c #000000",
"aR c #000000",
"aS c #000000",
"aT c #000000",
"aU c #000000",
"aV c #000000",
"aW c #000000",
"aX c #000000",
"aY c #000000",
"aZ c #000000",
"a0 c #000000",
"a1 c #000000",
"a2 c #000000",
"a3 c #000000",
"a4 c #000000",
"a5 c #000000",
"a6 c #000000",
"a7 c #000000",
"a8 c #000000",
/* pixels */
"````````````````````````````````````````````````",
"````````````````````````````````````````````````",
"````````````````````````````````````````````````",
"`````````````````````````````````````.`#````````",
"```````````````````````````````````a`b`c````````",
"```````````````````````````````````d`e`f````````",
"```````````````````````````````g`h`e`f`f`i`j````",
"`````````````````````````````k`l`m`n`o`p`q`r````",
"```````````````````````````s`t`u`v`w`x`y`z``````",
"```````A`B`C`D```````i`z`E`F`G`H`I`J`#``````````",
"`````K`L`M`N`O`P`Q`R`R`S`T`C`U`V`W``````````````",
"`````x`X`Y`Z`0`1`2`Q`H`3`4``````````````````````",
"`````5`6`7`8.`...#`0.a.b````````````````````````",
"````..`C.c.d.e`Z`C.f.g.h````````````````````````",
"`````V.i.j`Z`k.k.l.m`q``````````````````````````",
"```````````5.n.o.p.q.r``````````````````````````",
"````````.s.c`Z`Z`q.t.h``````````````````````````",
"```````W.u.v.w.x`5`N````````````````````````````",
"````````.y.z.A.B.C``````````````````````````````",
"````````````````````````````````````````````````",
"````````````````````````````````````````````````",
"````````````````````````````````````````````````",
"````````````````````````````````````````````````",
"````````````````````````````````````````````````"
};
