/* XPM */
static char *EditDelete_xpm[] = {
/* width height num_colors chars_per_pixel */
"    24    24      256            2",
/* colors */
"`` c none",
"`. c #96a9c0",
"`# c #6c86a6",
"`a c #8096b2",
"`b c #718aa9",
"`c c #577090",
"`d c #43576f",
"`e c #5b7697",
"`f c #5f7b9d",
"`g c #aab9cc",
"`h c #9badc3",
"`i c #556e8d",
"`j c #526a88",
"`k c #3c4e64",
"`l c #455972",
"`m c #3e5066",
"`n c #8fa3bb",
"`o c #99abc1",
"`p c #8a9fb8",
"`q c #6681a3",
"`r c #334154",
"`s c #3f5168",
"`t c #39495e",
"`u c #394a5f",
"`v c #778fad",
"`w c #3f5269",
"`x c #303e50",
"`y c #293645",
"`z c #293543",
"`A c #2f3d4f",
"`B c #38485c",
"`C c #516886",
"`D c #2a3746",
"`E c #2b3847",
"`F c #242f3c",
"`G c #222c38",
"`H c #41546b",
"`I c #232e3b",
"`J c #2c394a",
"`K c #26313e",
"`L c #232d39",
"`M c #212b37",
"`N c #4b607c",
"`O c #3d4f65",
"`P c #94a7be",
"`Q c #2d3a4b",
"`R c #becad8",
"`S c #273341",
"`T c #25303d",
"`U c #879cb7",
"`V c #2f3c4d",
"`W c #546d8c",
"`X c #7890ae",
"`Y c #283442",
"`Z c #7d94b1",
"`0 c #40536a",
"`1 c #36465a",
"`2 c #2c3848",
"`3 c #9fb0c5",
"`4 c #627ea0",
"`5 c #354457",
"`6 c #516987",
"`7 c #485d78",
"`8 c #000000",
".` c #000000",
".. c #000000",
".# c #000000",
".a c #000000",
".b c #000000",
".c c #000000",
".d c #000000",
".e c #000000",
".f c #000000",
".g c #000000",
".h c #000000",
".i c #000000",
".j c #000000",
".k c #000000",
".l c #000000",
".m c #000000",
".n c #000000",
".o c #000000",
".p c #000000",
".q c #000000",
".r c #000000",
".s c #000000",
".t c #000000",
".u c #000000",
".v c #000000",
".w c #000000",
".x c #000000",
".y c #000000",
".z c #000000",
".A c #000000",
".B c #000000",
".C c #000000",
".D c #000000",
".E c #000000",
".F c #000000",
".G c #000000",
".H c #000000",
".I c #000000",
".J c #000000",
".K c #000000",
".L c #000000",
".M c #000000",
".N c #000000",
".O c #000000",
".P c #000000",
".Q c #000000",
".R c #000000",
".S c #000000",
".T c #000000",
".U c #000000",
".V c #000000",
".W c #000000",
".X c #000000",
".Y c #000000",
".Z c #000000",
".0 c #000000",
".1 c #000000",
".2 c #000000",
".3 c #000000",
".4 c #000000",
".5 c #000000",
".6 c #000000",
".7 c #000000",
".8 c #000000",
"#` c #000000",
"#. c #000000",
"## c #000000",
"#a c #000000",
"#b c #000000",
"#c c #000000",
"#d c #000000",
"#e c #000000",
"#f c #000000",
"#g c #000000",
"#h c #000000",
"#i c #000000",
"#j c #000000",
"#k c #000000",
"#l c #000000",
"#m c #000000",
"#n c #000000",
"#o c #000000",
"#p c #000000",
"#q c #000000",
"#r c #000000",
"#s c #000000",
"#t c #000000",
"#u c #000000",
"#v c #000000",
"#w c #000000",
"#x c #000000",
"#y c #000000",
"#z c #000000",
"#A c #000000",
"#B c #000000",
"#C c #000000",
"#D c #000000",
"#E c #000000",
"#F c #000000",
"#G c #000000",
"#H c #000000",
"#I c #000000",
"#J c #000000",
"#K c #000000",
"#L c #000000",
"#M c #000000",
"#N c #000000",
"#O c #000000",
"#P c #000000",
"#Q c #000000",
"#R c #000000",
"#S c #000000",
"#T c #000000",
"#U c #000000",
"#V c #000000",
"#W c #000000",
"#X c #000000",
"#Y c #000000",
"#Z c #000000",
"#0 c #000000",
"#1 c #000000",
"#2 c #000000",
"#3 c #000000",
"#4 c #000000",
"#5 c #000000",
"#6 c #000000",
"#7 c #000000",
"#8 c #000000",
"a` c #000000",
"a. c #000000",
"a# c #000000",
"aa c #000000",
"ab c #000000",
"ac c #000000",
"ad c #000000",
"ae c #000000",
"af c #000000",
"ag c #000000",
"ah c #000000",
"ai c #000000",
"aj c #000000",
"ak c #000000",
"al c #000000",
"am c #000000",
"an c #000000",
"ao c #000000",
"ap c #000000",
"aq c #000000",
"ar c #000000",
"as c #000000",
"at c #000000",
"au c #000000",
"av c #000000",
"aw c #000000",
"ax c #000000",
"ay c #000000",
"az c #000000",
"aA c #000000",
"aB c #000000",
"aC c #000000",
"aD c #000000",
"aE c #000000",
"aF c #000000",
"aG c #000000",
"aH c #000000",
"aI c #000000",
"aJ c #000000",
"aK c #000000",
"aL c #000000",
"aM c #000000",
"aN c #000000",
"aO c #000000",
"aP c #000000",
"aQ c #000000",
"aR c #000000",
"aS c #000000",
"aT c #000000",
"aU c #000000",
"aV c #000000",
"aW c #000000",
"aX c #000000",
"aY c #000000",
"aZ c #000000",
"a0 c #000000",
"a1 c #000000",
"a2 c #000000",
"a3 c #000000",
"a4 c #000000",
"a5 c #000000",
"a6 c #000000",
"a7 c #000000",
"a8 c #000000",
/* pixels */
"````````````````````````````````````````````````",
"````````````````````````````````````````````````",
"````````````````````````````````````````````````",
"````````````````````````````````````````````````",
"````````````````````````````````````````````````",
"`````````.`#`a`b```````````````````c`d`e````````",
"`````````f`g`h`i`j`````````````.`k`l`m`n````````",
"`````````f`o`p`q`d`r`````````s`t`u`a````````````",
"```````````v`w`l`t`x`y```.`z`A`B````````````````",
"```````````````C`D`E`z`F`G`F`H``````````````````",
"`````````````````.`x`F`I`G`C````````````````````",
"```````````````````J`G`G`I`x````````````````````",
"```````````````.`K`L`M`t`F`y`N``````````````````",
"`````````````.`F`L`L`O```P`D`Q`R````````````````",
"`````````````S`L`T`y```````U`V`V````````````````",
"```````````O`L`K`F`.`````````W`J`X``````````````",
"`````````.`S`Y`Y`W`````````````V`D``````````````",
"`````````Z`0`1`2`.`````````````.`K`.````````````",
"`````````3`4`q`5`````````````````6`q````````````",
"```````````d`e`7````````````````````````````````",
"````````````````````````````````````````````````",
"````````````````````````````````````````````````",
"````````````````````````````````````````````````",
"````````````````````````````````````````````````"
};
