/* XPM */
static char *EditPaste_xpm[] = {
/* width height num_colors chars_per_pixel */
"    24    24      256            2",
/* colors */
"`` c none",
"`. c #3b4c61",
"`# c #7089a9",
"`a c #6a84a5",
"`b c #40536a",
"`c c #5f7b9d",
"`d c #577191",
"`e c #546d8c",
"`f c #556e8d",
"`g c #5d799b",
"`h c #adbbcd",
"`i c #344356",
"`j c #334255",
"`k c #3d4f65",
"`l c #ced7e2",
"`m c #b6c2d3",
"`n c #aab9cc",
"`o c #a9b8cb",
"`p c #a8b7ca",
"`q c #6782a3",
"`r c #26313e",
"`s c #364559",
"`t c #4f6683",
"`u c #000000",
"`v c #6883a4",
"`w c #536b89",
"`x c #5e7a9c",
"`y c #455a73",
"`z c #8298b4",
"`A c #212b37",
"`B c #4b617d",
"`C c #9badc3",
"`D c #bdc9d7",
"`E c #516886",
"`F c #516987",
"`G c #5c7798",
"`H c #b7c3d3",
"`I c #455972",
"`J c #202934",
"`K c #4a5f7a",
"`L c #95a8bf",
"`M c #e6eaf0",
"`N c #eef1f4",
"`O c #ebeff3",
"`P c #2f3d4f",
"`Q c #1f2833",
"`R c #495e79",
"`S c #ecf0f4",
"`T c #e2e7ee",
"`U c #e1e6ed",
"`V c #485d78",
"`W c #98aac1",
"`X c #f1f4f7",
"`Y c #eaeef2",
"`Z c #d8dfe8",
"`0 c #d6dde6",
"`1 c #465b74",
"`2 c #99abc1",
"`3 c #f3f5f7",
"`4 c #f0f3f6",
"`5 c #e7ecf1",
"`6 c #dde3eb",
"`7 c #dbe1e9",
"`8 c #eff2f5",
".` c #e0e5ec",
".. c #445870",
".# c #96a9c0",
".a c #e5e9ef",
".b c #dfe4eb",
".c c #dae0e8",
".d c #c7d1dd",
".e c #93a6be",
".f c #748cab",
".g c #7f95b2",
".h c #43576f",
".i c #94a7be",
".j c #d0d8e2",
".k c #bcc8d6",
".l c #42556d",
".m c #d5dce5",
".n c #c1ccd9",
".o c #41546b",
".p c #e4e8ee",
".q c #d7dee7",
".r c #c8d2de",
".s c #c2cdda",
".t c #e9edf1",
".u c #dce2ea",
".v c #859ab5",
".w c #cdd6e1",
".x c #90a4bc",
".y c #c6d0dc",
".z c #b8c5d4",
".A c #526a88",
".B c #8ca1ba",
".C c #8499b5",
".D c #c9d3df",
".E c #b4c1d2",
".F c #b3c0d1",
".G c #d2dae4",
".H c #cbd4df",
".I c #becad8",
".J c #394a5f",
".K c #3f5269",
".L c #000000",
".M c #000000",
".N c #000000",
".O c #000000",
".P c #000000",
".Q c #000000",
".R c #000000",
".S c #000000",
".T c #000000",
".U c #000000",
".V c #000000",
".W c #000000",
".X c #000000",
".Y c #000000",
".Z c #000000",
".0 c #000000",
".1 c #000000",
".2 c #000000",
".3 c #000000",
".4 c #000000",
".5 c #000000",
".6 c #000000",
".7 c #000000",
".8 c #000000",
"#` c #000000",
"#. c #000000",
"## c #000000",
"#a c #000000",
"#b c #000000",
"#c c #000000",
"#d c #000000",
"#e c #000000",
"#f c #000000",
"#g c #000000",
"#h c #000000",
"#i c #000000",
"#j c #000000",
"#k c #000000",
"#l c #000000",
"#m c #000000",
"#n c #000000",
"#o c #000000",
"#p c #000000",
"#q c #000000",
"#r c #000000",
"#s c #000000",
"#t c #000000",
"#u c #000000",
"#v c #000000",
"#w c #000000",
"#x c #000000",
"#y c #000000",
"#z c #000000",
"#A c #000000",
"#B c #000000",
"#C c #000000",
"#D c #000000",
"#E c #000000",
"#F c #000000",
"#G c #000000",
"#H c #000000",
"#I c #000000",
"#J c #000000",
"#K c #000000",
"#L c #000000",
"#M c #000000",
"#N c #000000",
"#O c #000000",
"#P c #000000",
"#Q c #000000",
"#R c #000000",
"#S c #000000",
"#T c #000000",
"#U c #000000",
"#V c #000000",
"#W c #000000",
"#X c #000000",
"#Y c #000000",
"#Z c #000000",
"#0 c #000000",
"#1 c #000000",
"#2 c #000000",
"#3 c #000000",
"#4 c #000000",
"#5 c #000000",
"#6 c #000000",
"#7 c #000000",
"#8 c #000000",
"a` c #000000",
"a. c #000000",
"a# c #000000",
"aa c #000000",
"ab c #000000",
"ac c #000000",
"ad c #000000",
"ae c #000000",
"af c #000000",
"ag c #000000",
"ah c #000000",
"ai c #000000",
"aj c #000000",
"ak c #000000",
"al c #000000",
"am c #000000",
"an c #000000",
"ao c #000000",
"ap c #000000",
"aq c #000000",
"ar c #000000",
"as c #000000",
"at c #000000",
"au c #000000",
"av c #000000",
"aw c #000000",
"ax c #000000",
"ay c #000000",
"az c #000000",
"aA c #000000",
"aB c #000000",
"aC c #000000",
"aD c #000000",
"aE c #000000",
"aF c #000000",
"aG c #000000",
"aH c #000000",
"aI c #000000",
"aJ c #000000",
"aK c #000000",
"aL c #000000",
"aM c #000000",
"aN c #000000",
"aO c #000000",
"aP c #000000",
"aQ c #000000",
"aR c #000000",
"aS c #000000",
"aT c #000000",
"aU c #000000",
"aV c #000000",
"aW c #000000",
"aX c #000000",
"aY c #000000",
"aZ c #000000",
"a0 c #000000",
"a1 c #000000",
"a2 c #000000",
"a3 c #000000",
"a4 c #000000",
"a5 c #000000",
"a6 c #000000",
"a7 c #000000",
"a8 c #000000",
/* pixels */
"````````````````````````````````````````````````",
"````````````````````````````````````````````````",
"`````````````````````.`#`a`a`.``````````````````",
"`````````````````b`c`d`e`f`f`d`g`b``````````````",
"`````````h`i`j`k`l`m`n`o`o`o`o`p`q`r`s`h````````",
"`````````t`u`u`v`w`c`x`x`x`x`x`c`y`z`y`A````````",
"`````````B`u`C`D`e`E`F`F`F`F`F`F`G`H`I`J````````",
"`````````K`u`L`M`N`O`M`P`P`P`P`P`P`P`P`Q````````",
"`````````R`u`L`M`N`O`M`P`M`M`S`T`U`P`M`P````````",
"`````````V`u`W`M`X`N`Y`P`M`N`T`Z`0`P`M`M`P``````",
"`````````1`u`2`M`3`4`S`P`M`X`5`6`7`P`M`M`M`P````",
"`````````y`u`2`M`X`8`O`P`M`4`M.``6`P`P`P`P`P````",
"````````..`u.#`M`4`8`Y`P`M`8.a.b.c.d.e.f.g`P````",
"````````.h`u.i`M`8`8`Y`P`M`8`M.b.c`Z.j`D.k`P````",
"````````.l`u.i`M`S`N`O`P`M`S`M`T.`.c.m.d.n`P````",
"````````.o`u.i`M`S`S`Y`P`M`O`5`M.p`6.q.r.s`P````",
"````````.h`u.e`M`O`O.t`P`M.t`M`5.p.u.m.s`H`P````",
"````````.l`u.v`M`7.b.``P`M.p`M.p.b`0.w`D`H`P````",
"````````.o`u.x`M`5`O`O`P`M`U`T`6`0.j.y.z`m`P````",
"````````.h`u.A.B`z.C.C`P`M.b.b`0`l.D.s.E.F`P````",
"````````.l`u`u`u`u`u`u`P`M`S`5`7.m.G.H.I.s`P````",
"````````.o.J.l`b`b`b.K`P`P`P`P`P`P`P`P`P`P`P````",
"````````````````````````````````````````````````",
"````````````````````````````````````````````````"
};
