/* XPM */
static char *EditRedo_xpm[] = {
/* width height num_colors chars_per_pixel */
"    24    24      256            2",
/* colors */
"`` c none",
"`. c #e6eaf0",
"`# c #dbe1e9",
"`a c #dce2ea",
"`b c #adbbcd",
"`c c #5e7a9c",
"`d c #3f5269",
"`e c #4a5f7a",
"`f c #6580a2",
"`g c #9fb0c5",
"`h c #8197b3",
"`i c #6c86a6",
"`j c #597393",
"`k c #a5b5c9",
"`l c #90a4bc",
"`m c #485d77",
"`n c #40536a",
"`o c #556e8d",
"`p c #7a91af",
"`q c #5a7596",
"`r c #000000",
"`s c #3c4d63",
"`t c #8096b2",
"`u c #7d94b1",
"`v c #010101",
"`w c #020202",
"`x c #a2b2c7",
"`y c #42566e",
"`z c #98aac1",
"`A c #c1ccd9",
"`B c #0a0d10",
"`C c #536b89",
"`D c #7089a9",
"`E c #c9d3df",
"`F c #93a6be",
"`G c #06080a",
"`H c #020304",
"`I c #516987",
"`J c #5f7b9d",
"`K c #6a84a5",
"`L c #91a5bd",
"`M c #192029",
"`N c #0b0e11",
"`O c #12171e",
"`P c #a7b6ca",
"`Q c #728baa",
"`R c #577090",
"`S c #36465a",
"`T c #4b607c",
"`U c #506784",
"`V c #a8b7ca",
"`W c #151b23",
"`X c #38485c",
"`Y c #b2bfd0",
"`Z c #364559",
"`0 c #25303d",
"`1 c #354457",
"`2 c #303e50",
"`3 c #b1bed0",
"`4 c #0e1216",
"`5 c #161c24",
"`6 c #3e5066",
"`7 c #040506",
"`8 c #141a22",
".` c #bfcbd9",
".. c #141920",
".# c #96a9c0",
".a c #c2cdda",
".b c #334154",
".c c #080a0c",
".d c #c8d2de",
".e c #080b0e",
".f c #b9c6d5",
".g c #5d789a",
".h c #d6dde6",
".i c #516886",
".j c #000000",
".k c #000000",
".l c #000000",
".m c #000000",
".n c #000000",
".o c #000000",
".p c #000000",
".q c #000000",
".r c #000000",
".s c #000000",
".t c #000000",
".u c #000000",
".v c #000000",
".w c #000000",
".x c #000000",
".y c #000000",
".z c #000000",
".A c #000000",
".B c #000000",
".C c #000000",
".D c #000000",
".E c #000000",
".F c #000000",
".G c #000000",
".H c #000000",
".I c #000000",
".J c #000000",
".K c #000000",
".L c #000000",
".M c #000000",
".N c #000000",
".O c #000000",
".P c #000000",
".Q c #000000",
".R c #000000",
".S c #000000",
".T c #000000",
".U c #000000",
".V c #000000",
".W c #000000",
".X c #000000",
".Y c #000000",
".Z c #000000",
".0 c #000000",
".1 c #000000",
".2 c #000000",
".3 c #000000",
".4 c #000000",
".5 c #000000",
".6 c #000000",
".7 c #000000",
".8 c #000000",
"#` c #000000",
"#. c #000000",
"## c #000000",
"#a c #000000",
"#b c #000000",
"#c c #000000",
"#d c #000000",
"#e c #000000",
"#f c #000000",
"#g c #000000",
"#h c #000000",
"#i c #000000",
"#j c #000000",
"#k c #000000",
"#l c #000000",
"#m c #000000",
"#n c #000000",
"#o c #000000",
"#p c #000000",
"#q c #000000",
"#r c #000000",
"#s c #000000",
"#t c #000000",
"#u c #000000",
"#v c #000000",
"#w c #000000",
"#x c #000000",
"#y c #000000",
"#z c #000000",
"#A c #000000",
"#B c #000000",
"#C c #000000",
"#D c #000000",
"#E c #000000",
"#F c #000000",
"#G c #000000",
"#H c #000000",
"#I c #000000",
"#J c #000000",
"#K c #000000",
"#L c #000000",
"#M c #000000",
"#N c #000000",
"#O c #000000",
"#P c #000000",
"#Q c #000000",
"#R c #000000",
"#S c #000000",
"#T c #000000",
"#U c #000000",
"#V c #000000",
"#W c #000000",
"#X c #000000",
"#Y c #000000",
"#Z c #000000",
"#0 c #000000",
"#1 c #000000",
"#2 c #000000",
"#3 c #000000",
"#4 c #000000",
"#5 c #000000",
"#6 c #000000",
"#7 c #000000",
"#8 c #000000",
"a` c #000000",
"a. c #000000",
"a# c #000000",
"aa c #000000",
"ab c #000000",
"ac c #000000",
"ad c #000000",
"ae c #000000",
"af c #000000",
"ag c #000000",
"ah c #000000",
"ai c #000000",
"aj c #000000",
"ak c #000000",
"al c #000000",
"am c #000000",
"an c #000000",
"ao c #000000",
"ap c #000000",
"aq c #000000",
"ar c #000000",
"as c #000000",
"at c #000000",
"au c #000000",
"av c #000000",
"aw c #000000",
"ax c #000000",
"ay c #000000",
"az c #000000",
"aA c #000000",
"aB c #000000",
"aC c #000000",
"aD c #000000",
"aE c #000000",
"aF c #000000",
"aG c #000000",
"aH c #000000",
"aI c #000000",
"aJ c #000000",
"aK c #000000",
"aL c #000000",
"aM c #000000",
"aN c #000000",
"aO c #000000",
"aP c #000000",
"aQ c #000000",
"aR c #000000",
"aS c #000000",
"aT c #000000",
"aU c #000000",
"aV c #000000",
"aW c #000000",
"aX c #000000",
"aY c #000000",
"aZ c #000000",
"a0 c #000000",
"a1 c #000000",
"a2 c #000000",
"a3 c #000000",
"a4 c #000000",
"a5 c #000000",
"a6 c #000000",
"a7 c #000000",
"a8 c #000000",
/* pixels */
"````````````````````````````````````````````````",
"````````````````````````````````````````````````",
"````````````````````````````````````````````````",
"````````````````````````````````````````````````",
"````````````````````````````````````````````````",
"````````````````````````````````````````````````",
"```````````````````.`#`a`.``````````````````````",
"```````````````.`b`c`d`e`f`g`.``````````````````",
"`````````````h`i`j`k`l`m`n`o`p`.````````````````",
"```````````q`r`r`s`````.`t`d`q`u`.``````````````",
"`````````.`v`r`w`.`````````x`y`f`z`````.````````",
"`````````A`r`r`B`````````````t`C`D`E`.`F````````",
"`````````.`G`r`H```````````````I`J`u`K`L````````",
"```````````M`N`O`z```````P`Q`R`S`T`q`U`V````````",
"```````````U`w`W`X```````Y`Z`G`B`0`1`2`3````````",
"```````````.`r`4`5`i`````````A`6`v`7`8.`````````",
"`````````````1`r..`8.#``````````.a.b.c.d````````",
"`````````````.`r`7`N.e`u````````````.f`.````````",
"``````````````.g`r`r`r.e.h``````````````````````",
"`````````````````8`r.i`.````````````````````````",
"`````````````````..d````````````````````````````",
"````````````````````````````````````````````````",
"````````````````````````````````````````````````",
"````````````````````````````````````````````````"
};
