/* XPM */
static char *FileDxf_xpm[] = {
/* width height num_colors chars_per_pixel */
"    24    24      256            2",
/* colors */
"`` c none",
"`. c #dbe1e9",
"`# c #b4c1d2",
"`a c #8096b2",
"`b c #7d94b1",
"`c c #748cab",
"`d c #b3c0d1",
"`e c #7a91af",
"`f c #ecf0f4",
"`g c #e9edf1",
"`h c #93a6be",
"`i c #dce2ea",
"`j c #516886",
"`k c #eff2f5",
"`l c #3c4e64",
"`m c #5c7798",
"`n c #f6f6f6",
"`o c #e1e6ed",
"`p c #4e6481",
"`q c #f9f9f9",
"`r c #f0f3f6",
"`s c #637fa1",
"`t c #fefefe",
"`u c #f5f5f5",
"`v c #e6eaf0",
"`w c #6a84a5",
"`x c #8ca1ba",
"`y c #334255",
"`z c #293645",
"`A c #42566e",
"`B c #7089a9",
"`C c #bdc9d7",
"`D c #90a4bc",
"`E c #7890ae",
"`F c #e5e9ef",
"`G c #e0e5ec",
"`H c #d3dbe5",
"`I c #fafafa",
"`J c #f8f8f8",
"`K c #f7f7f7",
"`L c #ccd5e0",
"`M c #c3cedb",
"`N c #bbc7d6",
"`O c #b1bed0",
"`P c #000000",
"`Q c #000000",
"`R c #000000",
"`S c #000000",
"`T c #000000",
"`U c #000000",
"`V c #000000",
"`W c #000000",
"`X c #000000",
"`Y c #000000",
"`Z c #000000",
"`0 c #000000",
"`1 c #000000",
"`2 c #000000",
"`3 c #000000",
"`4 c #000000",
"`5 c #000000",
"`6 c #000000",
"`7 c #000000",
"`8 c #000000",
".` c #000000",
".. c #000000",
".# c #000000",
".a c #000000",
".b c #000000",
".c c #000000",
".d c #000000",
".e c #000000",
".f c #000000",
".g c #000000",
".h c #000000",
".i c #000000",
".j c #000000",
".k c #000000",
".l c #000000",
".m c #000000",
".n c #000000",
".o c #000000",
".p c #000000",
".q c #000000",
".r c #000000",
".s c #000000",
".t c #000000",
".u c #000000",
".v c #000000",
".w c #000000",
".x c #000000",
".y c #000000",
".z c #000000",
".A c #000000",
".B c #000000",
".C c #000000",
".D c #000000",
".E c #000000",
".F c #000000",
".G c #000000",
".H c #000000",
".I c #000000",
".J c #000000",
".K c #000000",
".L c #000000",
".M c #000000",
".N c #000000",
".O c #000000",
".P c #000000",
".Q c #000000",
".R c #000000",
".S c #000000",
".T c #000000",
".U c #000000",
".V c #000000",
".W c #000000",
".X c #000000",
".Y c #000000",
".Z c #000000",
".0 c #000000",
".1 c #000000",
".2 c #000000",
".3 c #000000",
".4 c #000000",
".5 c #000000",
".6 c #000000",
".7 c #000000",
".8 c #000000",
"#` c #000000",
"#. c #000000",
"## c #000000",
"#a c #000000",
"#b c #000000",
"#c c #000000",
"#d c #000000",
"#e c #000000",
"#f c #000000",
"#g c #000000",
"#h c #000000",
"#i c #000000",
"#j c #000000",
"#k c #000000",
"#l c #000000",
"#m c #000000",
"#n c #000000",
"#o c #000000",
"#p c #000000",
"#q c #000000",
"#r c #000000",
"#s c #000000",
"#t c #000000",
"#u c #000000",
"#v c #000000",
"#w c #000000",
"#x c #000000",
"#y c #000000",
"#z c #000000",
"#A c #000000",
"#B c #000000",
"#C c #000000",
"#D c #000000",
"#E c #000000",
"#F c #000000",
"#G c #000000",
"#H c #000000",
"#I c #000000",
"#J c #000000",
"#K c #000000",
"#L c #000000",
"#M c #000000",
"#N c #000000",
"#O c #000000",
"#P c #000000",
"#Q c #000000",
"#R c #000000",
"#S c #000000",
"#T c #000000",
"#U c #000000",
"#V c #000000",
"#W c #000000",
"#X c #000000",
"#Y c #000000",
"#Z c #000000",
"#0 c #000000",
"#1 c #000000",
"#2 c #000000",
"#3 c #000000",
"#4 c #000000",
"#5 c #000000",
"#6 c #000000",
"#7 c #000000",
"#8 c #000000",
"a` c #000000",
"a. c #000000",
"a# c #000000",
"aa c #000000",
"ab c #000000",
"ac c #000000",
"ad c #000000",
"ae c #000000",
"af c #000000",
"ag c #000000",
"ah c #000000",
"ai c #000000",
"aj c #000000",
"ak c #000000",
"al c #000000",
"am c #000000",
"an c #000000",
"ao c #000000",
"ap c #000000",
"aq c #000000",
"ar c #000000",
"as c #000000",
"at c #000000",
"au c #000000",
"av c #000000",
"aw c #000000",
"ax c #000000",
"ay c #000000",
"az c #000000",
"aA c #000000",
"aB c #000000",
"aC c #000000",
"aD c #000000",
"aE c #000000",
"aF c #000000",
"aG c #000000",
"aH c #000000",
"aI c #000000",
"aJ c #000000",
"aK c #000000",
"aL c #000000",
"aM c #000000",
"aN c #000000",
"aO c #000000",
"aP c #000000",
"aQ c #000000",
"aR c #000000",
"aS c #000000",
"aT c #000000",
"aU c #000000",
"aV c #000000",
"aW c #000000",
"aX c #000000",
"aY c #000000",
"aZ c #000000",
"a0 c #000000",
"a1 c #000000",
"a2 c #000000",
"a3 c #000000",
"a4 c #000000",
"a5 c #000000",
"a6 c #000000",
"a7 c #000000",
"a8 c #000000",
/* pixels */
"````````````````````````````````````````````````",
"````````````````````````````````````````````````",
"```````````.`#`a`a`a`a`a`a`a`a`a`b`c`d``````````",
"```````````.`e`f`f`f`f`f`g`g`g`g`h`i`j`d````````",
"```````````.`e`k`l`#`k`k`f`f`f`f`m`n`o`p`d``````",
"```````````q`q`q`l`l`#`r`k`k`k`k`s`t`u`v`w``````",
"```````l`l`l`l`l`l`l`l`#`r`r`l`r`x`y`z`A`B``````",
"```````````q`q`q`l`l`#`r`l`r`l`r`C`D`E`D`E``````",
"```````````.`e`k`l`#`k`l`l`l`l`l`r`r`r`r`a``````",
"```````````.`e`k`k`k`l`k`l`k`l`k`l`k`k`k`a``````",
"```````````.`e`f`f`l`l`l`l`l`l`l`l`l`f`f`a``````",
"```````````.`e`g`g`g`l`g`l`g`l`g`l`g`g`g`e``````",
"```````````.`e`F`F`l`l`l`l`l`l`l`l`l`F`F`a``````",
"```````````.`e`G`G`G`l`G`l`G`l`G`l`G`G`G`a``````",
"```````````.`e`.`.`.`.`.`.`.`.`.`.`.`.`.`a``````",
"`````l`l`l`l`l`l`l`l`l`l`l`l`l`l`l`l`l`H`a``````",
"`````l`l`I`q`q`l`l`J`l`l`J`l`J`K`n`l`l`L`a``````",
"`````l`l`I`l`l`q`l`J`l`l`J`l`J`l`l`l`l`M`a``````",
"`````l`l`I`l`l`q`l`l`J`J`l`l`J`K`l`l`l`N`a``````",
"`````l`l`I`l`l`q`l`J`l`l`J`l`J`l`l`l`l`O`a``````",
"`````l`l`I`q`q`l`l`J`l`l`J`l`J`l`l`l`l`a`#``````",
"`````l`l`l`l`l`l`l`l`l`l`l`l`l`l`l`l`l`.`.``````",
"````````````````````````````````````````````````",
"````````````````````````````````````````````````"
};
