/* XPM */
static char *FileSave_xpm[] = {
/* width height num_colors chars_per_pixel */
"    24    24      256            2",
/* colors */
"`` c #040214",
"`. c #748294",
"`# c none",
"`a c #34424c",
"`b c #bcc2c4",
"`c c #4c627c",
"`d c #94a2ac",
"`e c #5c7284",
"`f c #dce2e4",
"`g c #3c526c",
"`h c #8492a4",
"`i c #6c727c",
"`j c #a4b2bc",
"`k c #142234",
"`l c #7c8a9c",
"`m c #ccd2d4",
"`n c #ecf2f4",
"`o c #4c5664",
"`p c #3c4a5c",
"`q c #546a7c",
"`r c #6c7a8c",
"`s c #2c3644",
"`t c #5c6674",
"`u c #9caab4",
"`v c #e4eaec",
"`w c #445a74",
"`x c #8c9aac",
"`y c #2c3e54",
"`z c #7c8294",
"`A c #c4cad4",
"`B c #64727c",
"`C c #b4b6bc",
"`D c #848a9c",
"`E c #d4dadc",
"`F c #444e5c",
"`G c #747a8c",
"`H c #3c465c",
"`I c #546274",
"`J c #445264",
"`K c #6c768c",
"`L c #fcfafc",
"`M c #545e64",
"`N c #343a44",
"`O c #748694",
"`P c #34465c",
"`Q c #9ca2b4",
"`R c #8c96a4",
"`S c #6c767c",
"`T c #d4d6dc",
"`U c #3c4e6c",
"`V c #5c6a74",
"`W c #6c7e8c",
"`X c #eceaec",
"`Y c #64768c",
"`Z c #b4bec4",
"`0 c #445674",
"`1 c #4c5e74",
"`2 c #041224",
"`3 c #344654",
"`4 c #c4c6cc",
"`5 c #e4e2e4",
"`6 c #7c8e9c",
"`7 c #ccd6dc",
"`8 c #f4f6f4",
".` c #3c4e64",
".. c #2c3a44",
".# c #a4aab4",
".a c #949eac",
".b c #ccced4",
".c c #647684",
".d c #848e9c",
".e c #546684",
".f c #445664",
".g c #eceeec",
".h c #bcbecc",
".i c #74829c",
".j c #344254",
".k c #bcc2cc",
".l c #4c667c",
".m c #94a2b4",
".n c #5c728c",
".o c #8496a4",
".p c #6c7284",
".q c #acb6bc",
".r c #142a44",
".s c #ccd2dc",
".t c #3c4a64",
".u c #546a84",
".v c #6c7a94",
".w c #5c667c",
".x c #445e74",
".y c #8c9eac",
".z c #343e4c",
".A c #7c8694",
".B c #c4ced4",
".C c #647284",
".D c #dcdee4",
".E c #444e64",
".F c #747e8c",
".G c #54667c",
".H c #fcfefc",
".I c #545e6c",
".J c #343a4c",
".K c #74869c",
".L c #9ca6b4",
".M c #8c96ac",
".N c #6c7684",
".O c #5c6e84",
".P c #6c7e94",
".Q c #b4becc",
".R c #4c5e7c",
".S c #041e34",
".T c #e4e6ec",
".U c #7c8ea4",
".V c #f4f6fc",
".W c #2c3a4c",
".X c #a4aebc",
".Y c #848ea4",
".Z c #44566c",
".0 c #eceef4",
".1 c #000000",
".2 c #000000",
".3 c #000000",
".4 c #000000",
".5 c #000000",
".6 c #000000",
".7 c #000000",
".8 c #000000",
"#` c #000000",
"#. c #000000",
"## c #000000",
"#a c #000000",
"#b c #000000",
"#c c #000000",
"#d c #000000",
"#e c #000000",
"#f c #000000",
"#g c #000000",
"#h c #000000",
"#i c #000000",
"#j c #000000",
"#k c #000000",
"#l c #000000",
"#m c #000000",
"#n c #000000",
"#o c #000000",
"#p c #000000",
"#q c #000000",
"#r c #000000",
"#s c #000000",
"#t c #000000",
"#u c #000000",
"#v c #000000",
"#w c #000000",
"#x c #000000",
"#y c #000000",
"#z c #000000",
"#A c #000000",
"#B c #000000",
"#C c #000000",
"#D c #000000",
"#E c #000000",
"#F c #000000",
"#G c #000000",
"#H c #000000",
"#I c #000000",
"#J c #000000",
"#K c #000000",
"#L c #000000",
"#M c #000000",
"#N c #000000",
"#O c #000000",
"#P c #000000",
"#Q c #000000",
"#R c #000000",
"#S c #000000",
"#T c #000000",
"#U c #000000",
"#V c #000000",
"#W c #000000",
"#X c #000000",
"#Y c #000000",
"#Z c #000000",
"#0 c #000000",
"#1 c #000000",
"#2 c #000000",
"#3 c #000000",
"#4 c #000000",
"#5 c #000000",
"#6 c #000000",
"#7 c #000000",
"#8 c #000000",
"a` c #000000",
"a. c #000000",
"a# c #000000",
"aa c #000000",
"ab c #000000",
"ac c #000000",
"ad c #000000",
"ae c #000000",
"af c #000000",
"ag c #000000",
"ah c #000000",
"ai c #000000",
"aj c #000000",
"ak c #000000",
"al c #000000",
"am c #000000",
"an c #000000",
"ao c #000000",
"ap c #000000",
"aq c #000000",
"ar c #000000",
"as c #000000",
"at c #000000",
"au c #000000",
"av c #000000",
"aw c #000000",
"ax c #000000",
"ay c #000000",
"az c #000000",
"aA c #000000",
"aB c #000000",
"aC c #000000",
"aD c #000000",
"aE c #000000",
"aF c #000000",
"aG c #000000",
"aH c #000000",
"aI c #000000",
"aJ c #000000",
"aK c #000000",
"aL c #000000",
"aM c #000000",
"aN c #000000",
"aO c #000000",
"aP c #000000",
"aQ c #000000",
"aR c #000000",
"aS c #000000",
"aT c #000000",
"aU c #000000",
"aV c #000000",
"aW c #000000",
"aX c #000000",
"aY c #000000",
"aZ c #000000",
"a0 c #000000",
"a1 c #000000",
"a2 c #000000",
"a3 c #000000",
"a4 c #000000",
"a5 c #000000",
"a6 c #000000",
"a7 c #000000",
"a8 c #000000",
/* pixels */
"`#`#`#`#`#`#`#`#`#`#`#`#`#`#`#`#`#`#`#`#`#`#`#`#",
"`#`#`#`#`#`#`#`#`#`#`#`#`#`#`#`#`#`#`#`#`#`#`#`#",
"`#`#`#.b.E.E`H.X`4`4.h.Q`C.Q.h`Q.j`s`s.J`s`i`#`#",
"`#`#.#.I.K.L`p.T.D.a`4.T.0.D.D`A`H`U.F.M`h`s`#`#",
"`#`#`J.U.M.O.j.H.h.S`j.V`L`X.T.b`p`g.K.C.P.z`#`#",
"`#`#`G.a.O.n.j.H`4.r.X.0.V`X`f.B`p`U`O`Y.i.J`#`#",
"`#`#`G.o.O.C.j`L`m`k.#`8.H.V.0.s`p`g.K`Y.K`N`#`#",
"`#`#`K`x.O`Y.j`m`5`C.q.b.D`T`T`R.z.t`.`r.K.z`#`#",
"`#`#`G`x.O`K`J.W.W`y`y.W.W.W.W`y`y`y.G`e`l`N`#`#",
"`#`#`K.a`Y`Y.n.u.u.u.u.e.l.l`c`c`c`c`1`0.U..`#`#",
"`#`#`K.y.v`Y`Y`Y.n.O.O.u.e.G.G.l`c`1`c`1`h`N`#`#",
"`#`#`K.a.F.K`J.n.#.L.L`u.L`u.L.L.L.a`.`0.U`N`#`#",
"`#`#`K.m`..K`H.B`f.D.D.D.D.D.D.D`f`T.K`w.o..`#`#",
"`#`#`K`d.K`l`p.D.0`v`X`v`v`X`v`v`X.D.K`w`R`s`#`#",
"`#`#`K`Q.A.U`p`E`X.T`v.T`v.T`v.T`v`E.K`1.o.J`#`#",
"`#`#.p.L`6`h`p.s.T`f`f`f`f`f.D`f`f`E.A.R.o..`#`#",
"`#`#`K.L`l.o`p.D`n`X.0`X.0.0.g`v.0`f.K.R.M..`#`#",
"`#`#.C.#`u.L.E`m`f.D.D`E`f.D.D.D`f`T`l.e`x`s`#`#",
"`#`#`G`Q`r`u.f.D`n.g.0`n.0.g`v.0`n`f.F.`.o`N`#`#",
"`#`#.M.d```z`1`C.s.B.B.B.B.B.B.B`A.B.C`2`D.z`#`#",
"`#`#.p.L`6.X`o.k`T.s`m.s.s`T.s.s`T`A`h.A`x`s`#`#",
"`#`#.w`Y`R`W`P.N`r.N.N.N.N`B`i`B`i`t`t`z.I`M`#`#",
"`#`#`#`#`#`#`#`#`#`#`#`#`#`#`#`#`#`#`#`#`#`#`#`#",
"`#`#`#`#`#`#`#`#`#`#`#`#`#`#`#`#`#`#`#`#`#`#`#`#"
};
