/* XPM */
static char *FileExportNodeAndEle_xpm[] = {
/* width height num_colors chars_per_pixel */
"    24    24      256            2",
/* colors */
"`` c none",
"`. c #859eb2",
"`# c #687c8f",
"`a c #6c8192",
"`b c #abcbe6",
"`c c #cad1d9",
"`d c #cfd5dd",
"`e c #d4d9e0",
"`f c #d5dbe1",
"`g c #d8dde3",
"`h c #dadfe5",
"`i c #dce0e6",
"`j c #dee2e7",
"`k c #dee2e8",
"`l c #dfe3e8",
"`m c #e1e5ea",
"`n c #dbe0e6",
"`o c #ccd2da",
"`p c #6e839c",
"`q c #a5c4de",
"`r c #ced4dc",
"`s c #d3d9e0",
"`t c #d6dbe2",
"`u c #d9dee4",
"`v c #dde1e7",
"`w c #e1e4e9",
"`x c #e2e6eb",
"`y c #e3e6eb",
"`z c #e5e8ec",
"`A c #adb7c4",
"`B c #8f9dae",
"`C c #5a6d84",
"`D c #a4c3dc",
"`E c #d4dae0",
"`F c #d7dce3",
"`G c #dadee4",
"`H c #e7eaed",
"`I c #e7eaee",
"`J c #e8ebef",
"`K c #bfc7d1",
"`L c #a6b1c0",
"`M c #dce0e5",
"`N c #7e8a9b",
"`O c #859fb5",
"`P c #e5e8ed",
"`Q c #e9ecf0",
"`R c #ebeef1",
"`S c #edeff1",
"`T c #eef0f2",
"`U c #cdd3db",
"`V c #a2afbe",
"`W c #eceef2",
"`X c #b2d0e8",
"`Y c #879aad",
"`Z c #8faac4",
"`0 c #e0e4e9",
"`1 c #e4e7ec",
"`2 c #e4e8ec",
"`3 c #e8ebee",
"`4 c #eaedf0",
"`5 c #edeff2",
"`6 c #eff1f4",
"`7 c #f2f3f5",
"`8 c #aeb7c4",
".` c #fcfdfd",
".. c #e5e9ed",
".# c #7c8ea2",
".a c #97b4cd",
".b c #e0e5ea",
".c c #eceff2",
".d c #c8cfd8",
".e c #b7c0cc",
".f c #b0bbc8",
".g c #aab5c2",
".h c #a1adbd",
".i c #6d7e92",
".j c #d7dce4",
".k c #c3def4",
".l c #d0d7dd",
".m c #768a9e",
".n c #9bbad4",
".o c #f0f1f3",
".p c #f2f4f6",
".q c #e2e5ea",
".r c #e0e5e9",
".s c #d9eaf7",
".t c #fdfdfd",
".u c #bbc5cf",
".v c #687b8e",
".w c #e6e9ed",
".x c #e9ecef",
".y c #f1f2f5",
".z c #f3f4f6",
".A c #f5f6f8",
".B c #f1f3f5",
".C c #cfd5dc",
".D c #cbd3da",
".E c #c8d0d8",
".F c #c4ccd5",
".G c #dbdfe5",
".H c #daeaf7",
".I c #fafbfb",
".J c #b1b9c1",
".K c #72869a",
".L c #f0f2f4",
".M c #f4f5f7",
".N c #f6f7f8",
".O c #f3f5f6",
".P c #cbd2da",
".Q c #c5cdd6",
".R c #b9c2cd",
".S c #6f8196",
".T c #f0f5fa",
".U c #c0c6ce",
".V c #748a9f",
".W c #a3c2dd",
".X c #eceef1",
".Y c #f7f8f9",
".Z c #f8f8f9",
".0 c #f9f9fa",
".1 c #fbfbfc",
".2 c #fefefe",
".3 c #a5b1bf",
".4 c #c3cbd4",
".5 c #b6d7f3",
".6 c #677f9a",
".7 c #a2c1dc",
".8 c #edf0f2",
"#` c #fbfcfc",
"#. c #cdd4db",
"## c #abb7c5",
"#a c #dfe4e9",
"#b c #6c839d",
"#c c #9cbbd5",
"#d c #f5f6f7",
"#e c #fafafb",
"#f c #eef0f3",
"#g c #bbc4ce",
"#h c #97a4b4",
"#i c #c4cbd4",
"#j c #607286",
"#k c #91aec5",
"#l c #f1f2f4",
"#m c #fbfbfb",
"#n c #c6ccd6",
"#o c #93a2b2",
"#p c #72849a",
"#q c #5e6e82",
"#r c #6f8698",
"#s c #b1d2ed",
"#t c #f2f3f6",
"#u c #f6f7f9",
"#v c #ccd3db",
"#w c #909eaf",
"#x c #b6bfcb",
"#y c #8d9caf",
"#z c #71889b",
"#A c #accde8",
"#B c #a1adbc",
"#C c #718499",
"#D c #afb9c8",
"#E c #70869c",
"#F c #a6c6e0",
"#G c #eff1f3",
"#H c #8797aa",
"#I c #6c7f96",
"#J c #728aa0",
"#K c #9fbdd7",
"#L c #b4d6f2",
"#M c #6c8193",
"#N c #bec8d2",
"#O c #c1cbd5",
"#P c #c5cdd8",
"#Q c #c5cdd7",
"#R c #c7cfd9",
"#S c #c8d1da",
"#T c #c8d2da",
"#U c #adb9c7",
"#V c #6f7f92",
"#W c #70889d",
"#X c #a1c0d8",
"#Y c #95b2c9",
"#Z c #8ea8c0",
"#0 c #8da7be",
"#1 c #8ba4bc",
"#2 c #8aa2ba",
"#3 c #879eb6",
"#4 c #859db3",
"#5 c #839ab0",
"#6 c #8198ae",
"#7 c #7891a7",
"#8 c #70869a",
"a` c #97b4cb",
"a. c #a5c4dd",
"a# c #a7c6e0",
"aa c #aacae4",
"ab c #accce7",
"ac c #afcfea",
"ad c #b1d3ee",
"ae c #b3d4f0",
"af c #b4d5f1",
"ag c #aecfe9",
"ah c #aacae5",
"ai c #a6c5df",
"aj c #a2c0d9",
"ak c #9dbad3",
"al c #99b5cd",
"am c #94b0c7",
"an c #92adc3",
"ao c #8faac0",
"ap c #90abc1",
"aq c #96b2c9",
"ar c #9cb9d2",
"as c #a0bfd7",
"at c #a9c9e3",
"au c #adcee9",
"av c #000000",
"aw c #000000",
"ax c #000000",
"ay c #000000",
"az c #000000",
"aA c #000000",
"aB c #000000",
"aC c #000000",
"aD c #000000",
"aE c #000000",
"aF c #000000",
"aG c #000000",
"aH c #000000",
"aI c #000000",
"aJ c #000000",
"aK c #000000",
"aL c #000000",
"aM c #000000",
"aN c #000000",
"aO c #000000",
"aP c #000000",
"aQ c #000000",
"aR c #000000",
"aS c #000000",
"aT c #000000",
"aU c #000000",
"aV c #000000",
"aW c #000000",
"aX c #000000",
"aY c #000000",
"aZ c #000000",
"a0 c #000000",
"a1 c #000000",
"a2 c #000000",
"a3 c #000000",
"a4 c #000000",
"a5 c #000000",
"a6 c #000000",
"a7 c #000000",
"a8 c #000000",
/* pixels */
"````````````````````````````````````````````````",
"````````````````````````````````````````````````",
"`````.`#`#`#`#`#`#`#`#`#`#`#`#`#`#`a`b``````````",
"`````#`c`d`e`f`g`h`i`j`k`l`m`m`n`o`p`q``````````",
"`````#`r`s`t`u`h`v`l`w`x`y`z`v`A`B`C`D``````````",
"`````#`E`F`G`i`j`w`y`z`H`I`J`K`L`M`N`O``````````",
"`````#`g`n`k`l`y`P`J`Q`R`S`T`U`V`W`X`Y`Z````````",
"`````#`G`v`0`1`2`3`4`5`6`6`7`7`8`A.`...#.a``````",
"`````#`v.b`z`I`4`5`6.c.d.e.f.g.h.i.j.k.l.m.n````",
"`````#`k`y`I`4`5.o.p`7`H.q`0.r`l`j`J.s.t.u.v````",
"`````#`x.w.x`5.y.z.A.B`u.C.D.E.F`K.G.H.I.J.K````",
"`````#`z.x`5.L.M.M.N.O`h`d.P.Q.R.S`z.T.U.V.W````",
"`````#.w.X.L`7.A.Y.Z.0.1.I.2.1.3.4.5`u.6.7``````",
"`````#.x.8.B.M.Y.Y.0.I#`.t.t#.##`7#a#b#c````````",
"`````#`4`6.z#d.N.Z#e#`.t.I#f#g#h#i#j#k``````````",
"`````#`R#l.z.N.Y.Z.1.t#m`R#n#o#p#q#r#s``````````",
"`````#.8#t#u.N.0.1.`.`.z#v#w#x#y#z#A````````````",
"`````#`T.B.M.N.Z.I#`#e`z#B#C#D#E#F``````````````",
"`````##G.M#u.N.0#`.`.0`i#H#I#J#K#L``````````````",
"````#M#N#O#P#Q#R#S#T#R#U#V#W#X#L````````````````",
"````#Y#Z#0#1#2#3#4#5#6#7#8a`a.a#aaabacadae#L````",
"````afagahaiajakalamanaoapaqalarasa.atau#s#L````",
"````````````````````````````````````````````````",
"````````````````````````````````````````````````"
};
