/* XPM */
static char *FileSaveAs_xpm[] = {
/* width height num_colors chars_per_pixel */
"    24    24      256            2",
/* colors */
"`` c #040214",
"`. c #6c86a4",
"`# c none",
"`a c #34424c",
"`b c #bcc2c4",
"`c c #4c627c",
"`d c #94a2ac",
"`e c #5c7284",
"`f c #dce2e4",
"`g c #3c526c",
"`h c #7c96b4",
"`i c #a4b2bc",
"`j c #6c727c",
"`k c #142234",
"`l c #2c3644",
"`m c #8c8a8c",
"`n c #ccd2d4",
"`o c #34465c",
"`p c #646264",
"`q c #a4aab4",
"`r c #ecf2f4",
"`s c #4c5254",
"`t c #6c7a8c",
"`u c #7c8a9c",
"`v c #5c7294",
"`w c #8c96a4",
"`x c #2c3a44",
"`y c #b4b6bc",
"`z c #c4cad4",
"`A c #94aabc",
"`B c #7c8294",
"`C c #444644",
"`D c #e4eaec",
"`E c #d4dadc",
"`F c #444e5c",
"`G c #4c5e74",
"`H c #8c96ac",
"`I c #2c3a4c",
"`J c #546a7c",
"`K c #64727c",
"`L c #6c7284",
"`M c #142a44",
"`N c #5c6a74",
"`O c #748294",
"`P c #3c4a54",
"`Q c #9ca2b4",
"`R c #445a74",
"`S c #848a9c",
"`T c #3c4e64",
"`U c #fcfafc",
"`V c #747a8c",
"`W c #b4bec4",
"`X c #cccacc",
"`Y c #8c9eac",
"`Z c #3c4654",
"`0 c #546274",
"`1 c #acb6bc",
"`2 c #d4d6dc",
"`3 c #5c6674",
"`4 c #acaaac",
"`5 c #545e64",
"`6 c #647e9c",
"`7 c #eceaec",
"`8 c #343a4c",
".` c #64768c",
".. c #748694",
".# c #bcbecc",
".a c #041224",
".b c #344654",
".c c #c4c6cc",
".d c #94a6bc",
".e c #e4e2e4",
".f c #445264",
".g c #8492a4",
".h c #a4b6cc",
".i c #747674",
".j c #1c222c",
".k c #343234",
".l c #ccd6dc",
".m c #3c465c",
".n c #f4f6f4",
".o c #545654",
".p c #6c7e8c",
".q c #7c8e9c",
".r c #343a3c",
".s c #c4ced4",
".t c #9caab4",
".u c #dcdee4",
".v c #545e6c",
".w c #647684",
".x c #6c7684",
".y c #242a34",
".z c #848e9c",
".A c #b4bed4",
".B c #949eac",
".C c #546684",
".D c #eceeec",
".E c #344254",
".F c #bcc2cc",
".G c #94a2b4",
".H c #5c728c",
".I c #a4b2c4",
".J c #6c767c",
".K c #8c8e8c",
".L c #ccd2dc",
".M c #646664",
".N c #a4aebc",
".O c #5c7694",
".P c #949294",
".Q c #7c8694",
".R c #44464c",
".S c #d4dee4",
".T c #444e64",
".U c #4c5e7c",
".V c #8c9aac",
".W c #2c3e54",
".X c #546a84",
".Y c #647284",
".Z c #5c6e84",
".0 c #74829c",
".1 c #9ca6b4",
".2 c #445e74",
".3 c #3c4e6c",
".4 c #fcfefc",
".5 c #747e8c",
".6 c #b4becc",
".7 c #ccced4",
".8 c #8c9ebc",
"#` c #54667c",
"#. c #041e34",
"## c #9caec4",
"#a c #e4e6ec",
"#b c #44566c",
"#c c #1c2634",
"#d c #242e3c",
"#e c #acaeac",
"#f c #343e4c",
"#g c #8496a4",
"#h c #343634",
"#i c #3c4a5c",
"#j c #5c667c",
"#k c #647ea4",
"#l c #74869c",
"#m c #f4f6fc",
"#n c #54565c",
"#o c #6c7e94",
"#p c #7c8ea4",
"#q c #343a44",
"#r c #c4cedc",
"#s c #6c768c",
"#t c #848ea4",
"#u c #eceef4",
"#v c #000000",
"#w c #000000",
"#x c #000000",
"#y c #000000",
"#z c #000000",
"#A c #000000",
"#B c #000000",
"#C c #000000",
"#D c #000000",
"#E c #000000",
"#F c #000000",
"#G c #000000",
"#H c #000000",
"#I c #000000",
"#J c #000000",
"#K c #000000",
"#L c #000000",
"#M c #000000",
"#N c #000000",
"#O c #000000",
"#P c #000000",
"#Q c #000000",
"#R c #000000",
"#S c #000000",
"#T c #000000",
"#U c #000000",
"#V c #000000",
"#W c #000000",
"#X c #000000",
"#Y c #000000",
"#Z c #000000",
"#0 c #000000",
"#1 c #000000",
"#2 c #000000",
"#3 c #000000",
"#4 c #000000",
"#5 c #000000",
"#6 c #000000",
"#7 c #000000",
"#8 c #000000",
"a` c #000000",
"a. c #000000",
"a# c #000000",
"aa c #000000",
"ab c #000000",
"ac c #000000",
"ad c #000000",
"ae c #000000",
"af c #000000",
"ag c #000000",
"ah c #000000",
"ai c #000000",
"aj c #000000",
"ak c #000000",
"al c #000000",
"am c #000000",
"an c #000000",
"ao c #000000",
"ap c #000000",
"aq c #000000",
"ar c #000000",
"as c #000000",
"at c #000000",
"au c #000000",
"av c #000000",
"aw c #000000",
"ax c #000000",
"ay c #000000",
"az c #000000",
"aA c #000000",
"aB c #000000",
"aC c #000000",
"aD c #000000",
"aE c #000000",
"aF c #000000",
"aG c #000000",
"aH c #000000",
"aI c #000000",
"aJ c #000000",
"aK c #000000",
"aL c #000000",
"aM c #000000",
"aN c #000000",
"aO c #000000",
"aP c #000000",
"aQ c #000000",
"aR c #000000",
"aS c #000000",
"aT c #000000",
"aU c #000000",
"aV c #000000",
"aW c #000000",
"aX c #000000",
"aY c #000000",
"aZ c #000000",
"a0 c #000000",
"a1 c #000000",
"a2 c #000000",
"a3 c #000000",
"a4 c #000000",
"a5 c #000000",
"a6 c #000000",
"a7 c #000000",
"a8 c #000000",
/* pixels */
"`#`#`#`#`#`#`#`#`#`#`#`#`#`#`#`#`#`#`#`#`#`#`#`#",
"`#`#`#`#`#`#`#`#`#`#`#`#`#`#`#`#`#`#`#`#`#`#`#`#",
"`#`#`#`X.T.T.m.N.c.c.#.6`y.6.#`Q.E`l`l`8`l`j`#`#",
"`#`#`q`0#l.1#i#a.u.B.c#a#u.u.u`z.m.3.5`H.g`l`#`#",
"`#`#.f`u`H.Z.E.4.##..I#m`U`7#a.7#i`g#l.Y#o#f`#`#",
"`#`#`V.B.Z.H.E.4.c`M.N#u.n`7`f#r#i`T#e.M#i`m`#`#",
"`#`#`V#g.Z.`.E`U`n`k`q.n.4#m#u`n#i#e`Z##.S.m`#`#",
"`#`##s.V.Z.`.E.7.e`y`1.7.u`2`2`w.i.U.A#r.d`p`#`#",
"`#`#`V.V.Z#s.f`I`I.W.W`I`I`I`I.o`v.6#r###i#e`#`#",
"`#`##s.B.`.`.O.X.X.X.X.C`c`c.R#k##.l##`c`4`x`#`#",
"`#`##s`Y`t`6.`.`.Z.Z.Z.X`J#h`l###r`A.O.i#t#q`#`#",
"`#`##s.B.5.0.T`e`q.t.1.1.k#d`o`c`h#k#n`R#p#q`#`#",
"`#`##s.G`O#l`Z.s`f.u.u.r#d`T#b`o`l`Z..`R#g`x`#`#",
"`#`##s.G`O#p#i.u#u`D.R#d#i#b`o#d#h.u`O`G.g`8`#`#",
"`#`#.x`Q`u.q#i`2`7`p.y#i`g#i#d.k`D.u...U#g`l`#`#",
"`#`#`L.1`u.g#i.L.K#c#i`g#i#d#h`f`f`2#l`G#g`8`#`#",
"`#`##s.1`u#g#i`X.j#i#b`o.y`Z.D`7#u`f#l.U`w`x`#`#",
"`#`#.Y`q.t.1.T.r`o#b`o#c`p.u.u.S`f`2`u#`.V`l`#`#",
"`#`#`V`Q`t.t`4`6.8.b.j.K.D.D.D#u#u`f.5`T#g`8`#`#",
"`#`#`H.z```O#n.h`..r`X.s.s.s.s`z.s.s.Y.a`S#f`#`#",
"`#`#`L.1.z.N`s#n`4`n.L.L.L.L.L`n`2`z.g.Q.V`l`#`#",
"`#`##j.`.V.p`o.x`t.x.x.x.J`L`j`K`L`N`3.5.v`5`#`#",
"`#`#`#`#`#`#`#`#`#`#`#`#`#`#`#`#`#`#`#`#`#`#`#`#",
"`#`#`#`#`#`#`#`#`#`#`#`#`#`#`#`#`#`#`#`#`#`#`#`#"
};
