/* XPM */
static char *FileNew_xpm[] = {
/* width height num_colors chars_per_pixel */
"    24    24      256            2",
/* colors */
"`` c none",
"`. c #f8f8f8",
"`# c #f7f7f7",
"`a c #f6f6f6",
"`b c #121313",
"`c c #2e2f30",
"`d c #2d2f2f",
"`e c #2b2d2e",
"`f c #2a2c2d",
"`g c #282b2c",
"`h c #272b2b",
"`i c #222527",
"`j c #31373a",
"`k c #9c9c9c",
"`l c #5c5f60",
"`m c #e8eff1",
"`n c #e7eeef",
"`o c #e0e9eb",
"`p c #d9e4e7",
"`q c #d0dde0",
"`r c #cad8dc",
"`s c #b6c7cc",
"`t c #4f5152",
"`u c #c4cacb",
"`v c #828282",
"`w c #5e6060",
"`x c #edf2f4",
"`y c #edf2f3",
"`z c #e8eef0",
"`A c #e2eaec",
"`B c #d9e4e6",
"`C c #cedbdf",
"`D c #bcccd0",
"`E c #565858",
"`F c #e5eff2",
"`G c #b1b5b8",
"`H c #969696",
"`I c #606262",
"`J c #f3f6f7",
"`K c #f1f5f6",
"`L c #e8eff0",
"`M c #dee8ea",
"`N c #d4e0e3",
"`O c #c0cfd3",
"`P c #545556",
"`Q c #e5eff3",
"`R c #e4eef2",
"`S c #dde1e3",
"`T c #949494",
"`U c #616262",
"`V c #f1f4f5",
"`W c #d8e3e6",
"`X c #c8d3d6",
"`Y c #3c3d3d",
"`Z c #606466",
"`0 c #5c6062",
"`1 c #5c6061",
"`2 c #606162",
"`3 c #f1f5f5",
"`4 c #f0f4f5",
"`5 c #ecf1f3",
"`6 c #e6edef",
"`7 c #c6d4d8",
"`8 c #95a8ae",
".` c #80969e",
".. c #7d939b",
".# c #7c939b",
".a c #5d6060",
".b c #eff3f4",
".c c #e7eef0",
".d c #e1e9eb",
".e c #dae4e7",
".f c #d6e1e5",
".g c #cddbde",
".h c #b9ccd1",
".i c #acc2c7",
".j c #93aab1",
".k c #ecf1f2",
".l c #eef3f4",
".m c #ecf2f3",
".n c #e3ebed",
".o c #c6d7db",
".p c #b4c9ce",
".q c #a5bdc4",
".r c #ebf0f2",
".s c #eaf0f1",
".t c #e7edef",
".u c #e4ecee",
".v c #dfe7ea",
".w c #d8e3e5",
".x c #cadadd",
".y c #b7ccd0",
".z c #a2bcc3",
".A c #5c5e5f",
".B c #e9eff1",
".C c #ebf0f1",
".D c #e5ecee",
".E c #dee8e9",
".F c #cad9dc",
".G c #a1bbc2",
".H c #e9eff0",
".I c #dde7ea",
".J c #aec5ca",
".K c #9fb9c0",
".L c #595d5e",
".M c #e5edee",
".N c #e1eaec",
".O c #d0dcdf",
".P c #c2d3d7",
".Q c #abc3c9",
".R c #9db7bf",
".S c #939393",
".T c #585c5d",
".U c #dfe8ea",
".V c #e2ebec",
".W c #d1dee2",
".X c #c8d8dc",
".Y c #bcced3",
".Z c #aac2c8",
".0 c #9cb7be",
".1 c #565a5b",
".2 c #dbe4e7",
".3 c #dee7ea",
".4 c #e1e9ea",
".5 c #d9e3e6",
".6 c #cbd9de",
".7 c #c2d4d8",
".8 c #b7cbd0",
"#` c #a7c0c6",
"#. c #9db7be",
"## c #555a5b",
"#a c #d6e2e5",
"#b c #dde6e9",
"#c c #cfdcdf",
"#d c #c7d6da",
"#e c #c3d4d9",
"#f c #becfd3",
"#g c #b2c7cd",
"#h c #a5bec4",
"#i c #929292",
"#j c #424647",
"#k c #a7b2b4",
"#l c #a9b3b5",
"#m c #aab3b6",
"#n c #a5b0b3",
"#o c #9cabae",
"#p c #97a7aa",
"#q c #95a4a9",
"#r c #91a1a6",
"#s c #899ca1",
"#t c #83979c",
"#u c #81969b",
"#v c #c2c2c2",
"#w c #e0e0e0",
"#x c #000000",
"#y c #000000",
"#z c #000000",
"#A c #000000",
"#B c #000000",
"#C c #000000",
"#D c #000000",
"#E c #000000",
"#F c #000000",
"#G c #000000",
"#H c #000000",
"#I c #000000",
"#J c #000000",
"#K c #000000",
"#L c #000000",
"#M c #000000",
"#N c #000000",
"#O c #000000",
"#P c #000000",
"#Q c #000000",
"#R c #000000",
"#S c #000000",
"#T c #000000",
"#U c #000000",
"#V c #000000",
"#W c #000000",
"#X c #000000",
"#Y c #000000",
"#Z c #000000",
"#0 c #000000",
"#1 c #000000",
"#2 c #000000",
"#3 c #000000",
"#4 c #000000",
"#5 c #000000",
"#6 c #000000",
"#7 c #000000",
"#8 c #000000",
"a` c #000000",
"a. c #000000",
"a# c #000000",
"aa c #000000",
"ab c #000000",
"ac c #000000",
"ad c #000000",
"ae c #000000",
"af c #000000",
"ag c #000000",
"ah c #000000",
"ai c #000000",
"aj c #000000",
"ak c #000000",
"al c #000000",
"am c #000000",
"an c #000000",
"ao c #000000",
"ap c #000000",
"aq c #000000",
"ar c #000000",
"as c #000000",
"at c #000000",
"au c #000000",
"av c #000000",
"aw c #000000",
"ax c #000000",
"ay c #000000",
"az c #000000",
"aA c #000000",
"aB c #000000",
"aC c #000000",
"aD c #000000",
"aE c #000000",
"aF c #000000",
"aG c #000000",
"aH c #000000",
"aI c #000000",
"aJ c #000000",
"aK c #000000",
"aL c #000000",
"aM c #000000",
"aN c #000000",
"aO c #000000",
"aP c #000000",
"aQ c #000000",
"aR c #000000",
"aS c #000000",
"aT c #000000",
"aU c #000000",
"aV c #000000",
"aW c #000000",
"aX c #000000",
"aY c #000000",
"aZ c #000000",
"a0 c #000000",
"a1 c #000000",
"a2 c #000000",
"a3 c #000000",
"a4 c #000000",
"a5 c #000000",
"a6 c #000000",
"a7 c #000000",
"a8 c #000000",
/* pixels */
"````````````````````````````````````````````````",
"````````````````````````````````````````````````",
"````````````````````````````````````````````````",
"`````````````.`#`a`a````````````````````````````",
"`````````````b`c`d`e`f`g`h`i`j`k````````````````",
"`````````````l`m`n`o`p`q`r`s`t`u`v``````````````",
"`````````````w`x`y`z`A`B`C`D`E`F`G`H````````````",
"`````````````I`J`K`x`L`M`N`O`P`Q`R`S`T``````````",
"`````````````U`J`V`y`z`o`W`X`Y`Z`0`1`T``````````",
"`````````````2`3`4`5`6`o`B`7`8.`...#`T``````````",
"````````````.a`y.b`x.c.d.e.f.g.h.i.j`T``````````",
"````````````.a.k.l.m`n.n`M.e`N.o.p.q`T``````````",
"````````````.a.r.k.s`n.t.u.v.w.x.y.z`T``````````",
"````````````.A.B.C.B`6.c.D.E.e.F.p.G`T``````````",
"````````````.A.B.H`n`6`z.D.I.f.o.J.K`T``````````",
"````````````.L.D.M.M`6.D.N`W.O.P.Q.R.S``````````",
"````````````.T.U.N.V.n.U`B.W.X.Y.Z.0.S``````````",
"````````````.1.2.3.d.4.5`q.6.7.8#`#..S``````````",
"````````````###a.e#b`B#c#d#e#f#g#h.K#i``````````",
"````````````#j#k#l#m#n#o#p#q#r#s#t#u#i``````````",
"````````````#v#v#v#v#v#v#v#v#v#v#v#v#w``````````",
"````````````````````````````````````````````````",
"````````````````````````````````````````````````",
"````````````````````````````````````````````````"
};
