/* XPM */
static char *FileExit_xpm[] = {
/* width height num_colors chars_per_pixel */
"    24    24      256            2",
/* colors */
"`` c none",
"`. c #e2e7ed",
"`# c #9caec3",
"`a c #7991ae",
"`b c #6c86a6",
"`c c #6f88a8",
"`d c #899eb8",
"`e c #c2cdda",
"`f c #98aac1",
"`g c #607c9f",
"`h c #7890ae",
"`i c #869bb6",
"`j c #8a9fb9",
"`k c #859ab5",
"`l c #7a91af",
"`m c #dbe1e9",
"`n c #8096b2",
"`o c #738baa",
"`p c #8ca0b9",
"`q c #8ca0ba",
"`r c #889db7",
"`s c #8298b4",
"`t c #8197b3",
"`u c #5f7b9e",
"`v c #d1d9e3",
"`w c #9cadc3",
"`x c #6e87a7",
"`y c #5f7b9d",
"`z c #526a89",
"`A c #577191",
"`B c #556e8d",
"`C c #546c8b",
"`D c #758dac",
"`E c #7c93b0",
"`F c #637fa1",
"`G c #f1f4f7",
"`H c #eaeef2",
"`I c #5a7596",
"`J c #5b7697",
"`K c #e2e7ee",
"`L c #f9fafb",
"`M c #bcc8d6",
"`N c #5a7595",
"`O c #6681a3",
"`P c #6a84a5",
"`Q c #5c7799",
"`R c #91a4bd",
"`S c #f3f5f7",
"`T c #a2b3c7",
"`U c #a2b2c7",
"`V c #647fa1",
"`W c #627ea1",
"`X c #879cb6",
"`Y c #4a607b",
"`Z c #748cab",
"`0 c #718aa9",
"`1 c #6782a3",
"`2 c #597394",
"`3 c #587293",
"`4 c #5b7596",
"`5 c #587292",
"`6 c #788fad",
"`7 c #f8f9fa",
"`8 c #6580a2",
".` c #dbe2e9",
".. c #566f8e",
".# c #5e799c",
".a c #506885",
".b c #475c76",
".c c #465b75",
".d c #445871",
".e c #9daec4",
".f c #6d87a7",
".g c #fbfcfd",
".h c #e4e8ee",
".i c #4c627e",
".j c #485d78",
".k c #475c75",
".l c #475b75",
".m c #41546c",
".n c #4f6683",
".o c #d9e0e8",
".p c #5b7698",
".q c #b5c2d2",
".r c #465a73",
".s c #516986",
".t c #ced6e1",
".u c #506784",
".v c #4b617d",
".w c #c7d1dd",
".x c #f4f6f8",
".y c #8a9fb8",
".z c #536b8a",
".A c #8a9eb8",
".B c #e9edf1",
".C c #d5dce5",
".D c #fefefe",
".E c #485d77",
".F c #4b607c",
".G c #4d6480",
".H c #526a88",
".I c #8399b4",
".J c #a0b1c6",
".K c #647fa2",
".L c #556e8e",
".M c #516987",
".N c #d0d8e3",
".O c #fafbfc",
".P c #556d8c",
".Q c #536b89",
".R c #587191",
".S c #516886",
".T c #9aacc2",
".U c #d7dee7",
".V c #4b617c",
".W c #56708f",
".X c #597494",
".Y c #f0f3f6",
".Z c #4f6682",
".0 c #577190",
".1 c #768eac",
".2 c #ccd5e0",
".3 c #dce2ea",
".4 c #d6dde6",
".5 c #e7ecf1",
".6 c #000000",
".7 c #000000",
".8 c #000000",
"#` c #000000",
"#. c #000000",
"## c #000000",
"#a c #000000",
"#b c #000000",
"#c c #000000",
"#d c #000000",
"#e c #000000",
"#f c #000000",
"#g c #000000",
"#h c #000000",
"#i c #000000",
"#j c #000000",
"#k c #000000",
"#l c #000000",
"#m c #000000",
"#n c #000000",
"#o c #000000",
"#p c #000000",
"#q c #000000",
"#r c #000000",
"#s c #000000",
"#t c #000000",
"#u c #000000",
"#v c #000000",
"#w c #000000",
"#x c #000000",
"#y c #000000",
"#z c #000000",
"#A c #000000",
"#B c #000000",
"#C c #000000",
"#D c #000000",
"#E c #000000",
"#F c #000000",
"#G c #000000",
"#H c #000000",
"#I c #000000",
"#J c #000000",
"#K c #000000",
"#L c #000000",
"#M c #000000",
"#N c #000000",
"#O c #000000",
"#P c #000000",
"#Q c #000000",
"#R c #000000",
"#S c #000000",
"#T c #000000",
"#U c #000000",
"#V c #000000",
"#W c #000000",
"#X c #000000",
"#Y c #000000",
"#Z c #000000",
"#0 c #000000",
"#1 c #000000",
"#2 c #000000",
"#3 c #000000",
"#4 c #000000",
"#5 c #000000",
"#6 c #000000",
"#7 c #000000",
"#8 c #000000",
"a` c #000000",
"a. c #000000",
"a# c #000000",
"aa c #000000",
"ab c #000000",
"ac c #000000",
"ad c #000000",
"ae c #000000",
"af c #000000",
"ag c #000000",
"ah c #000000",
"ai c #000000",
"aj c #000000",
"ak c #000000",
"al c #000000",
"am c #000000",
"an c #000000",
"ao c #000000",
"ap c #000000",
"aq c #000000",
"ar c #000000",
"as c #000000",
"at c #000000",
"au c #000000",
"av c #000000",
"aw c #000000",
"ax c #000000",
"ay c #000000",
"az c #000000",
"aA c #000000",
"aB c #000000",
"aC c #000000",
"aD c #000000",
"aE c #000000",
"aF c #000000",
"aG c #000000",
"aH c #000000",
"aI c #000000",
"aJ c #000000",
"aK c #000000",
"aL c #000000",
"aM c #000000",
"aN c #000000",
"aO c #000000",
"aP c #000000",
"aQ c #000000",
"aR c #000000",
"aS c #000000",
"aT c #000000",
"aU c #000000",
"aV c #000000",
"aW c #000000",
"aX c #000000",
"aY c #000000",
"aZ c #000000",
"a0 c #000000",
"a1 c #000000",
"a2 c #000000",
"a3 c #000000",
"a4 c #000000",
"a5 c #000000",
"a6 c #000000",
"a7 c #000000",
"a8 c #000000",
/* pixels */
"````````````````````````````````````````````````",
"````````````````````````````````````````````````",
"````````````````````````````````````````````````",
"````````````````````````````````````````````````",
"`````````````.`#`a`b`c`d`e``````````````````````",
"```````````f`g`h`i`j`k`l`g`c`m``````````````````",
"`````````n`o`p`q`r`s`s`k`t`h`u`v````````````````",
"```````w`x`i`k`y`z`A`B`C`D`E`h`F`G``````````````",
"`````H`I`s`t`J`i`K`L`G`M`N`O`P`Q`R`S`T``````````",
"`````U`V`n`W`X```````````````````````Y`a````````",
"`````Z`0`E`A`H`````````S`1`y`J`2`3`C`4`5`6`7````",
"`````8`Z`a`g``````````.`..`x.#`2`B.a.b.c.d.e````",
"````.f`b`D`y.g````````.h.i.j.k.l.d.m.d.d.n.o````",
"`````p`u`o.p.q``````````````````````.r.s`m``````",
"````.t.u...v`4.w``````.x.y.z.u.u.A.B.#.C````````",
"````.D`x.E.F.G.H.I.q.J.K.L`C`B.M.N``.O``````````",
"```````..P.G.n.s.Q.z.P.R`A`5.S.T````````````````",
"````````.U`Q.V`C.W`3`I`Q.X`C`f``````````````````",
"``````````.Y`f`J.n.Z.a.0.1.2````````````````````",
"``````````````.x.3`v.4.5````````````````````````",
"````````````````````````````````````````````````",
"````````````````````````````````````````````````",
"````````````````````````````````````````````````",
"````````````````````````````````````````````````"
};
