/* XPM */
static char *FileOpen_xpm[] = {
/* width height num_colors chars_per_pixel */
"    24    24      256            2",
/* colors */
"`` c none",
"`. c #e1e6ed",
"`# c #546c8b",
"`a c #8fa3bb",
"`b c #d3dbe5",
"`c c #95a8bf",
"`d c #fefefe",
"`e c #b6c2d3",
"`f c #41546b",
"`g c #445870",
"`h c #6d87a7",
"`i c #ebeff3",
"`j c #b4c1d2",
"`k c #eef1f4",
"`l c #fbfbfb",
"`m c #e6eaf0",
"`n c #f4f6f8",
"`o c #6883a4",
"`p c #4e6481",
"`q c #526a88",
"`r c #455a73",
"`s c #bbc7d6",
"`t c #f0f3f6",
"`u c #f3f5f7",
"`v c #fafafa",
"`w c #dbe1e9",
"`x c #ecf0f4",
"`y c #455972",
"`z c #516987",
"`A c #4f6683",
"`B c #536b89",
"`C c #495e79",
"`D c #a3b3c7",
"`E c #fdfdfd",
"`F c #d5dce5",
"`G c #c8d2de",
"`H c #40536a",
"`I c #506784",
"`J c #42566e",
"`K c #8ea2bb",
"`L c #f5f7f9",
"`M c #aebcce",
"`N c #6a84a5",
"`O c #4d637f",
"`P c #4b607c",
"`Q c #3a4b60",
"`R c #9badc3",
"`S c #d1d9e3",
"`T c #465b74",
"`U c #556e8d",
"`V c #485d77",
"`W c #3c4e64",
"`X c #e9edf1",
"`Y c #e2e7ee",
"`Z c #b3c0d1",
"`0 c #d2dae4",
"`1 c #627ea0",
"`2 c #516886",
"`3 c #313f51",
"`4 c #d0d8e2",
"`5 c #e0e5ec",
"`6 c #8298b4",
"`7 c #3e5066",
"`8 c #6782a3",
".` c #617da0",
".. c #475c75",
".# c #ced7e2",
".a c #dde3eb",
".b c #a4b4c8",
".c c #d7dee7",
".d c #181f28",
".e c #6580a2",
".f c #4a5f7a",
".g c #ccd5e0",
".h c #f1f4f7",
".i c #f8f8f8",
".j c #7c93b0",
".k c #202934",
".l c #5f7b9d",
".m c #546d8c",
".n c #4c627e",
".o c #303e50",
".p c #99abc1",
".q c #c1ccd9",
".r c #283442",
".s c #5d799b",
".t c #5e7a9c",
".u c #a8b7ca",
".v c #cbd4df",
".w c #becad8",
".x c #e7ecf1",
".y c #8096b2",
".z c #5d789a",
".A c #3c4d63",
".B c #394a5f",
".C c #acbacd",
".D c #afbdcf",
".E c #c4cfdc",
".F c #a0b1c6",
".G c #879cb7",
".H c #334154",
".I c #5b7697",
".J c #2a3746",
".K c #4e6582",
".L c #8499b5",
".M c #577191",
".N c #8ca1ba",
".O c #344356",
".P c #587292",
".Q c #566f8e",
".R c #212b37",
".S c #637fa1",
".T c #c9d3df",
".U c #94a7be",
".V c #324052",
".W c #5c7798",
".X c #26313e",
".Y c #6c86a6",
".Z c #2c3848",
".0 c #36465a",
".1 c #577090",
".2 c #273341",
".3 c #192029",
".4 c #334255",
".5 c #c7d1dd",
".6 c #151b23",
".7 c #000000",
".8 c #000000",
"#` c #000000",
"#. c #000000",
"## c #000000",
"#a c #000000",
"#b c #000000",
"#c c #000000",
"#d c #000000",
"#e c #000000",
"#f c #000000",
"#g c #000000",
"#h c #000000",
"#i c #000000",
"#j c #000000",
"#k c #000000",
"#l c #000000",
"#m c #000000",
"#n c #000000",
"#o c #000000",
"#p c #000000",
"#q c #000000",
"#r c #000000",
"#s c #000000",
"#t c #000000",
"#u c #000000",
"#v c #000000",
"#w c #000000",
"#x c #000000",
"#y c #000000",
"#z c #000000",
"#A c #000000",
"#B c #000000",
"#C c #000000",
"#D c #000000",
"#E c #000000",
"#F c #000000",
"#G c #000000",
"#H c #000000",
"#I c #000000",
"#J c #000000",
"#K c #000000",
"#L c #000000",
"#M c #000000",
"#N c #000000",
"#O c #000000",
"#P c #000000",
"#Q c #000000",
"#R c #000000",
"#S c #000000",
"#T c #000000",
"#U c #000000",
"#V c #000000",
"#W c #000000",
"#X c #000000",
"#Y c #000000",
"#Z c #000000",
"#0 c #000000",
"#1 c #000000",
"#2 c #000000",
"#3 c #000000",
"#4 c #000000",
"#5 c #000000",
"#6 c #000000",
"#7 c #000000",
"#8 c #000000",
"a` c #000000",
"a. c #000000",
"a# c #000000",
"aa c #000000",
"ab c #000000",
"ac c #000000",
"ad c #000000",
"ae c #000000",
"af c #000000",
"ag c #000000",
"ah c #000000",
"ai c #000000",
"aj c #000000",
"ak c #000000",
"al c #000000",
"am c #000000",
"an c #000000",
"ao c #000000",
"ap c #000000",
"aq c #000000",
"ar c #000000",
"as c #000000",
"at c #000000",
"au c #000000",
"av c #000000",
"aw c #000000",
"ax c #000000",
"ay c #000000",
"az c #000000",
"aA c #000000",
"aB c #000000",
"aC c #000000",
"aD c #000000",
"aE c #000000",
"aF c #000000",
"aG c #000000",
"aH c #000000",
"aI c #000000",
"aJ c #000000",
"aK c #000000",
"aL c #000000",
"aM c #000000",
"aN c #000000",
"aO c #000000",
"aP c #000000",
"aQ c #000000",
"aR c #000000",
"aS c #000000",
"aT c #000000",
"aU c #000000",
"aV c #000000",
"aW c #000000",
"aX c #000000",
"aY c #000000",
"aZ c #000000",
"a0 c #000000",
"a1 c #000000",
"a2 c #000000",
"a3 c #000000",
"a4 c #000000",
"a5 c #000000",
"a6 c #000000",
"a7 c #000000",
"a8 c #000000",
/* pixels */
"````````````````````````````````````````````````",
"````````````````````````````````````````````````",
"`````````.`#`a```````b`c`d``````````````````````",
"`````````e`f`g`h`i`j`k`l`h`m````````````````````",
"```````n`o`p`q`r`r`s`t`u`v`a`w``````````````````",
"```````x`y`z`A`B`r`C`D`k`n`E`D`F````````````````",
"```````G`H`z`I`I`B`r`J`K`n`L`u`M`b``````````````",
"```````N`O`I`A`A`A`z`P`Q`R`i`n`t`j`S````````````",
"```````T`U`A`A`I`I`I`B`V`W`X`Y`L`t`Z`b``````````",
"`````0`O`1`B`A`A`A`I`I`2`3`4`5`.`n`n`M`0````````",
"`````6`7`8.``B`I`A`A`A`I`V...#.a`Y`u`E.b.c``````",
"`````G.d`y.e.``#`A`2`A`2`2`V.f.g.c`..h.i`K`x````",
"``````.j.k`H.l.`.m`A`2`2`z.n.o.p`0`b`..i.q`M````",
"````````.j.r`H.s.t`B`A`I`2`P`3.u.q.v`5.w`T.x````",
"``````````.y.o`H.z.s`B`A`q.A.B.C.D.E.F`A`F``````",
"```````````d.G.H`H.I.s.m`#.J.K`R.b.L.M.g````````",
"`````````````E.N.O`7.P.`.Q.R.S.G`8.I.T``````````",
"````````````````.U.V`W.W`q.X.Y.Q.I.g````````````",
"``````````````````.F.Z`H.B.0.K.1`S``````````````",
"`````````````````````M.2.3.4.m`w````````````````",
"``````````````````````.5.6.K.x``````````````````",
"````````````````````````.x`t````````````````````",
"````````````````````````````````````````````````",
"````````````````````````````````````````````````"
};
