/* XPM */
static char *HelpAbout_xpm[] = {
/* width height num_colors chars_per_pixel */
"    24    24      256            2",
/* colors */
"`` c none",
"`. c #f8f9fa",
"`# c #cbd4e0",
"`a c #a3b3c7",
"`b c #8fa3ba",
"`c c #92a4bb",
"`d c #abb9ca",
"`e c #dbe0e6",
"`f c #cad3df",
"`g c #738bab",
"`h c #5c7799",
"`i c #5a7596",
"`j c #5b7596",
"`k c #5b7697",
"`l c #5d789a",
"`m c #8497b0",
"`n c #e5e8ec",
"`o c #b4c1d1",
"`p c #5f7a9d",
"`q c #5a7595",
"`r c #a4b4c8",
"`s c #8298b3",
"`t c #67809f",
"`u c #dadfe5",
"`v c #637fa1",
"`w c #fdfdfe",
"`x c #c9d3df",
"`y c #5d799b",
"`z c #5e7a9c",
"`A c #5f7b9d",
"`B c #6d85a3",
"`C c #eef0f2",
"`D c #5b7698",
"`E c #7b93b0",
"`F c #6c86a6",
"`G c #5f7b9e",
"`H c #607c9f",
"`I c #627da0",
"`J c #627ea0",
"`K c #9dadbf",
"`L c #bfcbd9",
"`M c #c0cbd9",
"`N c #aab9cc",
"`O c #5e799b",
"`P c #6781a1",
"`Q c #f4f5f5",
"`R c #5a7495",
"`S c #5c7698",
"`T c #98aac1",
"`U c #c4e1ff",
"`V c #d9e0e8",
"`W c #617da0",
"`X c #d3d8df",
"`Y c #90a3bb",
"`Z c #56708f",
"`0 c #526a88",
"`1 c #546d8c",
"`2 c #6b85a6",
"`3 c #dae1e9",
"`4 c #6681a3",
"`5 c #6883a4",
"`6 c #6a84a5",
"`7 c #6983a4",
"`8 c #c3cdd8",
".` c #526987",
".. c #506784",
".# c #536c8a",
".a c #577090",
".b c #7089a9",
".c c #dce2ea",
".d c #6e87a7",
".e c #718aaa",
".f c #738cab",
".g c #738baa",
".h c #c8d1dc",
".i c #506885",
".j c #4e6582",
".k c #516986",
".l c #556e8d",
".m c #597393",
".n c #dee4eb",
".o c #758dac",
".p c #7a92af",
".q c #7d94b0",
".r c #7d94b1",
".s c #dde1e5",
".t c #4f6682",
".u c #4f6683",
".v c #526a89",
".w c #566f8f",
".x c #768eac",
".y c #dfe5ec",
".z c #8399b4",
".A c #879cb7",
".B c #879cb6",
".C c #90a4bd",
".D c #f8f8f8",
".E c #7d8fa5",
".F c #577191",
".G c #788fad",
".H c #8b9fb9",
".I c #90a4bc",
".J c #93a6be",
".K c #c2ccda",
".L c #5d748f",
".M c #546c8b",
".N c #587191",
".O c #d6dde6",
".P c #f5f7f9",
".Q c #c4cedb",
".R c #91a4bd",
".S c #9bacc2",
".T c #abbacd",
".U c #dadee4",
".V c #657a96",
".W c #859bb6",
".X c #8ca0ba",
".Y c #94a7be",
".Z c #acbbcd",
".0 c #f1f2f3",
".1 c #9aa8ba",
".2 c #647d9c",
".3 c #6984a5",
".4 c #7e95b1",
".5 c #91a5bd",
".6 c #c2cdda",
".7 c #d3d9e0",
".8 c #c4cdd8",
"#` c #dde1e6",
"#. c #000000",
"## c #000000",
"#a c #000000",
"#b c #000000",
"#c c #000000",
"#d c #000000",
"#e c #000000",
"#f c #000000",
"#g c #000000",
"#h c #000000",
"#i c #000000",
"#j c #000000",
"#k c #000000",
"#l c #000000",
"#m c #000000",
"#n c #000000",
"#o c #000000",
"#p c #000000",
"#q c #000000",
"#r c #000000",
"#s c #000000",
"#t c #000000",
"#u c #000000",
"#v c #000000",
"#w c #000000",
"#x c #000000",
"#y c #000000",
"#z c #000000",
"#A c #000000",
"#B c #000000",
"#C c #000000",
"#D c #000000",
"#E c #000000",
"#F c #000000",
"#G c #000000",
"#H c #000000",
"#I c #000000",
"#J c #000000",
"#K c #000000",
"#L c #000000",
"#M c #000000",
"#N c #000000",
"#O c #000000",
"#P c #000000",
"#Q c #000000",
"#R c #000000",
"#S c #000000",
"#T c #000000",
"#U c #000000",
"#V c #000000",
"#W c #000000",
"#X c #000000",
"#Y c #000000",
"#Z c #000000",
"#0 c #000000",
"#1 c #000000",
"#2 c #000000",
"#3 c #000000",
"#4 c #000000",
"#5 c #000000",
"#6 c #000000",
"#7 c #000000",
"#8 c #000000",
"a` c #000000",
"a. c #000000",
"a# c #000000",
"aa c #000000",
"ab c #000000",
"ac c #000000",
"ad c #000000",
"ae c #000000",
"af c #000000",
"ag c #000000",
"ah c #000000",
"ai c #000000",
"aj c #000000",
"ak c #000000",
"al c #000000",
"am c #000000",
"an c #000000",
"ao c #000000",
"ap c #000000",
"aq c #000000",
"ar c #000000",
"as c #000000",
"at c #000000",
"au c #000000",
"av c #000000",
"aw c #000000",
"ax c #000000",
"ay c #000000",
"az c #000000",
"aA c #000000",
"aB c #000000",
"aC c #000000",
"aD c #000000",
"aE c #000000",
"aF c #000000",
"aG c #000000",
"aH c #000000",
"aI c #000000",
"aJ c #000000",
"aK c #000000",
"aL c #000000",
"aM c #000000",
"aN c #000000",
"aO c #000000",
"aP c #000000",
"aQ c #000000",
"aR c #000000",
"aS c #000000",
"aT c #000000",
"aU c #000000",
"aV c #000000",
"aW c #000000",
"aX c #000000",
"aY c #000000",
"aZ c #000000",
"a0 c #000000",
"a1 c #000000",
"a2 c #000000",
"a3 c #000000",
"a4 c #000000",
"a5 c #000000",
"a6 c #000000",
"a7 c #000000",
"a8 c #000000",
/* pixels */
"````````````````````````````````````````````````",
"````````````````````````````````````````````````",
"````````````````````````````````````````````````",
"````````````````````````````````````````````````",
"`````````````````.`#`a`b`c`d`e``````````````````",
"```````````````f`g`h`i`j`k`k`l`m`n``````````````",
"`````````````o`p`q`i`k`r`s`h`h`l`t`u````````````",
"```````````f`p`q`i`j`v`w`x`y`z`p`A`B`C``````````",
"`````````.`g`q`i`j`D`h`E`F`G`H`I`J`J`K``````````",
"`````````#`h`i`i`k`G`L`M`N`O`z`A`H`H`P`Q````````",
"`````````a`R`i`k`S`R`T`U`V`l`p`H`W`W`W`X````````",
"`````````Y`i`i`Z`0`1`2`U`3`W`4`5`6`6`7`8````````",
"`````````c`R.`...#.a.b`U.c`7.d.e.f.f.g.h````````",
"`````````d.i.j.k.l.m.g`U.n.b.o.p.q.q.r.s````````",
"`````````u.t.u.v.w`i.x`U.y.x.q.z.A.B.C.D````````",
"``````````.E...#.F`S.G`U.y.p.z.H.I.J.K``````````",
"```````````n.L.M.N`7.O`U.P.Q.A.R.S.T.D``````````",
"````````````.U.V.N`G.W.X.J.Y.A.J.Z.0````````````",
"```````````````C.1.2`W.3.g.4.5.6.D``````````````",
"```````````````````Q.7.8.h#`.D``````````````````",
"````````````````````````````````````````````````",
"````````````````````````````````````````````````",
"````````````````````````````````````````````````",
"````````````````````````````````````````````````"
};
