/* XPM */
static char *ModelerWizardPushover_xpm[] = {
/* width height num_colors chars_per_pixel */
"    74    67      256            2",
/* colors */
"`` c #000000",
"`. c #171717",
"`# c #c1c1c1",
"`a c #bfbfbf",
"`b c #040404",
"`c c #747474",
"`d c #969696",
"`e c #565656",
"`f c #7d7d7d",
"`g c #a6a6a6",
"`h c #0a0a0a",
"`i c #505050",
"`j c #cdcdcd",
"`k c #222222",
"`l c #262626",
"`m c #373737",
"`n c #454545",
"`o c #404040",
"`p c #2d2d2d",
"`q c #a1a1a1",
"`r c #c9c9c9",
"`s c #020202",
"`t c #1a1a1a",
"`u c #464646",
"`v c #191919",
"`w c #525252",
"`x c #2a2a2a",
"`y c #c5c5c5",
"`z c #111111",
"`A c #080808",
"`B c #a3a3a3",
"`C c #393939",
"`D c #151515",
"`E c #0b0b0b",
"`F c #595959",
"`G c #1b1b1b",
"`H c #8b8b8b",
"`I c #141414",
"`J c #2f2f2f",
"`K c #0c0c0c",
"`L c #b4b4b4",
"`M c #4c4c4c",
"`N c #060606",
"`O c #3f3f3f",
"`P c #555555",
"`Q c #484848",
"`R c #272727",
"`S c #b0b0b0",
"`T c #353535",
"`U c #363636",
"`V c #b9b9b9",
"`W c #3a3a3a",
"`X c #a4a4a4",
"`Y c #1e1e1e",
"`Z c #424242",
"`0 c #070707",
"`1 c #5d5d5d",
"`2 c #161616",
"`3 c #0e0e0e",
"`4 c #252525",
"`5 c #a8a8a8",
"`6 c #575757",
"`7 c #696969",
"`8 c #2c2c2c",
".` c #ababab",
".. c #bdbdbd",
".# c #bababa",
".a c #b2b2b2",
".b c #a7a7a7",
".c c #b6b6b6",
".d c #b3b3b3",
".e c #474747",
".f c #828282",
".g c #202020",
".h c #232323",
".i c #626262",
".j c #787878",
".k c #6d6d6d",
".l c #bbbbbb",
".m c #bebebe",
".n c #313131",
".o c #a2a2a2",
".p c #050505",
".q c #686868",
".r c #090909",
".s c #707070",
".t c #757575",
".u c #585858",
".v c #292929",
".w c #030303",
".x c #c4c4c4",
".y c #818181",
".z c #303030",
".A c #c2c2c2",
".B c #636363",
".C c #b8b8b8",
".D c #0d0d0d",
".E c #5e5e5e",
".F c #4b4b4b",
".G c #9c9c9c",
".H c #6b6b6b",
".I c #7b7b7b",
".J c #737373",
".K c #717171",
".L c #777777",
".M c #6a6a6a",
".N c #878787",
".O c #3b3b3b",
".P c #afafaf",
".Q c #2e2e2e",
".R c #979797",
".S c #383838",
".T c #323232",
".U c #888888",
".V c #9b9b9b",
".W c #545454",
".X c #1c1c1c",
".Y c #131313",
".Z c #010101",
".0 c #000000",
".1 c #000000",
".2 c #000000",
".3 c #000000",
".4 c #000000",
".5 c #000000",
".6 c #000000",
".7 c #000000",
".8 c #000000",
"#` c #000000",
"#. c #000000",
"## c #000000",
"#a c #000000",
"#b c #000000",
"#c c #000000",
"#d c #000000",
"#e c #000000",
"#f c #000000",
"#g c #000000",
"#h c #000000",
"#i c #000000",
"#j c #000000",
"#k c #000000",
"#l c #000000",
"#m c #000000",
"#n c #000000",
"#o c #000000",
"#p c #000000",
"#q c #000000",
"#r c #000000",
"#s c #000000",
"#t c #000000",
"#u c #000000",
"#v c #000000",
"#w c #000000",
"#x c #000000",
"#y c #000000",
"#z c #000000",
"#A c #000000",
"#B c #000000",
"#C c #000000",
"#D c #000000",
"#E c #000000",
"#F c #000000",
"#G c #000000",
"#H c #000000",
"#I c #000000",
"#J c #000000",
"#K c #000000",
"#L c #000000",
"#M c #000000",
"#N c #000000",
"#O c #000000",
"#P c #000000",
"#Q c #000000",
"#R c #000000",
"#S c #000000",
"#T c #000000",
"#U c #000000",
"#V c #000000",
"#W c #000000",
"#X c #000000",
"#Y c #000000",
"#Z c #000000",
"#0 c #000000",
"#1 c #000000",
"#2 c #000000",
"#3 c #000000",
"#4 c #000000",
"#5 c #000000",
"#6 c #000000",
"#7 c #000000",
"#8 c #000000",
"a` c #000000",
"a. c #000000",
"a# c #000000",
"aa c #000000",
"ab c #000000",
"ac c #000000",
"ad c #000000",
"ae c #000000",
"af c #000000",
"ag c #000000",
"ah c #000000",
"ai c #000000",
"aj c #000000",
"ak c #000000",
"al c #000000",
"am c #000000",
"an c #000000",
"ao c #000000",
"ap c #000000",
"aq c #000000",
"ar c #000000",
"as c #000000",
"at c #000000",
"au c #000000",
"av c #000000",
"aw c #000000",
"ax c #000000",
"ay c #000000",
"az c #000000",
"aA c #000000",
"aB c #000000",
"aC c #000000",
"aD c #000000",
"aE c #000000",
"aF c #000000",
"aG c #000000",
"aH c #000000",
"aI c #000000",
"aJ c #000000",
"aK c #000000",
"aL c #000000",
"aM c #000000",
"aN c #000000",
"aO c #000000",
"aP c #000000",
"aQ c #000000",
"aR c #000000",
"aS c #000000",
"aT c #000000",
"aU c #000000",
"aV c #000000",
"aW c #000000",
"aX c #000000",
"aY c #000000",
"aZ c #000000",
"a0 c #000000",
"a1 c #000000",
"a2 c #000000",
"a3 c #000000",
"a4 c #000000",
"a5 c #000000",
"a6 c #000000",
"a7 c #000000",
"a8 c #000000",
/* pixels */
"````````````````````````````````````````````````````````````````````````````````````````````````````````````````````````````````````````````````````",
"````````````````````````````````````````````````````````````````````````````````````````````````````````````````````````````````````````````````````",
"````````````````````````````````````````````````````````````````````````````````````````````````````````````````````````````````````````````````````",
"````````````````````````````````````````````````````````````````````````````````````````````````````````````````````````````````````````````````````",
"````````````````````````````````````````````````````````````````````````````````````````````````````````````````````````````````````````````````````",
"````````````````````````````````````````````````````````````````````````````````````````````````````````````````````````````````````````````````````",
"```````````````````````````````````````````````````````````````````````````````````.`#`a`b``````````````````````````````````````````````````````````",
"```````````````````````````````````````````````````````````````````````````````````c`#`d`e``````````````````````````````````````````````````````````",
"```````````````````````````````````````````````````````````````````````````````````#`b`f`g`h````````````````````````````````````````````````````````",
"`````````````````````````````````````````````````````````````````````````````````i`#`````j`.````````````````````````````````````````````````````````",
"`````````````````````````````````k`l`m`n`o`p`````````````````````````````````````#```````q`r`s``````````````````````````````````````````````````````",
"`````````````````````````````````t`#`u```v`#`w`````````````````````````````````x`#`#`#`#`y`#`z``````````````````````````````````````````````````````",
"`````````````````````````````````A`B`p```````C```````````````````````#`````````````````````````````````#`D``````````````````````````````````````````",
"`````````````````````````````````E`#`F`G`H`I`````````````````````````#`#`#`#`#`#`#`#`#`#`#`#`#`#`#`#`#`#`J``````````````````````````````````````````",
"`````````````````````````````````K`L`M`N`#`l`````````````````````````#`#`#`O`e`P`P`P`P`P`P`P`P`e`Q`#`#`#`R``````````````````````````````````````````",
"`````````````````````````````````K`S`T`````E`````````````````````````#`````````````````````````````````L`U``````````````````````````````````````````",
"`````````````````````````````````E`V`W```````````````````````````````#`````````````````````````````````X`k``````````````````````````````````````````",
"`````````````````````````````````Y`#`Z```````````E`0```````````````G`1`2`````````````````````````````3`O`Y``````````````````````````````````````````",
"```````````````````````````````````A`````````````4`5`f`P`t```````6`#`#`#`7`````````````````````````8`#`#`#.`````````````````````````````````````````",
"````````````````````````````...#.a.b`S.c.c.c`#.d`#`#`#`#`#`r`#`B`#`#`#`#`#.e`````````````````````v`#`#`#`#`#.f``````````````````````````````````````",
"````````````````````````````.g.h.g`k`k`k`k`k`k`3`1`#`#`#`#`#.i.j`#`#`#`#`#.k`````````````````````J`#`#`#`#`#.l``````````````````````````````````````",
"`````````````````````````````````````````````````o.m.`.n`````````5`#`#`#.o.p```````````````````````1`#`#`#`#````````````````````````````````````````",
"`````````````````````````````````````````````````0````````````````.q`#`6.r```````````````````````W`d.k.s.t`I````````````````````````````````````````",
"`````````````````````````````````````````````````````````````````````#````````````````````````.u`#.v````````````````````````````````````````````````",
"`````````````````````````````````````````````````````````````````````#`````````````````````````#`E``````````````````````````````````````````````````",
"`````````````````````````````````````````````````````````````````````#```````````````````````#``````````````````````````````````````````````````````",
"`````````````````````````````````````````````````````````````````````#``````````````````.p`#````````````````````````````````````````````````````````",
"`````````````````````````````````````````````````````````````````````#````````````````.w.x`n````````````````````````````````````````````````````````",
"`````````````````````````````````````````````````````````````````````#```````````````3.y`#``````````````````````````````````````````````````````````",
"`````````````````````````````````````````````````````````````````````#``````````````.z.A````````````````````````````````````````````````````````````",
"`````````````````````````````````````````````````````````````````````#`````````````v`#``````````````````````````````````````````````````````````````",
"`````````````````````````````````````````````````````````````````````#`````````````n`g``````````````````````````````````````````````````````````````",
"`````````````````````````````````````````````````````````````````````#`````````````#````````````````````````````````````````````````````````````````",
"`````````````````````````````````````````````````````````````````````#``````````.c.B````````````````````````````````````````````````````````````````",
"`````````````````````````````````````````````````````````````````````#`````````z`#``````````````````````````````````````````````````````````````````",
"`````````````````````````````````````````````````````````````````````#````````.C.D``````````````````````````````````````````````````````````````````",
"`````````````````````````````````````````````````````````````````````#`````````#````````````````````````````````````````````````````````````````````",
"`````````````````````````````````````````````````````````````````````#```````#`h````````````````````````````````````````````````````````````````````",
"`````````````````````````````````````````````````````````````````````#`````b`#`I````````````````````````````````````````````````````````````````````",
"`````````````````````````````````````````````````````````````````````#`````P.E`s````````````````````````````````````````````````````````````````````",
"`````````````````````````````````````````````````````````````````````#`````5.F``````````````````````````````````````````````````````````````````````",
"`````````````````````````````````````````````````````````````````````#````.G`Q``````````````````````````````````````````````````````````````````````",
"`````````````````````````````````````````````````````````````````````#``.F.H`b``````````````````````````````````````````````````````````````````````",
"`````````````````````````````````````````````````````````````````````#``.I.J````````````````````````````````````````````````````````````````````````",
"`````````````````````````````````````````````````````````````````````#``.K.L````````````````````````````````````````````````````````````````````````",
"`````````````````````````````````````````````````````````````````````#``.M.u````````````````````````````````````````````````````````````````````````",
"`````````````````````````````````````````````````````````````````````#`G.N``````````````````````````````````````````````````````````````````````````",
"`````````````````````````````````````````````````````````````````````#.O.P``````````````````````````````````````````````````````````````````````````",
"`````````````````````````````````````````````````````````````````````#.Q.R``````````````````````````````````````````````````````````````````````````",
"`````````````````````````````````````````````````````````````````````#.S.B``````````````````````````````````````````````````````````````````````````",
"`````````````````````````````````````````````````````````````````````#`P.T``````````````````````````````````````````````````````````````````````````",
"`````````````````````````````````````````````````````````````````````#.U````````````````````````````````````````````````````````````````````````````",
"`````````````````````````````````````````````````````````````````````#.P````````````````````````````````````````````````````````````````````````````",
"`````````````````````````````````````````````````````````````````````#.V````````````````````````````````````````````````````````````````````````````",
"`````````````````````````````````````````````````````````````````````#.i````````````````````````````````````````````````````````````````````````````",
"`````````````````````````````````````````````````````````````````````#`4````````````````````````````````````````````````````````````````````````````",
"`````````````````````````````````````````````````````````````````````#``````````````````````````````````````````````````````````````````````````````",
"```````````````````````````````````````````````````D`#`#`#`#`#`#`#`#`#`#`#`#`#`#`#`#.H``````````````````````````````````````````````````````````````",
"``````````````````````````````````````````````````.W.X`b```````````J```2````.Y``.n``````````````````````````````````````````````````````````````````",
"``````````````````````````````````````````````````````````````````````````````.Z````````````````````````````````````````````````````````````````````",
"````````````````````````````````````````````````````````````````````````````````````````````````````````````````````````````````````````````````````",
"````````````````````````````````````````````````````````````````````````````````````````````````````````````````````````````````````````````````````",
"````````````````````````````````````````````````````````````````````````````````````````````````````````````````````````````````````````````````````",
"````````````````````````````````````````````````````````````````````````````````````````````````````````````````````````````````````````````````````",
"````````````````````````````````````````````````````````````````````````````````````````````````````````````````````````````````````````````````````",
"````````````````````````````````````````````````````````````````````````````````````````````````````````````````````````````````````````````````````",
"````````````````````````````````````````````````````````````````````````````````````````````````````````````````````````````````````````````````````"
};
