/* XPM */
static char *OptionsColors_xpm[] = {
/* width height num_colors chars_per_pixel */
"    24    24      256            2",
/* colors */
"`` c none",
"`. c #24627a",
"`# c #274d59",
"`a c #274e5b",
"`b c #346387",
"`c c #3a5237",
"`d c #375037",
"`e c #375038",
"`f c #385035",
"`g c #375852",
"`h c #36596a",
"`i c #394130",
"`j c #374335",
"`k c #39412d",
"`l c #2c5773",
"`m c #49707b",
"`n c #b9dee9",
"`o c #afd4de",
"`p c #bde3ee",
"`q c #15274a",
"`r c #ffe10f",
"`s c #ffe513",
"`t c #ffe313",
"`u c #ffea11",
"`v c #baa720",
"`w c #6c4623",
"`x c #ff9a00",
"`y c #ff9300",
"`z c #ff9d00",
"`A c #262421",
"`B c #466d7a",
"`C c #add0db",
"`D c #a4c6d1",
"`E c #b1d5e0",
"`F c #17294e",
"`G c #f9d312",
"`H c #f9d516",
"`I c #f7d417",
"`J c #ffda15",
"`K c #ae9f25",
"`L c #67462a",
"`M c #ff9102",
"`N c #f98b06",
"`O c #ff9400",
"`P c #262728",
"`Q c #48707b",
"`R c #b7dde8",
"`S c #aed2dd",
"`T c #bbe2ec",
"`U c #ffdf0f",
"`V c #ffe113",
"`W c #ffe812",
"`X c #b9a621",
"`Y c #6c4624",
"`Z c #ff9900",
"`0 c #ff9201",
"`1 c #ff9c00",
"`2 c #262422",
"`3 c #346078",
"`4 c #3a5868",
"`5 c #395768",
"`6 c #3b5968",
"`7 c #415a7e",
"`8 c #5b5a23",
".` c #585922",
".. c #585822",
".# c #5a5920",
".a c #525b40",
".b c #4b5158",
".c c #5c3f16",
".d c #59401b",
".e c #5d3f13",
".f c #3c4e64",
".g c #514546",
".h c #b44c32",
".i c #ab4b33",
".j c #b74c31",
".k c #32393f",
".l c #7066c4",
".m c #7265c3",
".n c #7165c2",
".o c #7467c6",
".p c #5a5599",
".q c #43567d",
".r c #7387e3",
".s c #6f83da",
".t c #7589e7",
".u c #26354d",
".v c #5a413b",
".w c #e25d38",
".x c #d65a38",
".y c #e85e38",
".z c #272927",
".A c #8f7ce7",
".B c #927de5",
".C c #917ce4",
".D c #957fea",
".E c #6b5fa8",
".F c #45557c",
".G c #95a6ff",
".H c #8e9eff",
".I c #98a9ff",
".J c #1d283b",
".K c #58413d",
".L c #dd5c38",
".M c #d15939",
".N c #272b29",
".O c #8c7ae3",
".P c #8f7ae0",
".Q c #8e7adf",
".R c #6a5ea5",
".S c #45547b",
".T c #92a2ff",
".U c #8b9bfc",
".V c #1d293c",
".W c #59413c",
".X c #e15c38",
".Y c #d45938",
".Z c #e65e38",
".0 c #272a28",
".1 c #8e7ce6",
".2 c #917ce3",
".3 c #907be2",
".4 c #947ee9",
".5 c #6b5ea7",
".6 c #45547c",
".7 c #94a4ff",
".8 c #8d9dff",
"#` c #97a8ff",
"#. c #574443",
"## c #cd5438",
"#a c #c35239",
"#b c #d15537",
"#c c #2f3336",
"#d c #8270d1",
"#e c #8571d0",
"#f c #8570cf",
"#g c #8872d4",
"#h c #655a9e",
"#i c #45557b",
"#j c #8593f1",
"#k c #7f8de6",
"#l c #8796f5",
"#m c #232f45",
"#n c #265a6d",
"#o c #0c3a3a",
"#p c #0f3c3e",
"#q c #0b3a38",
"#r c #4b6180",
"#s c #1d3e3c",
"#t c #1b3c39",
"#u c #1a3b38",
"#v c #2b4950",
"#w c #42576e",
"#x c #2c3e49",
"#y c #2c3e4a",
"#z c #2b3e49",
"#A c #3e536f",
"#B c #09553d",
"#C c #0d9642",
"#D c #0f9042",
"#E c #0d9942",
"#F c #1f282f",
"#G c #2da38d",
"#H c #2da68d",
"#I c #2da58c",
"#J c #2ea98f",
"#K c #24796a",
"#L c #4c6081",
"#M c #98d2ff",
"#N c #91c8ff",
"#O c #9bd6ff",
"#P c #1a2838",
"#Q c #0c5441",
"#R c #0f8e42",
"#S c #118842",
"#T c #0e9142",
"#U c #222b35",
"#V c #2d9b87",
"#W c #2d9c86",
"#X c #2d9b86",
"#Y c #2d9f89",
"#Z c #257467",
"#0 c #4b5e7e",
"#1 c #8fc5fd",
"#2 c #88bbf0",
"#3 c #92c9ff",
"#4 c #1c2b3b",
"#5 c #0a553d",
"#6 c #0d9542",
"#7 c #0f8f42",
"#8 c #0d9842",
"a` c #1f2830",
"a. c #2da28c",
"a# c #2da38c",
"aa c #2ea88f",
"ab c #247869",
"ac c #4c6080",
"ad c #97d0ff",
"ae c #90c6fe",
"af c #9ad5ff",
"ag c #1b2938",
"ah c #1d4d5a",
"ai c #0f3b2d",
"aj c #123c30",
"ak c #0e3b2b",
"al c #3c4e69",
"am c #1b4346",
"an c #1a4144",
"ao c #194143",
"ap c #244650",
"aq c #3b4f6a",
"ar c #354b64",
"as c #354b63",
"at c #354c64",
"au c #2e435f",
"av c #000000",
"aw c #000000",
"ax c #000000",
"ay c #000000",
"az c #000000",
"aA c #000000",
"aB c #000000",
"aC c #000000",
"aD c #000000",
"aE c #000000",
"aF c #000000",
"aG c #000000",
"aH c #000000",
"aI c #000000",
"aJ c #000000",
"aK c #000000",
"aL c #000000",
"aM c #000000",
"aN c #000000",
"aO c #000000",
"aP c #000000",
"aQ c #000000",
"aR c #000000",
"aS c #000000",
"aT c #000000",
"aU c #000000",
"aV c #000000",
"aW c #000000",
"aX c #000000",
"aY c #000000",
"aZ c #000000",
"a0 c #000000",
"a1 c #000000",
"a2 c #000000",
"a3 c #000000",
"a4 c #000000",
"a5 c #000000",
"a6 c #000000",
"a7 c #000000",
"a8 c #000000",
/* pixels */
"````````````````````````````````````````````````",
"````````````````````````````````````````````````",
"````````````````````````````````````````````````",
"```````````````.`#`a`a`#`b`c`d`e`f`g`h`i`j`j`k`l",
"```````````````m`n`o`o`p`q`r`s`t`u`v`w`x`y`y`z`A",
"```````````````B`C`D`D`E`F`G`H`I`J`K`L`M`N`N`O`P",
"```````````````B`C`D`D`E`F`G`H`I`J`K`L`M`N`N`O`P",
"```````````````Q`R`S`S`T`q`U`t`V`W`X`Y`Z`0`0`1`2",
"```````````````3`4`5`5`6`7`8.`...#.a.b.c.d.d.e.f",
"``````````````.g.h.i.i.j.k.l.m.n.o.p.q.r.s.s.t.u",
"``````````````.v.w.x.x.y.z.A.B.C.D.E.F.G.H.H.I.J",
"``````````````.K.L.M.M.w.N.O.P.Q.B.R.S.T.U.U.G.V",
"``````````````.W.X.Y.Y.Z.0.1.2.3.4.5.6.7.8.8#`.J",
"``````````````#.###a#a#b#c#d#e#f#g#h#i#j#k#k#l#m",
"``````````````#n#o#p#p#q#r#s#t#t#u#v#w#x#y#y#z#A",
"``````````````#B#C#D#D#E#F#G#H#I#J#K#L#M#N#N#O#P",
"``````````````#Q#R#S#S#T#U#V#W#X#Y#Z#0#1#2#2#3#4",
"``````````````#Q#R#S#S#T#U#V#W#X#Y#Z#0#1#2#2#3#4",
"``````````````#5#6#7#7#8a`a.#Ia#aaabacadaeaeafag",
"``````````````ahaiajajakalamananaoapaqarasasatau",
"````````````````````````````````````````````````",
"````````````````````````````````````````````````",
"````````````````````````````````````````````````",
"````````````````````````````````````````````````"
};
