/* XPM */
static char *ViewXY_xpm[] = {
/* width height num_colors chars_per_pixel */
"    24    24      256            2",
/* colors */
"`` c none",
"`. c #d8dbdc",
"`# c #b8bec2",
"`a c #dfe2e2",
"`b c #c0c5c9",
"`c c #d0d3d5",
"`d c #cfd3d4",
"`e c #bdc2c9",
"`f c #ccd0d2",
"`g c #b6bcc1",
"`h c #c9cdcf",
"`i c #072232",
"`j c #0c2636",
"`k c #354958",
"`l c #00182a",
"`m c #a0a9ae",
"`n c #7a8790",
"`o c #001729",
"`p c #b4babf",
"`q c #001325",
"`r c #172e3f",
"`s c #8b969d",
"`t c #001b2c",
"`u c #4c5f6a",
"`v c #849098",
"`w c #051f30",
"`x c #707e87",
"`y c #dbddde",
"`z c #021c2d",
"`A c #5d6e78",
"`B c #f8f8f8",
"`C c #a5adb2",
"`D c #001829",
"`E c #75838c",
"`F c #5e6f79",
"`G c #092233",
"`H c #0a2434",
"`I c #3f5360",
"`J c #2a3f4f",
"`K c #072132",
"`L c #60717a",
"`M c #011b2c",
"`N c #d3d7d8",
"`O c #cdd1d4",
"`P c #0c2535",
"`Q c #aeb5ba",
"`R c #86929a",
"`S c #0a2334",
"`T c #9ca5ab",
"`U c #082232",
"`V c #273c4c",
"`W c #3a4e5c",
"`X c #2c4150",
"`Y c #1d3544",
"`Z c #808d95",
"`0 c #667580",
"`1 c #828e96",
"`2 c #96a0a6",
"`3 c #031d2e",
"`4 c #5c6d77",
"`5 c #3e5260",
"`6 c #062030",
"`7 c #939ea4",
"`8 c #001123",
".` c #304554",
".. c #334856",
".# c #a1aaaf",
".a c #f7f7f7",
".b c #384c5a",
".c c #c6cbcd",
".d c #b8bec3",
".e c #d2d5d7",
".f c #929ca3",
".g c #001a2c",
".h c #8e99a0",
".i c #0d2737",
".j c #001527",
".k c #001022",
".l c #97a1a7",
".m c #000000",
".n c #000000",
".o c #000000",
".p c #000000",
".q c #000000",
".r c #000000",
".s c #000000",
".t c #000000",
".u c #000000",
".v c #000000",
".w c #000000",
".x c #000000",
".y c #000000",
".z c #000000",
".A c #000000",
".B c #000000",
".C c #000000",
".D c #000000",
".E c #000000",
".F c #000000",
".G c #000000",
".H c #000000",
".I c #000000",
".J c #000000",
".K c #000000",
".L c #000000",
".M c #000000",
".N c #000000",
".O c #000000",
".P c #000000",
".Q c #000000",
".R c #000000",
".S c #000000",
".T c #000000",
".U c #000000",
".V c #000000",
".W c #000000",
".X c #000000",
".Y c #000000",
".Z c #000000",
".0 c #000000",
".1 c #000000",
".2 c #000000",
".3 c #000000",
".4 c #000000",
".5 c #000000",
".6 c #000000",
".7 c #000000",
".8 c #000000",
"#` c #000000",
"#. c #000000",
"## c #000000",
"#a c #000000",
"#b c #000000",
"#c c #000000",
"#d c #000000",
"#e c #000000",
"#f c #000000",
"#g c #000000",
"#h c #000000",
"#i c #000000",
"#j c #000000",
"#k c #000000",
"#l c #000000",
"#m c #000000",
"#n c #000000",
"#o c #000000",
"#p c #000000",
"#q c #000000",
"#r c #000000",
"#s c #000000",
"#t c #000000",
"#u c #000000",
"#v c #000000",
"#w c #000000",
"#x c #000000",
"#y c #000000",
"#z c #000000",
"#A c #000000",
"#B c #000000",
"#C c #000000",
"#D c #000000",
"#E c #000000",
"#F c #000000",
"#G c #000000",
"#H c #000000",
"#I c #000000",
"#J c #000000",
"#K c #000000",
"#L c #000000",
"#M c #000000",
"#N c #000000",
"#O c #000000",
"#P c #000000",
"#Q c #000000",
"#R c #000000",
"#S c #000000",
"#T c #000000",
"#U c #000000",
"#V c #000000",
"#W c #000000",
"#X c #000000",
"#Y c #000000",
"#Z c #000000",
"#0 c #000000",
"#1 c #000000",
"#2 c #000000",
"#3 c #000000",
"#4 c #000000",
"#5 c #000000",
"#6 c #000000",
"#7 c #000000",
"#8 c #000000",
"a` c #000000",
"a. c #000000",
"a# c #000000",
"aa c #000000",
"ab c #000000",
"ac c #000000",
"ad c #000000",
"ae c #000000",
"af c #000000",
"ag c #000000",
"ah c #000000",
"ai c #000000",
"aj c #000000",
"ak c #000000",
"al c #000000",
"am c #000000",
"an c #000000",
"ao c #000000",
"ap c #000000",
"aq c #000000",
"ar c #000000",
"as c #000000",
"at c #000000",
"au c #000000",
"av c #000000",
"aw c #000000",
"ax c #000000",
"ay c #000000",
"az c #000000",
"aA c #000000",
"aB c #000000",
"aC c #000000",
"aD c #000000",
"aE c #000000",
"aF c #000000",
"aG c #000000",
"aH c #000000",
"aI c #000000",
"aJ c #000000",
"aK c #000000",
"aL c #000000",
"aM c #000000",
"aN c #000000",
"aO c #000000",
"aP c #000000",
"aQ c #000000",
"aR c #000000",
"aS c #000000",
"aT c #000000",
"aU c #000000",
"aV c #000000",
"aW c #000000",
"aX c #000000",
"aY c #000000",
"aZ c #000000",
"a0 c #000000",
"a1 c #000000",
"a2 c #000000",
"a3 c #000000",
"a4 c #000000",
"a5 c #000000",
"a6 c #000000",
"a7 c #000000",
"a8 c #000000",
/* pixels */
"````````````````````````````````````````````````",
"````````````````````````````````````````````````",
"````````````````````````````````````````````````",
"````````````````````````````````````````````````",
"````````````````````````````````````````````````",
"````````````````````````````````````````````````",
"````````````````````````````````````````````````",
"```````````.`#`a```````b`c`d`e```````f`g````````",
"```````````h`i`j`````k`l`m`n`o`p`````q`r````````",
"`````````````s`t`u`v`w`x```y`z`A`B`C`D`E````````",
"```````````````F`G`H`I```````J`K`B`L`M`N````````",
"```````````````O`H`P`Q```````R`S`T`U`V``````````",
"```````````````W`G`S`X`````````S`Y`U`Z``````````",
"`````````````0`t`1`2`3`4```````5`G`6````````````",
"```````````7`8.`````..`o.#.a.a`2`w.b````````````",
"``````````.c.d`````````b.e````.f.g.h````````````",
"`````````````````````````````s.i.j``````````````",
"````````````````````````````.k`8.l``````````````",
"````````````````````````````````````````````````",
"````````````````````````````````````````````````",
"````````````````````````````````````````````````",
"````````````````````````````````````````````````",
"````````````````````````````````````````````````",
"````````````````````````````````````````````````"
};
