/* XPM */
static char *ViewXZ_xpm[] = {
/* width height num_colors chars_per_pixel */
"    24    24      256            2",
/* colors */
"`` c none",
"`. c #d8dbdc",
"`# c #b8bec2",
"`a c #dfe2e2",
"`b c #bdc2c6",
"`c c #ced0d2",
"`d c #c0c5c9",
"`e c #bdc2c9",
"`f c #ccd0d2",
"`g c #c9cdcf",
"`h c #072232",
"`i c #0c2636",
"`j c #334856",
"`k c #001628",
"`l c #9da7ac",
"`m c #001728",
"`n c #00182a",
"`o c #00192a",
"`p c #001829",
"`q c #001527",
"`r c #3d515d",
"`s c #8b969d",
"`t c #001b2c",
"`u c #4c5f6a",
"`v c #839097",
"`w c #041e2f",
"`x c #6d7c85",
"`y c #c8ccd0",
"`z c #caced2",
"`A c #b9bec3",
"`B c #142d3c",
"`C c #9ba4aa",
"`D c #5e6f79",
"`E c #092233",
"`F c #0a2334",
"`G c #3e5260",
"`H c #3d515e",
"`I c #051f30",
"`J c #919ba2",
"`K c #cdd1d4",
"`L c #0b2434",
"`M c #0c2536",
"`N c #aeb5ba",
"`O c #74828b",
"`P c #082232",
"`Q c #727f89",
"`R c #3a4e5c",
"`S c #0a2434",
"`T c #2d4251",
"`U c #73818a",
"`V c #61727b",
"`W c #667580",
"`X c #828f97",
"`Y c #97a0a7",
"`Z c #959fa5",
"`0 c #17303f",
"`1 c #babfc4",
"`2 c #c9cdd0",
"`3 c #c4c8cc",
"`4 c #939ea4",
"`5 c #001123",
"`6 c #304554",
"`7 c #354958",
"`8 c #00192b",
".` c #a2abb0",
".. c #475a66",
".# c #011b2c",
".a c #001a2b",
".b c #001325",
".c c #000e20",
".d c #c6cbcd",
".e c #b8bec3",
".f c #d2d6d7",
".g c #d3d7d8",
".h c #c2c7cb",
".i c #c3c7cb",
".j c #bbc1c5",
".k c #b7bdc1",
".l c #000000",
".m c #000000",
".n c #000000",
".o c #000000",
".p c #000000",
".q c #000000",
".r c #000000",
".s c #000000",
".t c #000000",
".u c #000000",
".v c #000000",
".w c #000000",
".x c #000000",
".y c #000000",
".z c #000000",
".A c #000000",
".B c #000000",
".C c #000000",
".D c #000000",
".E c #000000",
".F c #000000",
".G c #000000",
".H c #000000",
".I c #000000",
".J c #000000",
".K c #000000",
".L c #000000",
".M c #000000",
".N c #000000",
".O c #000000",
".P c #000000",
".Q c #000000",
".R c #000000",
".S c #000000",
".T c #000000",
".U c #000000",
".V c #000000",
".W c #000000",
".X c #000000",
".Y c #000000",
".Z c #000000",
".0 c #000000",
".1 c #000000",
".2 c #000000",
".3 c #000000",
".4 c #000000",
".5 c #000000",
".6 c #000000",
".7 c #000000",
".8 c #000000",
"#` c #000000",
"#. c #000000",
"## c #000000",
"#a c #000000",
"#b c #000000",
"#c c #000000",
"#d c #000000",
"#e c #000000",
"#f c #000000",
"#g c #000000",
"#h c #000000",
"#i c #000000",
"#j c #000000",
"#k c #000000",
"#l c #000000",
"#m c #000000",
"#n c #000000",
"#o c #000000",
"#p c #000000",
"#q c #000000",
"#r c #000000",
"#s c #000000",
"#t c #000000",
"#u c #000000",
"#v c #000000",
"#w c #000000",
"#x c #000000",
"#y c #000000",
"#z c #000000",
"#A c #000000",
"#B c #000000",
"#C c #000000",
"#D c #000000",
"#E c #000000",
"#F c #000000",
"#G c #000000",
"#H c #000000",
"#I c #000000",
"#J c #000000",
"#K c #000000",
"#L c #000000",
"#M c #000000",
"#N c #000000",
"#O c #000000",
"#P c #000000",
"#Q c #000000",
"#R c #000000",
"#S c #000000",
"#T c #000000",
"#U c #000000",
"#V c #000000",
"#W c #000000",
"#X c #000000",
"#Y c #000000",
"#Z c #000000",
"#0 c #000000",
"#1 c #000000",
"#2 c #000000",
"#3 c #000000",
"#4 c #000000",
"#5 c #000000",
"#6 c #000000",
"#7 c #000000",
"#8 c #000000",
"a` c #000000",
"a. c #000000",
"a# c #000000",
"aa c #000000",
"ab c #000000",
"ac c #000000",
"ad c #000000",
"ae c #000000",
"af c #000000",
"ag c #000000",
"ah c #000000",
"ai c #000000",
"aj c #000000",
"ak c #000000",
"al c #000000",
"am c #000000",
"an c #000000",
"ao c #000000",
"ap c #000000",
"aq c #000000",
"ar c #000000",
"as c #000000",
"at c #000000",
"au c #000000",
"av c #000000",
"aw c #000000",
"ax c #000000",
"ay c #000000",
"az c #000000",
"aA c #000000",
"aB c #000000",
"aC c #000000",
"aD c #000000",
"aE c #000000",
"aF c #000000",
"aG c #000000",
"aH c #000000",
"aI c #000000",
"aJ c #000000",
"aK c #000000",
"aL c #000000",
"aM c #000000",
"aN c #000000",
"aO c #000000",
"aP c #000000",
"aQ c #000000",
"aR c #000000",
"aS c #000000",
"aT c #000000",
"aU c #000000",
"aV c #000000",
"aW c #000000",
"aX c #000000",
"aY c #000000",
"aZ c #000000",
"a0 c #000000",
"a1 c #000000",
"a2 c #000000",
"a3 c #000000",
"a4 c #000000",
"a5 c #000000",
"a6 c #000000",
"a7 c #000000",
"a8 c #000000",
/* pixels */
"````````````````````````````````````````````````",
"````````````````````````````````````````````````",
"````````````````````````````````````````````````",
"````````````````````````````````````````````````",
"````````````````````````````````````````````````",
"````````````````````````````````````````````````",
"````````````````````````````````````````````````",
"```````````.`#`a```````b`c```d`d`d`d`e`f````````",
"```````````g`h`i`````j`k`l`d`m`n`o`p`q`r````````",
"`````````````s`t`u`v`w`x`````y`z`A`B`o`C````````",
"```````````````D`E`F`G```````````H`I`J``````````",
"```````````````K`L`M`N`````````O`P`Q````````````",
"```````````````R`E`S`T```````U`P`V``````````````",
"`````````````W`t`X`Y`I`D```Z`I`0`1`2`3`b````````",
"```````````4`5`6`````7`8.`..`t.#.a`p.b.c````````",
"``````````.d.e`````````d.f.g.h.i`d`d.j.k````````",
"````````````````````````````````````````````````",
"````````````````````````````````````````````````",
"````````````````````````````````````````````````",
"````````````````````````````````````````````````",
"````````````````````````````````````````````````",
"````````````````````````````````````````````````",
"````````````````````````````````````````````````",
"````````````````````````````````````````````````"
};
