/* XPM */
static char *View3D_xpm[] = {
/* width height num_colors chars_per_pixel */
"    24    24      256            2",
/* colors */
"`` c none",
"`. c #8a93a1",
"`# c #344762",
"`a c #314560",
"`b c #bbc2c8",
"`c c #9c9fa9",
"`d c #061c39",
"`e c #000000",
"`f c #132946",
"`g c #a8abb1",
"`h c #677386",
"`i c #000728",
"`j c #152b48",
"`k c #b3b5bb",
"`l c #021735",
"`m c #00000c",
"`n c #0b2543",
"`o c #7888a0",
"`p c #3a4e5c",
"`q c #fafafa",
"`r c #b7bec5",
"`s c #8c909a",
"`t c #001534",
"`u c #000009",
"`v c #303f55",
"`w c #000007",
"`x c #00000a",
"`y c #f9f9f9",
"`z c #c5cbda",
"`A c #e0dee8",
"`B c #747e90",
"`C c #d4cfd2",
"`D c #657483",
"`E c #00001b",
"`F c #000022",
"`G c #2f465e",
"`H c #9198a5",
"`I c #000037",
"`J c #e3e5ec",
"`K c #e1e2ed",
"`L c #939192",
"`M c #000536",
"`N c #000024",
"`O c #000048",
"`P c #1e3f6d",
"`Q c #6d798c",
"`R c #7d7f90",
"`S c #000937",
"`T c #000039",
"`U c #1a1b20",
"`V c #65748b",
"`W c #797a7d",
"`X c #7f8fa4",
"`Y c #000646",
"`Z c #000036",
"`0 c #000014",
"`1 c #f8f8f8",
"`2 c #000031",
"`3 c #000043",
"`4 c #5a6780",
"`5 c #818187",
"`6 c #000739",
"`7 c #989da7",
"`8 c #6f7687",
".` c #00001a",
".. c #000049",
".# c #6c7a92",
".a c #aeaaaa",
".b c #294573",
".c c #000034",
".d c #576374",
".e c #5e677a",
".f c #000027",
".g c #e6e8ee",
".h c #a3adb8",
".i c #dddada",
".j c #9fa4b1",
".k c #000010",
".l c #253a53",
".m c #8397b4",
".n c #c8cdd2",
".o c #4b596f",
".p c #96a0ab",
".q c #5c6c7c",
".r c #00001e",
".s c #515f72",
".t c #bcc6e3",
".u c #00000f",
".v c #eaeeec",
".w c #6c7689",
".x c #dce1ea",
".y c #989697",
".z c #d6d6d2",
".A c #000004",
".B c #000011",
".C c #f7f7f7",
".D c #163a6a",
".E c #797475",
".F c #d5cecf",
".G c #748194",
".H c #000025",
".I c #00002d",
".J c #b4c4db",
".K c #c0cad1",
".L c #0b203a",
".M c #c7d1dd",
".N c #c0c2cc",
".O c #42556d",
".P c #00022d",
".Q c #5d6375",
".R c #bfbec1",
".S c #a5a6aa",
".T c #d4c8c8",
".U c #c0c5cb",
".V c #001946",
".W c #081934",
".X c #f6f6f6",
".Y c #6e6e7c",
".Z c #656c74",
".0 c #b2b0b0",
".1 c #5d6169",
".2 c #61676f",
".3 c #b4abb1",
".4 c #000000",
".5 c #000000",
".6 c #000000",
".7 c #000000",
".8 c #000000",
"#` c #000000",
"#. c #000000",
"## c #000000",
"#a c #000000",
"#b c #000000",
"#c c #000000",
"#d c #000000",
"#e c #000000",
"#f c #000000",
"#g c #000000",
"#h c #000000",
"#i c #000000",
"#j c #000000",
"#k c #000000",
"#l c #000000",
"#m c #000000",
"#n c #000000",
"#o c #000000",
"#p c #000000",
"#q c #000000",
"#r c #000000",
"#s c #000000",
"#t c #000000",
"#u c #000000",
"#v c #000000",
"#w c #000000",
"#x c #000000",
"#y c #000000",
"#z c #000000",
"#A c #000000",
"#B c #000000",
"#C c #000000",
"#D c #000000",
"#E c #000000",
"#F c #000000",
"#G c #000000",
"#H c #000000",
"#I c #000000",
"#J c #000000",
"#K c #000000",
"#L c #000000",
"#M c #000000",
"#N c #000000",
"#O c #000000",
"#P c #000000",
"#Q c #000000",
"#R c #000000",
"#S c #000000",
"#T c #000000",
"#U c #000000",
"#V c #000000",
"#W c #000000",
"#X c #000000",
"#Y c #000000",
"#Z c #000000",
"#0 c #000000",
"#1 c #000000",
"#2 c #000000",
"#3 c #000000",
"#4 c #000000",
"#5 c #000000",
"#6 c #000000",
"#7 c #000000",
"#8 c #000000",
"a` c #000000",
"a. c #000000",
"a# c #000000",
"aa c #000000",
"ab c #000000",
"ac c #000000",
"ad c #000000",
"ae c #000000",
"af c #000000",
"ag c #000000",
"ah c #000000",
"ai c #000000",
"aj c #000000",
"ak c #000000",
"al c #000000",
"am c #000000",
"an c #000000",
"ao c #000000",
"ap c #000000",
"aq c #000000",
"ar c #000000",
"as c #000000",
"at c #000000",
"au c #000000",
"av c #000000",
"aw c #000000",
"ax c #000000",
"ay c #000000",
"az c #000000",
"aA c #000000",
"aB c #000000",
"aC c #000000",
"aD c #000000",
"aE c #000000",
"aF c #000000",
"aG c #000000",
"aH c #000000",
"aI c #000000",
"aJ c #000000",
"aK c #000000",
"aL c #000000",
"aM c #000000",
"aN c #000000",
"aO c #000000",
"aP c #000000",
"aQ c #000000",
"aR c #000000",
"aS c #000000",
"aT c #000000",
"aU c #000000",
"aV c #000000",
"aW c #000000",
"aX c #000000",
"aY c #000000",
"aZ c #000000",
"a0 c #000000",
"a1 c #000000",
"a2 c #000000",
"a3 c #000000",
"a4 c #000000",
"a5 c #000000",
"a6 c #000000",
"a7 c #000000",
"a8 c #000000",
/* pixels */
"````````````````````````````````````````````````",
"````````````````````````````````````````````````",
"````````````````````````````````````````````````",
"```````````````````````````.`#`a`b``````````````",
"`````````````````````c`d`e`e`e`e`e`f`g``````````",
"```````````h`i`j`k```l`e`e`m`n`o`p`q`r`s````````",
"`````````t`e`e`e`u`v`w`e`x`p`p`y`z`A`y`B`C``````",
"```````D`e`E`F`G`y`y`H`e`I`p`y`x`e`e`J`K`L``````",
"```````M`N`O`P`y`Q`R`y`S`T`p`y`U`e`e`V`y`W``````",
"```````X`Y`Z`p`p`e`0`1`2`3`p`1`e`e`e`4`1`5``````",
"```````````6`0`e`e`7`8.`..`p`1`e`e`e.#`1.a``````",
"``````````.b.c`F.d`p.e.f`T`1.g`e`e`e`1.h.i``````",
"````````````.j.k`e.l`1.m`0`1.n`e`e.o`1.p````````",
"``````.q`e.r.s`e`e`e`1.t.u.v`1.w.x`1.y.z````````",
"``````.A`e.B`e`e`e`e.C.D.u`p.C.C.C.E.F``````````",
"``````.G.H.I.J.K.L.M.N.O.P.Q.R.S.T``````````````",
"````````.U.V.W.X.X.Y.Z``````````````````````````",
"````````````.0.1.2.3````````````````````````````",
"````````````````````````````````````````````````",
"````````````````````````````````````````````````",
"````````````````````````````````````````````````",
"````````````````````````````````````````````````",
"````````````````````````````````````````````````",
"````````````````````````````````````````````````"
};
