/* XPM */
static char *ViewYZ_xpm[] = {
/* width height num_colors chars_per_pixel */
"    24    24      256            2",
/* colors */
"`` c none",
"`. c #d8dbdc",
"`# c #b7bdc2",
"`a c #e0e2e2",
"`b c #bbc0c5",
"`c c #c0c5c9",
"`d c #bdc2c9",
"`e c #ccd0d2",
"`f c #a6adb3",
"`g c #001123",
"`h c #77858d",
"`i c #314654",
"`j c #001526",
"`k c #001728",
"`l c #00182a",
"`m c #00192a",
"`n c #001829",
"`o c #001527",
"`p c #3d515d",
"`q c #0c2536",
"`r c #112a3a",
"`s c #f8f8f8",
"`t c #011b2d",
"`u c #354a58",
"`v c #c8ccd0",
"`w c #caced1",
"`x c #b9bec3",
"`y c #142d3c",
"`z c #9ba4aa",
"`A c #697882",
"`B c #031d2e",
"`C c #bcc1c6",
"`D c #99a2a8",
"`E c #062030",
"`F c #959fa5",
"`G c #3c505e",
"`H c #051f30",
"`I c #919ba2",
"`J c #b4babf",
"`K c #75838c",
"`L c #405461",
"`M c #082232",
"`N c #73818a",
"`O c #082132",
"`P c #717f89",
"`Q c #2a3f4e",
"`R c #1c3443",
"`S c #0a2434",
"`T c #3e5260",
"`U c #717f88",
"`V c #072031",
"`W c #61727b",
"`X c #828f97",
"`Y c #a8b0b5",
"`Z c #929ca2",
"`0 c #021c2d",
"`1 c #152e3e",
"`2 c #c9cdd0",
"`3 c #c4c8cc",
"`4 c #bdc2c6",
"`5 c #daddde",
"`6 c #041e2f",
"`7 c #445763",
"`8 c #00192b",
".` c #001325",
".. c #000e20",
".# c #d7dada",
".a c #001a2b",
".b c #596a74",
".c c #d0d4d5",
".d c #bbc1c5",
".e c #b7bdc1",
".f c #869199",
".g c #2e4453",
".h c #aeb5ba",
".i c #263d4c",
".j c #000f21",
".k c #606f7a",
".l c #000000",
".m c #000000",
".n c #000000",
".o c #000000",
".p c #000000",
".q c #000000",
".r c #000000",
".s c #000000",
".t c #000000",
".u c #000000",
".v c #000000",
".w c #000000",
".x c #000000",
".y c #000000",
".z c #000000",
".A c #000000",
".B c #000000",
".C c #000000",
".D c #000000",
".E c #000000",
".F c #000000",
".G c #000000",
".H c #000000",
".I c #000000",
".J c #000000",
".K c #000000",
".L c #000000",
".M c #000000",
".N c #000000",
".O c #000000",
".P c #000000",
".Q c #000000",
".R c #000000",
".S c #000000",
".T c #000000",
".U c #000000",
".V c #000000",
".W c #000000",
".X c #000000",
".Y c #000000",
".Z c #000000",
".0 c #000000",
".1 c #000000",
".2 c #000000",
".3 c #000000",
".4 c #000000",
".5 c #000000",
".6 c #000000",
".7 c #000000",
".8 c #000000",
"#` c #000000",
"#. c #000000",
"## c #000000",
"#a c #000000",
"#b c #000000",
"#c c #000000",
"#d c #000000",
"#e c #000000",
"#f c #000000",
"#g c #000000",
"#h c #000000",
"#i c #000000",
"#j c #000000",
"#k c #000000",
"#l c #000000",
"#m c #000000",
"#n c #000000",
"#o c #000000",
"#p c #000000",
"#q c #000000",
"#r c #000000",
"#s c #000000",
"#t c #000000",
"#u c #000000",
"#v c #000000",
"#w c #000000",
"#x c #000000",
"#y c #000000",
"#z c #000000",
"#A c #000000",
"#B c #000000",
"#C c #000000",
"#D c #000000",
"#E c #000000",
"#F c #000000",
"#G c #000000",
"#H c #000000",
"#I c #000000",
"#J c #000000",
"#K c #000000",
"#L c #000000",
"#M c #000000",
"#N c #000000",
"#O c #000000",
"#P c #000000",
"#Q c #000000",
"#R c #000000",
"#S c #000000",
"#T c #000000",
"#U c #000000",
"#V c #000000",
"#W c #000000",
"#X c #000000",
"#Y c #000000",
"#Z c #000000",
"#0 c #000000",
"#1 c #000000",
"#2 c #000000",
"#3 c #000000",
"#4 c #000000",
"#5 c #000000",
"#6 c #000000",
"#7 c #000000",
"#8 c #000000",
"a` c #000000",
"a. c #000000",
"a# c #000000",
"aa c #000000",
"ab c #000000",
"ac c #000000",
"ad c #000000",
"ae c #000000",
"af c #000000",
"ag c #000000",
"ah c #000000",
"ai c #000000",
"aj c #000000",
"ak c #000000",
"al c #000000",
"am c #000000",
"an c #000000",
"ao c #000000",
"ap c #000000",
"aq c #000000",
"ar c #000000",
"as c #000000",
"at c #000000",
"au c #000000",
"av c #000000",
"aw c #000000",
"ax c #000000",
"ay c #000000",
"az c #000000",
"aA c #000000",
"aB c #000000",
"aC c #000000",
"aD c #000000",
"aE c #000000",
"aF c #000000",
"aG c #000000",
"aH c #000000",
"aI c #000000",
"aJ c #000000",
"aK c #000000",
"aL c #000000",
"aM c #000000",
"aN c #000000",
"aO c #000000",
"aP c #000000",
"aQ c #000000",
"aR c #000000",
"aS c #000000",
"aT c #000000",
"aU c #000000",
"aV c #000000",
"aW c #000000",
"aX c #000000",
"aY c #000000",
"aZ c #000000",
"a0 c #000000",
"a1 c #000000",
"a2 c #000000",
"a3 c #000000",
"a4 c #000000",
"a5 c #000000",
"a6 c #000000",
"a7 c #000000",
"a8 c #000000",
/* pixels */
"````````````````````````````````````````````````",
"````````````````````````````````````````````````",
"````````````````````````````````````````````````",
"````````````````````````````````````````````````",
"````````````````````````````````````````````````",
"````````````````````````````````````````````````",
"````````````````````````````````````````````````",
"```````````.`#```````a`b`````c`c`c`c`d`e````````",
"```````````f`g`h`````i`j```c`k`l`m`n`o`p````````",
"`````````````q`r`s`s`t`u`````v`w`x`y`m`z````````",
"`````````````A`B`C`D`E`F`````````G`H`I``````````",
"`````````````J`H`K`L`M`````````N`O`P````````````",
"```````````````Q`R`S`T```````U`V`W``````````````",
"```````````````X`O`M`Y`````Z`0`1`x`2`3`4````````",
"```````````````5`6`6```````7`n`8`8`n.`..````````",
"``````````````.#.a.b``````.c`c`c`c`c.d.e````````",
"````````````.f.g`o.h````````````````````````````",
"````````````.i.j.k``````````````````````````````",
"````````````````````````````````````````````````",
"````````````````````````````````````````````````",
"````````````````````````````````````````````````",
"````````````````````````````````````````````````",
"````````````````````````````````````````````````",
"````````````````````````````````````````````````"
};
