/* XPM */
static char *ViewRefresh_xpm[] = {
/* width height num_colors chars_per_pixel */
"    24    24      256            2",
/* colors */
"`` c none",
"`. c #fefdfd",
"`# c #f6f6f7",
"`a c #fcfcfc",
"`b c #fefcfb",
"`c c #435561",
"`d c #fdfcfb",
"`e c #0c2535",
"`f c #fffffe",
"`g c #fbf9f7",
"`h c #fdfcfc",
"`i c #eaebec",
"`j c #adb4b8",
"`k c #a9aeb2",
"`l c #a6acaf",
"`m c #abb0b2",
"`n c #e8e8e8",
"`o c #e8eaeb",
"`p c #a2abb0",
"`q c #072132",
"`r c #fffefd",
"`s c #abafb2",
"`t c #000012",
"`u c #082232",
"`v c #fffffd",
"`w c #dfe0e0",
"`x c #0f2736",
"`y c #b4b8ba",
"`z c #000417",
"`A c #fffdfb",
"`B c #f7f7f6",
"`C c #fffefe",
"`D c #a9acae",
"`E c #000d1f",
"`F c #f3f3f3",
"`G c #fdfdfd",
"`H c #a2a5a7",
"`I c #000d20",
"`J c #949ea5",
"`K c #596974",
"`L c #fbfbfa",
"`M c #abaeb0",
"`N c #fdfdfc",
"`O c #bbbfc1",
"`P c #000215",
"`Q c #f8f4f2",
"`R c #f9f5f3",
"`S c #ececec",
"`T c #69747b",
"`U c #041e2f",
"`V c #fffefc",
"`W c #072030",
"`X c #b6babd",
"`Y c #000316",
"`Z c #0a2333",
"`0 c #0b2434",
"`1 c #f5f5f5",
"`2 c #808a92",
"`3 c #f2eeec",
"`4 c #eeecea",
"`5 c #f2eeeb",
"`6 c #031d2e",
"`7 c #f2f2f2",
"`8 c #f4f4f4",
".` c #bbbdbf",
".. c #0d2535",
".# c #0c2434",
".a c #0d2534",
".b c #00091b",
".c c #f9f9f9",
".d c #f7f7f7",
".e c #000000",
".f c #000000",
".g c #000000",
".h c #000000",
".i c #000000",
".j c #000000",
".k c #000000",
".l c #000000",
".m c #000000",
".n c #000000",
".o c #000000",
".p c #000000",
".q c #000000",
".r c #000000",
".s c #000000",
".t c #000000",
".u c #000000",
".v c #000000",
".w c #000000",
".x c #000000",
".y c #000000",
".z c #000000",
".A c #000000",
".B c #000000",
".C c #000000",
".D c #000000",
".E c #000000",
".F c #000000",
".G c #000000",
".H c #000000",
".I c #000000",
".J c #000000",
".K c #000000",
".L c #000000",
".M c #000000",
".N c #000000",
".O c #000000",
".P c #000000",
".Q c #000000",
".R c #000000",
".S c #000000",
".T c #000000",
".U c #000000",
".V c #000000",
".W c #000000",
".X c #000000",
".Y c #000000",
".Z c #000000",
".0 c #000000",
".1 c #000000",
".2 c #000000",
".3 c #000000",
".4 c #000000",
".5 c #000000",
".6 c #000000",
".7 c #000000",
".8 c #000000",
"#` c #000000",
"#. c #000000",
"## c #000000",
"#a c #000000",
"#b c #000000",
"#c c #000000",
"#d c #000000",
"#e c #000000",
"#f c #000000",
"#g c #000000",
"#h c #000000",
"#i c #000000",
"#j c #000000",
"#k c #000000",
"#l c #000000",
"#m c #000000",
"#n c #000000",
"#o c #000000",
"#p c #000000",
"#q c #000000",
"#r c #000000",
"#s c #000000",
"#t c #000000",
"#u c #000000",
"#v c #000000",
"#w c #000000",
"#x c #000000",
"#y c #000000",
"#z c #000000",
"#A c #000000",
"#B c #000000",
"#C c #000000",
"#D c #000000",
"#E c #000000",
"#F c #000000",
"#G c #000000",
"#H c #000000",
"#I c #000000",
"#J c #000000",
"#K c #000000",
"#L c #000000",
"#M c #000000",
"#N c #000000",
"#O c #000000",
"#P c #000000",
"#Q c #000000",
"#R c #000000",
"#S c #000000",
"#T c #000000",
"#U c #000000",
"#V c #000000",
"#W c #000000",
"#X c #000000",
"#Y c #000000",
"#Z c #000000",
"#0 c #000000",
"#1 c #000000",
"#2 c #000000",
"#3 c #000000",
"#4 c #000000",
"#5 c #000000",
"#6 c #000000",
"#7 c #000000",
"#8 c #000000",
"a` c #000000",
"a. c #000000",
"a# c #000000",
"aa c #000000",
"ab c #000000",
"ac c #000000",
"ad c #000000",
"ae c #000000",
"af c #000000",
"ag c #000000",
"ah c #000000",
"ai c #000000",
"aj c #000000",
"ak c #000000",
"al c #000000",
"am c #000000",
"an c #000000",
"ao c #000000",
"ap c #000000",
"aq c #000000",
"ar c #000000",
"as c #000000",
"at c #000000",
"au c #000000",
"av c #000000",
"aw c #000000",
"ax c #000000",
"ay c #000000",
"az c #000000",
"aA c #000000",
"aB c #000000",
"aC c #000000",
"aD c #000000",
"aE c #000000",
"aF c #000000",
"aG c #000000",
"aH c #000000",
"aI c #000000",
"aJ c #000000",
"aK c #000000",
"aL c #000000",
"aM c #000000",
"aN c #000000",
"aO c #000000",
"aP c #000000",
"aQ c #000000",
"aR c #000000",
"aS c #000000",
"aT c #000000",
"aU c #000000",
"aV c #000000",
"aW c #000000",
"aX c #000000",
"aY c #000000",
"aZ c #000000",
"a0 c #000000",
"a1 c #000000",
"a2 c #000000",
"a3 c #000000",
"a4 c #000000",
"a5 c #000000",
"a6 c #000000",
"a7 c #000000",
"a8 c #000000",
/* pixels */
"````````````````````````````````````````````````",
"````````````````````````````````````````````````",
"`````````````````````````.`#`a``````````````````",
"`````````````````````````b`c````````````````````",
"`````````````````````````d`e`e`f````````````````",
"`````````````````````f```g`e`e`e`h``````````````",
"`````````````````i`j`k`l`m`e`e`e`e`.````````````",
"```````````````n`e`e`e`e`e`e`e`e`e`e````````````",
"```````````o`p`e`q`e`e`e`e`e`e`e`e```f``````````",
"`````````r`s`t`u`e```````v`e`e`e````````````````",
"`````````w`e`x`e```````````e`e``````````````````",
"`````````y`z`e`A```````````e`B``````````````````",
"```````C`D`E`e```````````````````````F`G````````",
"```````.`H`I`e```````````````````J`K```L````````",
"```````C`M`E`e```````````````````e`e```N````````",
"`````````O`P`e`Q```````````````R`e`e````````````",
"`````````S`T`U`e`v```````````V`e`W`e````````````",
"```````````X`Y`Z`e```````````e`0`z``````````````",
"```````````1`2`P`e`e`3`4`5`e`6`P```7````````````",
"`````````````8.``e`e...#.a.b`e.`````````````````",
"````````````````.c`e`e`e`e`e.d``````````````````",
"````````````````````````````````````````````````",
"````````````````````````````````````````````````",
"````````````````````````````````````````````````"
};
